M48
; DRILL file {KiCad 8.0.5+dfsg-1} date 2025-08-13T00:48:11+0000
; FORMAT={-:-/ absolute / metric / decimal}
; #@! TF.CreationDate,2025-08-13T00:48:11+00:00
; #@! TF.GenerationSoftware,Kicad,Pcbnew,8.0.5+dfsg-1
; #@! TF.FileFunction,Plated,1,2,PTH
FMAT,2
METRIC
; #@! TA.AperFunction,Plated,PTH,ComponentDrill
T1C0.200
; #@! TA.AperFunction,Plated,PTH,ViaDrill
T2C0.400
; #@! TA.AperFunction,Plated,PTH,ComponentDrill
T3C0.600
; #@! TA.AperFunction,Plated,PTH,ComponentDrill
T4C0.750
; #@! TA.AperFunction,Plated,PTH,ComponentDrill
T5C0.920
; #@! TA.AperFunction,Plated,PTH,ComponentDrill
T6C1.000
; #@! TA.AperFunction,Plated,PTH,ComponentDrill
T7C1.100
; #@! TA.AperFunction,Plated,PTH,ComponentDrill
T8C2.330
; #@! TA.AperFunction,Plated,PTH,ComponentDrill
T9C3.200
%
G90
G05
T1
X220.045Y-87.917
X220.045Y-89.442
X220.807Y-87.155
X220.807Y-88.68
X220.807Y-90.205
X221.57Y-87.917
X221.57Y-89.442
X222.332Y-87.155
X222.332Y-88.68
X222.332Y-90.205
X223.095Y-87.917
X223.095Y-89.442
T2
X189.0Y-102.0
X189.0Y-113.0
X191.6Y-86.2
X192.75Y-121.5
X193.75Y-95.25
X193.8Y-109.5
X194.022Y-105.75
X194.2Y-91.4
X194.4Y-114.5
X194.8Y-112.4
X196.5Y-112.75
X196.75Y-88.2
X197.0Y-130.0
X197.95Y-117.25
X198.0Y-91.0
X198.0Y-93.0
X198.0Y-95.0
X198.0Y-105.5
X198.0Y-107.5
X198.0Y-109.5
X198.6Y-135.8
X198.8Y-119.2
X199.0Y-92.0
X199.0Y-94.0
X199.0Y-106.5
X199.0Y-108.5
X199.0Y-125.75
X199.4Y-89.4
X199.4Y-102.0
X199.5Y-96.65
X199.5Y-111.15
X200.0Y-87.0
X200.0Y-91.0
X200.0Y-93.0
X200.0Y-95.0
X200.0Y-105.5
X200.0Y-107.5
X200.0Y-109.5
X200.75Y-121.0
X202.75Y-120.25
X204.25Y-124.5
X204.5Y-134.0
X205.1Y-113.6
X205.126Y-84.889
X205.2Y-118.2
X205.2Y-128.6
X205.26Y-99.002
X205.4Y-130.8
X206.25Y-123.5
X206.481Y-98.896
X207.75Y-99.0
X208.2Y-130.8
X208.3Y-113.2
X209.0Y-109.0
X209.0Y-114.75
X210.012Y-108.712
X210.38Y-119.145
X210.75Y-124.0
X211.25Y-88.5
X211.25Y-106.525
X211.35Y-92.15
X211.561Y-96.582
X211.6Y-97.85
X211.75Y-115.0
X211.8Y-83.912
X212.0Y-129.75
X213.7Y-104.9
X214.85Y-96.25
X215.2Y-84.0
X215.5Y-123.75
X215.5Y-130.0
X216.5Y-95.5
X216.65Y-89.45
X217.764Y-108.472
X217.8Y-97.5
X218.5Y-105.75
X218.5Y-123.75
X219.25Y-102.25
X219.25Y-108.25
X219.263Y-84.763
X220.8Y-101.8
X221.25Y-118.0
X221.425Y-108.425
X221.7Y-92.7
X221.757Y-128.534
X222.0Y-132.25
X225.0Y-85.5
X226.6Y-81.2
X227.2Y-108.4
X227.75Y-120.25
X228.2Y-94.9
X228.38Y-89.715
X229.0Y-105.5
X229.1Y-91.3
X229.395Y-89.705
X229.42Y-96.58
X229.6Y-99.0
X230.962Y-100.5
X232.5Y-95.31
X233.426Y-92.71
X233.8Y-84.2
X234.2Y-100.0
T3
X194.5Y-100.5
X196.5Y-100.5
T4
X185.675Y-92.0
X185.675Y-94.0
X185.675Y-96.0
X185.675Y-98.0
X185.675Y-104.245
X185.675Y-106.245
X185.675Y-108.245
X185.675Y-110.245
X208.4Y-119.0
X208.4Y-121.0
T5
X221.25Y-141.422
X221.25Y-143.422
X223.75Y-141.422
X223.75Y-143.422
T6
X210.38Y-112.0
X212.92Y-112.0
X215.46Y-112.0
X218.0Y-112.0
T8
X216.48Y-146.132
X228.52Y-146.132
T9
X184.0Y-85.0
X206.0Y-149.0
X231.0Y-127.0
T6
X187.48Y-124.49G85X187.48Y-128.09
G05
X193.48Y-124.49G85X193.48Y-128.09
G05
T7
X194.53Y-142.99G85X192.43Y-142.99
G05
X194.53Y-149.29G85X192.43Y-149.29
G05
M30
