G04 #@! TF.GenerationSoftware,KiCad,Pcbnew,7.0.10+dfsg-1*
G04 #@! TF.CreationDate,2024-05-26T04:12:05+00:00*
G04 #@! TF.ProjectId,telescope,74656c65-7363-46f7-9065-2e6b69636164,rev?*
G04 #@! TF.SameCoordinates,Original*
G04 #@! TF.FileFunction,Copper,L1,Top*
G04 #@! TF.FilePolarity,Positive*
%FSLAX46Y46*%
G04 Gerber Fmt 4.6, Leading zero omitted, Abs format (unit mm)*
G04 Created by KiCad (PCBNEW 7.0.10+dfsg-1) date 2024-05-26 04:12:05*
%MOMM*%
%LPD*%
G01*
G04 APERTURE LIST*
G04 Aperture macros list*
%AMRoundRect*
0 Rectangle with rounded corners*
0 $1 Rounding radius*
0 $2 $3 $4 $5 $6 $7 $8 $9 X,Y pos of 4 corners*
0 Add a 4 corners polygon primitive as box body*
4,1,4,$2,$3,$4,$5,$6,$7,$8,$9,$2,$3,0*
0 Add four circle primitives for the rounded corners*
1,1,$1+$1,$2,$3*
1,1,$1+$1,$4,$5*
1,1,$1+$1,$6,$7*
1,1,$1+$1,$8,$9*
0 Add four rect primitives between the rounded corners*
20,1,$1+$1,$2,$3,$4,$5,0*
20,1,$1+$1,$4,$5,$6,$7,0*
20,1,$1+$1,$6,$7,$8,$9,0*
20,1,$1+$1,$8,$9,$2,$3,0*%
%AMFreePoly0*
4,1,1280,0.017518,2.794432,0.076922,2.767885,0.127522,2.726328,0.166042,2.671958,0.174073,2.655074,0.186692,2.620930,0.192074,2.589678,0.191589,2.551658,0.190602,2.538640,0.182296,2.485045,0.165381,2.436905,0.137180,2.388043,0.108284,2.348824,0.083984,2.316308,0.055222,2.275466,0.027819,2.234584,0.025236,2.230593,0.000787,2.196084,-0.033013,2.152981,-0.071820,2.106623,
-0.111290,2.062352,-0.113815,2.059631,-0.207706,1.958731,0.122397,1.952475,0.259485,1.949435,0.381890,1.945675,0.494460,1.940933,0.602047,1.934946,0.709499,1.927452,0.821666,1.918189,0.915665,1.909556,0.977292,1.904303,1.040992,1.899915,1.100160,1.896784,1.148191,1.895299,1.157838,1.895231,1.239665,1.892811,1.327495,1.886089,1.413371,1.875876,1.489338,1.862981,
1.502692,1.860140,1.545318,1.851587,1.588956,1.844228,1.615038,1.840732,1.707089,1.828544,1.796291,1.812693,1.879563,1.793984,1.953823,1.773227,2.015990,1.751228,2.062983,1.728794,2.077221,1.719606,2.116958,1.680884,2.140172,1.636017,2.146170,1.588141,2.134259,1.540394,2.121704,1.518037,2.095931,1.481756,2.070294,1.450290,2.040972,1.419696,2.004142,1.386036,
1.955981,1.345367,1.947192,1.338130,1.901744,1.300150,1.853916,1.259106,1.809955,1.220414,1.781115,1.194184,1.745124,1.160679,1.708865,1.126955,1.678561,1.098800,1.670722,1.091526,1.642177,1.061747,1.611219,1.024468,1.589923,0.995442,1.551132,0.938321,1.575822,0.932124,1.602634,0.929681,1.633948,0.932212,1.635672,0.932523,1.656365,0.933590,1.692715,0.932580,
1.740975,0.929716,1.797398,0.925219,1.857857,0.919352,1.927696,0.912187,2.001626,0.904970,2.073291,0.898299,2.136335,0.892768,2.171884,0.889899,2.257653,0.880537,2.355986,0.864896,2.461280,0.843882,2.474006,0.841067,2.535676,0.827812,2.596193,0.815755,2.650810,0.805772,2.694783,0.798741,2.718237,0.795906,2.754954,0.791816,2.804512,0.785065,2.860543,0.776575,
2.916682,0.767266,2.919230,0.766821,2.976412,0.757390,3.034958,0.748705,3.088043,0.741722,3.128845,0.737399,3.129269,0.737364,3.178871,0.732092,3.232317,0.724540,3.275807,0.716773,3.314263,0.709677,3.364844,0.701579,3.420255,0.693600,3.461423,0.688267,3.510628,0.682230,3.555802,0.676630,3.591666,0.672123,3.611773,0.669527,3.656077,0.655743,3.696107,0.629205,
3.728431,0.593935,3.749615,0.553954,3.756223,0.513285,3.754909,0.501861,3.747874,0.480848,3.732923,0.462347,3.705889,0.441743,3.693056,0.433343,3.656216,0.412008,3.618047,0.393367,3.593360,0.383726,3.557562,0.370800,3.522905,0.355945,3.515154,0.352132,3.481830,0.336999,3.445729,0.323348,3.441884,0.322094,3.411727,0.310896,3.386620,0.298955,3.382773,0.296632,
3.366110,0.288716,3.335095,0.276513,3.294009,0.261626,3.247130,0.245654,3.242244,0.244044,3.189137,0.225256,3.135849,0.204093,3.088884,0.183266,3.057125,0.166892,3.023168,0.147859,2.977489,0.123248,2.925879,0.096134,2.874133,0.069595,2.870384,0.067701,2.748269,0.006097,2.787346,-0.001273,2.823819,-0.006261,2.863315,-0.009055,2.869752,-0.009206,2.896305,-0.012619,
2.935652,-0.021460,2.982274,-0.034348,3.026060,-0.048323,3.079710,-0.065151,3.136189,-0.080423,3.187832,-0.092181,3.218858,-0.097529,3.264774,-0.105371,3.320487,-0.117493,3.381078,-0.132547,3.441627,-0.149190,3.497214,-0.166076,3.542919,-0.181859,3.571372,-0.193925,3.605322,-0.207257,3.643975,-0.217370,3.653096,-0.218932,3.687908,-0.228381,3.726621,-0.245185,3.745904,-0.256208,
3.780784,-0.277207,3.823185,-0.300715,3.857077,-0.318200,3.907716,-0.347539,3.956371,-0.383536,3.998816,-0.422409,4.030824,-0.460381,4.045890,-0.487095,4.053290,-0.513792,4.060334,-0.553373,4.065940,-0.599196,4.067853,-0.622164,4.070489,-0.670817,4.070261,-0.704757,4.066860,-0.728644,4.059973,-0.747136,4.059461,-0.748141,4.042343,-0.772596,4.014455,-0.803716,3.980763,-0.836591,
3.946237,-0.866306,3.921918,-0.884134,3.890380,-0.901534,3.847082,-0.921237,3.798334,-0.940801,3.750446,-0.957783,3.709730,-0.969738,3.691000,-0.973535,3.653081,-0.982841,3.614996,-0.998054,3.607961,-1.001773,3.575200,-1.017456,3.542179,-1.029082,3.534692,-1.030899,3.505453,-1.039637,3.470061,-1.053813,3.453342,-1.061712,3.422696,-1.074613,3.380048,-1.089292,3.332491,-1.103398,
3.309431,-1.109417,3.256888,-1.124621,3.200898,-1.144346,3.151083,-1.165103,3.136781,-1.172020,3.091446,-1.193587,3.037200,-1.217153,2.983686,-1.238582,2.968077,-1.244390,2.917963,-1.263105,2.864874,-1.283757,2.817894,-1.302790,2.804288,-1.308533,2.736722,-1.331838,2.664267,-1.347437,2.652865,-1.349002,2.612375,-1.355433,2.577140,-1.363490,2.553509,-1.371660,2.550301,-1.373449,
2.526550,-1.382498,2.492910,-1.382922,2.479474,-1.381405,2.451790,-1.378721,2.434146,-1.378911,2.430769,-1.380486,2.435124,-1.391305,2.446471,-1.413986,2.460371,-1.439967,2.479083,-1.476415,2.495817,-1.512962,2.503785,-1.533052,2.511153,-1.551186,2.521660,-1.571083,2.537111,-1.595411,2.559314,-1.626841,2.590075,-1.668043,2.631201,-1.721684,2.633198,-1.724269,2.663423,-1.757586,
2.700713,-1.790930,2.724586,-1.808622,2.775434,-1.850203,2.812605,-1.897306,2.834745,-1.947094,2.840502,-1.996734,2.832401,-2.034437,2.810283,-2.066303,2.774716,-2.088047,2.729335,-2.099028,2.677779,-2.098600,2.623683,-2.086122,2.598318,-2.075866,2.565035,-2.062364,2.534841,-2.053437,2.520164,-2.051324,2.476321,-2.042764,2.429533,-2.020231,2.385164,-1.987435,2.348579,-1.948087,
2.331569,-1.920867,2.312544,-1.890335,2.290032,-1.863922,2.283949,-1.858512,2.259084,-1.833671,2.228995,-1.796373,2.197233,-1.751618,2.167353,-1.704405,2.143417,-1.660769,2.123894,-1.625772,2.102225,-1.593371,2.089516,-1.577730,2.070183,-1.554588,2.045638,-1.521990,2.021167,-1.486960,1.979721,-1.424930,1.914610,-1.431796,1.877347,-1.436623,1.845104,-1.442364,1.826883,-1.447138,
1.798328,-1.453987,1.779340,-1.455615,1.761527,-1.458409,1.758214,-1.470253,1.759642,-1.477596,1.781536,-1.542069,1.812724,-1.593444,1.822789,-1.604865,1.839608,-1.624837,1.863991,-1.657025,1.892878,-1.697250,1.923206,-1.741331,1.928141,-1.748692,1.999830,-1.846178,2.072306,-1.925267,2.079836,-1.932377,2.141072,-1.996469,2.183974,-2.057600,2.208307,-2.115342,2.213834,-2.169270,
2.213361,-2.174279,2.199675,-2.221179,2.172036,-2.256676,2.132869,-2.280019,2.084601,-2.290458,2.029658,-2.287243,1.970466,-2.269622,1.944427,-2.257490,1.920616,-2.240871,1.887036,-2.211533,1.846057,-2.172064,1.800049,-2.125056,1.751381,-2.073099,1.702422,-2.018784,1.655542,-1.964700,1.613111,-1.913438,1.577498,-1.867590,1.551073,-1.829744,1.546654,-1.822626,1.521295,-1.781005,
1.491602,-1.732980,1.463788,-1.688598,1.462492,-1.686549,1.436845,-1.643539,1.411426,-1.596784,1.391381,-1.555786,1.389963,-1.552583,1.375534,-1.520453,1.363723,-1.495739,1.357011,-1.483623,1.356894,-1.483485,1.346060,-1.481510,1.318189,-1.479024,1.275773,-1.476175,1.221305,-1.473113,1.157274,-1.469987,1.086172,-1.466945,1.067961,-1.466229,0.973542,-1.462866,0.894780,-1.460914,
0.827833,-1.460592,0.768855,-1.462120,0.714003,-1.465718,0.659433,-1.471605,0.601300,-1.480001,0.535761,-1.491125,0.491577,-1.499147,0.446588,-1.506282,0.401549,-1.511541,0.365675,-1.513863,0.363520,-1.513890,0.344067,-1.515067,0.309682,-1.518218,0.263245,-1.523001,0.207634,-1.529070,0.145730,-1.536082,0.080413,-1.543694,0.014563,-1.551561,-0.048940,-1.559340,-0.107217,-1.566687,
-0.157387,-1.573258,-0.196571,-1.578710,-0.221888,-1.582699,-0.230465,-1.584793,-0.237118,-1.601756,-0.247691,-1.631683,-0.260243,-1.668899,-0.272834,-1.707727,-0.276497,-1.719384,-0.291215,-1.761551,-0.310566,-1.810347,-0.329751,-1.853873,-0.345603,-1.889665,-0.357401,-1.920452,-0.363030,-1.940608,-0.363231,-1.943023,-0.367048,-1.961373,-0.376942,-1.990334,-0.387654,-2.016409,-0.400617,-2.047683,
-0.409473,-2.072804,-0.412077,-2.084419,-0.417681,-2.098519,-0.432780,-2.124155,-0.454807,-2.157493,-0.481194,-2.194698,-0.509373,-2.231937,-0.518851,-2.243857,-0.538770,-2.268883,-0.564148,-2.301205,-0.582993,-2.325441,-0.607751,-2.354305,-0.632425,-2.378042,-0.648450,-2.389565,-0.681222,-2.399196,-0.724192,-2.402352,-0.769154,-2.399118,-0.807901,-2.389573,-0.811941,-2.387923,-0.862835,-2.358379,
-0.908183,-2.318156,-0.944758,-2.271406,-0.969333,-2.222282,-0.978681,-2.174936,-0.978693,-2.173336,-0.976202,-2.144247,-0.967015,-2.117379,-0.948554,-2.087181,-0.923670,-2.054779,-0.904965,-2.028384,-0.893046,-2.005334,-0.885349,-1.973400,-0.877502,-1.958462,-0.867124,-1.936217,-0.858543,-1.906068,-0.857393,-1.900115,-0.851733,-1.874988,-0.841624,-1.836768,-0.828575,-1.790970,-0.816287,-1.750150,
-0.803232,-1.706984,-0.793002,-1.671379,-0.786619,-1.647020,-0.785104,-1.637595,-0.785107,-1.637593,-0.795484,-1.637642,-0.821282,-1.639045,-0.858447,-1.641554,-0.896787,-1.644437,-1.005381,-1.652949,-1.000676,-1.694684,-1.001351,-1.737140,-1.010375,-1.790951,-1.026449,-1.850484,-1.048272,-1.910104,-1.052810,-1.920635,-1.069465,-1.950658,-1.093621,-1.984926,-1.121917,-2.019670,-1.150992,-2.051119,
-1.177484,-2.075506,-1.198033,-2.089059,-1.204389,-2.090620,-1.220255,-2.098476,-1.241707,-2.118955,-1.265141,-2.147437,-1.286952,-2.179304,-1.303539,-2.209935,-1.309285,-2.225104,-1.329748,-2.271353,-1.359698,-2.308919,-1.395211,-2.333591,-1.416612,-2.340299,-1.449734,-2.347821,-1.486371,-2.358782,-1.493874,-2.361412,-1.547000,-2.370910,-1.603712,-2.364287,-1.660478,-2.343619,-1.713766,-2.310980,
-1.760044,-2.268446,-1.795780,-2.218092,-1.814572,-2.172999,-1.822237,-2.137293,-1.824236,-2.106233,-1.822871,-2.095549,-1.811802,-2.072106,-1.790626,-2.041344,-1.763894,-2.008860,-1.736162,-1.980249,-1.715110,-1.963094,-1.696150,-1.946680,-1.672556,-1.921291,-1.658825,-1.904478,-1.638572,-1.874157,-1.625385,-1.842167,-1.616171,-1.800481,-1.614320,-1.788878,-1.609381,-1.753886,-1.606385,-1.727447,
-1.605877,-1.714520,-1.606070,-1.714029,-1.616257,-1.714127,-1.641675,-1.716487,-1.678202,-1.720685,-1.711385,-1.724913,-1.752042,-1.729369,-1.807664,-1.734148,-1.873689,-1.738928,-1.945553,-1.743387,-2.018694,-1.747204,-2.043539,-1.748320,-2.120830,-1.752010,-2.202879,-1.756581,-2.283889,-1.761666,-2.358066,-1.766897,-2.419615,-1.771907,-2.429423,-1.772806,-2.482005,-1.777160,-2.549615,-1.781880,
-2.627755,-1.786702,-2.711923,-1.791362,-2.797621,-1.795595,-2.873923,-1.798885,-2.963723,-1.802192,-3.041786,-1.804373,-3.112835,-1.805392,-3.181592,-1.805209,-3.252778,-1.803787,-3.331117,-1.801087,-3.421330,-1.797070,-3.484500,-1.793943,-3.566387,-1.789457,-3.645882,-1.784492,-3.719862,-1.779288,-3.785204,-1.774086,-3.838783,-1.769125,-3.877476,-1.764648,-3.889923,-1.762726,-3.929929,-1.753197,
-3.982832,-1.737220,-4.043919,-1.716561,-4.108479,-1.692984,-4.171796,-1.668251,-4.229160,-1.644127,-4.275855,-1.622376,-4.300231,-1.609171,-4.365740,-1.565243,-4.431370,-1.513230,-4.491126,-1.458258,-4.539015,-1.405455,-4.540302,-1.403835,-4.568333,-1.369252,-4.589861,-1.346380,-4.610108,-1.331304,-4.634298,-1.320107,-4.666455,-1.309254,-4.752281,-1.274139,-4.822168,-1.228092,-4.876633,-1.170709,
-4.906122,-1.123071,-4.919787,-1.083969,-4.930565,-1.026132,-4.935734,-0.981206,-4.939843,-0.933742,-4.941280,-0.900519,-4.939712,-0.876379,-4.934805,-0.856166,-4.926287,-0.834858,-4.898617,-0.790317,-4.418319,-0.790317,-4.383829,-0.842262,-4.363288,-0.878906,-4.346943,-0.918212,-4.340493,-0.941559,-4.337327,-0.973881,-4.337431,-1.013843,-4.340280,-1.055846,-4.345349,-1.094293,-4.352114,-1.123583,
-4.358821,-1.137112,-4.366051,-1.153452,-4.368616,-1.174746,-4.373258,-1.203673,-4.383873,-1.232090,-4.391352,-1.248193,-4.392467,-1.261047,-4.385395,-1.275796,-4.368314,-1.297583,-4.355200,-1.313017,-4.317988,-1.352134,-4.275436,-1.387456,-4.224061,-1.421308,-4.160384,-1.456016,-4.091866,-1.488902,-4.040857,-1.511244,-3.992906,-1.529404,-3.944651,-1.544070,-3.892725,-1.555926,-3.833766,-1.565658,
-3.764409,-1.573953,-3.681289,-1.581494,-3.611500,-1.586810,-3.533151,-1.591256,-3.438714,-1.594629,-3.331612,-1.596947,-3.215264,-1.598233,-3.093091,-1.598505,-2.968514,-1.597786,-2.844953,-1.596095,-2.725831,-1.593453,-2.614566,-1.589881,-2.514581,-1.585399,-2.429295,-1.580028,-2.424539,-1.579663,-2.344480,-1.573748,-2.254190,-1.567549,-2.161503,-1.561576,-2.074253,-1.556336,-2.014231,-1.553046,
-1.950934,-1.549529,-1.891873,-1.545787,-1.840733,-1.542089,-1.801198,-1.538705,-1.776951,-1.535903,-1.774885,-1.535554,-1.735808,-1.528403,-1.735808,-1.455375,-1.736663,-1.418781,-1.740386,-1.389389,-1.748718,-1.360520,-1.763397,-1.325495,-1.777327,-1.295927,-1.795138,-1.257535,-1.809126,-1.224871,-1.817405,-1.202478,-1.818846,-1.195938,-1.822480,-1.175534,-1.832315,-1.141623,-1.846754,-1.098608,
-1.864198,-1.050896,-1.883050,-1.002892,-1.901711,-0.959002,-1.915254,-0.930163,-1.934531,-0.889899,-1.951736,-0.851004,-1.963730,-0.820644,-1.965386,-0.815730,-1.977775,-0.784000,-1.992244,-0.756089,-1.994767,-0.752230,-2.010088,-0.725411,-2.019168,-0.703384,-2.027629,-0.682823,-2.042763,-0.651912,-2.061375,-0.617162,-2.062328,-0.615461,-2.083017,-0.577578,-2.102413,-0.540313,-2.115774,-0.512884,
-2.133085,-0.478344,-2.152508,-0.444246,-2.155409,-0.439615,-2.170772,-0.414851,-2.191931,-0.379827,-2.214883,-0.341184,-2.220187,-0.332154,-2.246505,-0.288620,-2.275662,-0.242502,-2.301716,-0.203179,-2.303723,-0.200269,-2.324325,-0.168701,-2.346635,-0.131619,-2.368256,-0.093402,-2.386788,-0.058428,-2.399833,-0.031074,-2.404992,-0.015718,-2.405000,-0.015413,-2.410190,-0.002113,-2.424070,0.023199,
-2.444105,0.056543,-2.467761,0.093941,-2.492501,0.131411,-2.515792,0.164974,-2.535098,0.190651,-2.562483,0.223495,-2.591825,0.260157,-2.623228,0.300478,-2.638499,0.320515,-2.669128,0.358678,-2.700756,0.394165,-2.728583,0.421745,-2.740471,0.431607,-2.765101,0.447524,-2.799399,0.466873,-2.838814,0.487421,-2.878792,0.506935,-2.914780,0.523182,-2.942227,0.533929,-2.955492,0.537071,
-2.967520,0.530739,-2.989498,0.514129,-3.017249,0.490466,-3.025346,0.483143,-3.060396,0.452743,-3.104153,0.417220,-3.149220,0.382510,-3.224063,0.327456,-3.277917,0.286116,-3.330573,0.243606,-3.384035,0.198122,-3.440314,0.147862,-3.501415,0.091021,-3.569347,0.025797,-3.646117,-0.049613,-3.733733,-0.137013,-3.758039,-0.161422,-3.838880,-0.242160,-3.913635,-0.315752,-3.981040,-0.381000,
-4.039832,-0.436704,-4.088748,-0.481665,-4.126524,-0.514683,-4.148808,-0.532374,-4.204082,-0.575236,-4.261841,-0.624805,-4.316957,-0.676350,-4.364304,-0.725143,-4.389317,-0.754177,-4.418319,-0.790317,-4.898617,-0.790317,-4.896203,-0.786431,-4.854586,-0.746273,-4.806128,-0.717752,-4.755520,-0.704236,-4.743482,-0.703599,-4.708090,-0.698718,-4.674267,-0.686498,-4.648338,-0.669855,-4.637302,-0.654642,
-4.627220,-0.638542,-4.605192,-0.612217,-4.573943,-0.578348,-4.536194,-0.539620,-4.494668,-0.498714,-4.452087,-0.458314,-4.411174,-0.421103,-4.374650,-0.389763,-4.345828,-0.367395,-4.323130,-0.349086,-4.289076,-0.318731,-4.245784,-0.278434,-4.195371,-0.230300,-4.139954,-0.176434,-4.081650,-0.118938,-4.022576,-0.059919,-3.964849,-0.001481,-3.910586,0.054273,-3.861906,0.105237,-3.820923,0.149307,
-3.789757,0.184379,-3.784577,0.190500,-3.766688,0.210278,-3.736817,0.241457,-3.697104,0.281934,-3.649686,0.329607,-3.596703,0.382372,-3.540292,0.438126,-3.482593,0.494767,-3.425743,0.550190,-3.371882,0.602294,-3.323148,0.648974,-3.281680,0.688129,-3.249616,0.717654,-3.238398,0.727611,-3.209666,0.757899,-3.184018,0.793600,-3.175518,0.809025,-3.156696,0.843569,-3.132327,0.882277,
-3.127254,0.889503,-2.729442,0.889503,-2.728224,0.876938,-2.725744,0.868953,-2.720143,0.840565,-2.718652,0.805622,-2.719150,0.796127,-2.719340,0.768759,-2.715328,0.753694,-2.712737,0.752231,-2.674185,0.760602,-2.627111,0.785299,-2.573731,0.824849,-2.543010,0.849387,-2.517291,0.868170,-2.500669,0.878274,-2.497519,0.879231,-2.473649,0.885461,-2.440185,0.902266,-2.401749,0.926819,
-2.362965,0.956292,-2.343013,0.973713,-2.304323,1.005743,-2.259373,1.037581,-2.220897,1.060648,-2.138193,1.105683,-2.067478,1.147362,-2.032778,1.169586,-2.001587,1.184799,-1.964791,1.195486,-1.955934,1.196923,-1.897981,1.206534,-1.843624,1.221020,-1.785661,1.242596,-1.735808,1.264615,-1.692310,1.283866,-1.649975,1.301122,-1.615458,1.313724,-1.603923,1.317259,-1.525950,1.337600,
-1.460876,1.352323,-1.403226,1.362447,-1.347524,1.368990,-1.310846,1.371738,-1.262489,1.375772,-1.216372,1.381469,-1.179189,1.387918,-1.164308,1.391659,-1.136775,1.397218,-1.092555,1.402478,-1.034497,1.407282,-0.965453,1.411470,-0.888272,1.414882,-0.805805,1.417358,-0.720903,1.418741,-0.675846,1.418976,-0.618503,1.418379,-0.574119,1.415907,-0.536147,1.410757,-0.498037,1.402126,
-0.467157,1.393402,-0.407099,1.377965,-0.351872,1.369972,-0.289475,1.367693,-0.209291,1.363588,-0.133304,1.351972,-0.067011,1.333890,-0.029986,1.318290,-0.003485,1.306384,0.017359,1.299781,0.021434,1.299308,0.036271,1.294956,0.063139,1.283391,0.096968,1.266847,0.107304,1.261465,0.163128,1.235131,0.219422,1.215908,0.282625,1.201990,0.354807,1.192050,0.383569,1.187975,
0.410283,1.181593,0.438933,1.171312,0.473507,1.155539,0.517991,1.132683,0.559961,1.110093,0.608636,1.083565,0.652922,1.059313,0.689209,1.039325,0.713890,1.025583,0.721154,1.021440,0.785413,0.985794,0.848476,0.955419,0.920224,0.925573,0.923969,0.924106,0.963062,0.909155,0.995454,0.897373,1.016771,0.890318,1.022496,0.889000,1.034185,0.883888,1.057465,0.870320,
1.087856,0.850948,1.096300,0.845334,1.133063,0.822524,1.169345,0.803050,1.197876,0.790783,1.200171,0.790057,1.224291,0.779963,1.237846,0.768727,1.238923,0.765339,1.246182,0.753101,1.251134,0.751789,1.262042,0.743821,1.279128,0.723301,1.298784,0.694588,1.299683,0.693153,1.339146,0.641652,1.388355,0.601162,1.392651,0.598345,1.424639,0.574721,1.463319,0.541822,
1.502495,0.505060,1.520868,0.486359,1.557339,0.450027,1.595893,0.414981,1.630591,0.386491,1.645416,0.375833,1.690185,0.339300,1.720165,0.297685,1.721607,0.294897,1.738618,0.264719,1.760621,0.230259,1.784759,0.195435,1.808178,0.164162,1.828022,0.140357,1.841437,0.127935,1.844024,0.127000,1.854097,0.119788,1.872054,0.100779,1.894203,0.073917,1.896602,0.070827,
1.931460,0.032256,1.973368,-0.004849,1.998846,-0.023266,2.039692,-0.053408,2.065696,-0.082637,2.075099,-0.099704,2.089941,-0.123312,2.115287,-0.154568,2.146832,-0.188371,2.164062,-0.205082,2.207588,-0.248820,2.239776,-0.289453,2.266015,-0.333972,2.270832,-0.343567,2.292935,-0.384746,2.317843,-0.425404,2.340373,-0.457111,2.341524,-0.458531,2.381021,-0.508774,2.423057,-0.566542,
2.470683,-0.636067,2.484491,-0.656791,2.520431,-0.706253,2.560069,-0.752955,2.599873,-0.793286,2.636311,-0.823630,2.662788,-0.839202,2.684036,-0.851855,2.694352,-0.865641,2.694538,-0.867346,2.700344,-0.888159,2.715012,-0.916924,2.734419,-0.946990,2.754442,-0.971710,2.765244,-0.981357,2.786794,-0.992428,2.812104,-0.995517,2.847170,-0.990960,2.865500,-0.987020,2.899084,-0.979720,
2.930275,-0.973554,2.933884,-0.972906,2.956918,-0.966047,2.990397,-0.952752,3.027510,-0.935750,3.031577,-0.933744,3.074624,-0.914092,3.120611,-0.895816,3.157906,-0.883389,3.195029,-0.871000,3.240686,-0.853044,3.286100,-0.833016,3.294159,-0.829176,3.330285,-0.812230,3.360147,-0.799191,3.379117,-0.792038,3.382752,-0.791266,3.396132,-0.786180,3.419404,-0.773173,3.437000,-0.761991,
3.469128,-0.743662,3.501152,-0.730078,3.514373,-0.726442,3.548129,-0.716707,3.591451,-0.699584,3.638701,-0.677827,3.684236,-0.654192,3.722419,-0.631434,3.747173,-0.612728,3.769405,-0.586456,3.778216,-0.559945,3.778923,-0.546695,3.777830,-0.528346,3.772251,-0.514416,3.758730,-0.501038,3.733816,-0.484344,3.710837,-0.470457,3.677520,-0.451446,3.649756,-0.437172,3.632431,-0.430104,
3.630241,-0.429750,3.615159,-0.425785,3.588874,-0.415603,3.564000,-0.404582,3.522779,-0.388059,3.470209,-0.370891,3.411694,-0.354445,3.352638,-0.340087,3.298446,-0.329184,3.254523,-0.323102,3.238513,-0.322296,3.207034,-0.320026,3.163464,-0.313993,3.114653,-0.305236,3.085307,-0.299019,3.010203,-0.285222,2.923359,-0.274618,2.843101,-0.268680,2.787058,-0.265567,2.745946,-0.262294,
2.715170,-0.257967,2.690137,-0.251693,2.666253,-0.242578,2.638924,-0.229728,2.636340,-0.228457,2.602791,-0.212589,2.575478,-0.200880,2.559548,-0.195510,2.558347,-0.195384,2.546097,-0.188925,2.525433,-0.172177,2.506026,-0.153865,2.471846,-0.111373,2.450937,-0.063567,2.441511,-0.005532,2.440538,0.026044,2.444644,0.070748,2.458161,0.110178,2.482893,0.146250,2.520639,0.180876,
2.573203,0.215971,2.642385,0.253448,2.665230,0.264752,2.713710,0.289604,2.768531,0.319605,2.819668,0.349229,2.831323,0.356310,2.890693,0.392139,2.939856,0.419784,2.984687,0.442158,3.031060,0.462174,3.084849,0.482746,3.090192,0.484702,3.129791,0.499379,3.152737,0.508782,3.160814,0.514102,3.155808,0.516526,3.139503,0.517246,3.139038,0.517251,3.114606,0.518499,
3.075826,0.521580,3.027759,0.526051,2.975463,0.531467,2.968077,0.532277,2.897319,0.539575,2.818434,0.546824,2.734351,0.553835,2.647998,0.560417,2.562304,0.566381,2.480198,0.571537,2.404607,0.575695,2.338460,0.578665,2.284687,0.580257,2.246215,0.580281,2.235384,0.579783,2.175474,0.579302,2.097910,0.585210,2.015577,0.595593,1.954637,0.604005,1.891436,0.612147,
1.832716,0.619185,1.785220,0.624286,1.777644,0.625002,1.728970,0.630498,1.693616,0.637590,1.665362,0.647932,1.640875,0.661380,1.603155,0.682192,1.561552,0.701635,1.546654,0.707601,1.482011,0.734369,1.423774,0.763616,1.375923,0.793100,1.342438,0.820580,1.338655,0.824669,1.306588,0.874537,1.287883,0.932729,1.282916,0.994089,1.292068,1.053464,1.315714,1.105697,
1.317821,1.108808,1.354814,1.158234,1.398471,1.208995,1.450472,1.262681,1.512496,1.320880,1.586222,1.385178,1.673329,1.457165,1.755499,1.522713,1.793818,1.553277,1.826200,1.579816,1.849721,1.599879,1.861457,1.611018,1.862203,1.612113,1.854802,1.617184,1.832553,1.623593,1.799974,1.630086,1.793819,1.631095,1.756157,1.637325,1.705765,1.646003,1.649121,1.655998,
1.592703,1.666179,1.590615,1.666561,1.531206,1.676032,1.460173,1.685192,1.385419,1.693137,1.314852,1.698965,1.297538,1.700058,1.236178,1.703843,1.161554,1.708791,1.079876,1.714471,0.997354,1.720449,0.920199,1.726294,0.916538,1.726579,0.820984,1.732675,0.707982,1.737500,0.579583,1.741032,0.437838,1.743247,0.284797,1.744123,0.122511,1.743637,-0.046969,1.741767,
-0.202039,1.738923,-0.278854,1.737395,-0.338890,1.736884,-0.384900,1.737888,-0.419637,1.740904,-0.445854,1.746430,-0.466303,1.754962,-0.483738,1.766996,-0.500910,1.783031,-0.512404,1.794960,-0.538324,1.831203,-0.550673,1.873499,-0.550954,1.927018,-0.550906,1.927574,-0.548079,1.948899,-0.542198,1.967365,-0.530840,1.986802,-0.511581,2.011039,-0.481998,2.043904,-0.467219,2.059800,
-0.381864,2.153512,-0.309626,2.237996,-0.248241,2.316071,-0.195442,2.390553,-0.170772,2.428572,-0.144794,2.470317,-0.122451,2.507054,-0.105928,2.535128,-0.097416,2.550881,-0.096995,2.551877,-0.098230,2.562999,-0.113063,2.569922,-0.142913,2.572789,-0.189195,2.571743,-0.249725,2.567250,-0.302738,2.561614,-0.353754,2.553994,-0.405034,2.543662,-0.458838,2.529891,-0.517428,2.511952,
-0.583063,2.489118,-0.658004,2.460660,-0.744513,2.425852,-0.844849,2.383964,-0.924962,2.349853,-1.049700,2.295940,-1.158919,2.247532,-1.255369,2.203210,-1.341801,2.161558,-1.420967,2.121158,-1.495617,2.080592,-1.568504,2.038442,-1.642377,1.993292,-1.719989,1.943723,-1.745577,1.927015,-1.926256,1.802810,-2.090492,1.678066,-2.237337,1.553551,-2.365837,1.430035,-2.384691,1.410354,
-2.425000,1.366629,-2.455511,1.329887,-2.480526,1.293925,-2.504344,1.252540,-2.531266,1.199530,-2.532222,1.197584,-2.598345,1.079143,-2.662985,0.988692,-2.693848,0.949782,-2.714029,0.922538,-2.725302,0.903574,-2.729442,0.889503,-3.127254,0.889503,-3.117318,0.903654,-3.091778,0.941583,-3.064991,0.987139,-3.039901,1.034683,-3.019448,1.078580,-3.006574,1.113192,-3.005151,1.118577,
-2.992885,1.148632,-2.968855,1.189473,-2.935357,1.238318,-2.894685,1.292384,-2.849134,1.348888,-2.800999,1.405048,-2.752574,1.458081,-2.706155,1.505205,-2.664035,1.543635,-2.637386,1.564555,-2.618147,1.582006,-2.592442,1.610287,-2.564935,1.644168,-2.556709,1.655073,-2.541818,1.674663,-2.527051,1.692240,-2.510446,1.709332,-2.490038,1.727462,-2.463866,1.748156,-2.429966,1.772940,
-2.386375,1.803339,-2.331131,1.840877,-2.262271,1.887082,-2.232774,1.906795,-2.160094,1.954979,-2.085662,2.003669,-2.012824,2.050723,-1.944928,2.093996,-1.885319,2.131348,-1.837344,2.160636,-1.823731,2.168696,-1.729062,2.221983,-1.621929,2.278707,-1.508236,2.335954,-1.393891,2.390812,-1.284797,2.440369,-1.198500,2.477009,-1.137109,2.502317,-1.069463,2.530719,-1.003541,2.558838,
-0.947321,2.583295,-0.944500,2.584541,-0.876944,2.613039,-0.802656,2.642014,-0.725397,2.670203,-0.648929,2.696345,-0.577011,2.719179,-0.513406,2.737442,-0.461874,2.749875,-0.439903,2.753790,-0.401954,2.759278,-0.351225,2.766726,-0.294254,2.775167,-0.235863,2.783896,-0.181389,2.791445,-0.128361,2.797676,-0.082536,2.801982,-0.049675,2.803755,-0.047416,2.803770,0.017518,2.794432,
0.017518,2.794432,$1*%
%AMFreePoly1*
4,1,43,-0.060108,0.202865,0.012950,0.199714,0.084822,0.195002,0.152075,0.188856,0.211281,0.181402,0.259006,0.172767,0.275030,0.168754,0.329153,0.146940,0.375785,0.115629,0.413019,0.077662,0.438950,0.035883,0.451670,-0.006867,0.449273,-0.047745,0.437623,-0.073658,0.409522,-0.099461,0.369274,-0.112361,0.320146,-0.111464,0.307873,-0.109199,0.277885,-0.105575,0.232143,-0.103644,
0.174356,-0.103384,0.108234,-0.104773,0.037484,-0.107791,-0.015846,-0.111072,-0.042318,-0.111462,-0.080543,-0.110274,-0.122824,-0.107764,-0.128193,-0.107356,-0.200386,-0.097215,-0.257593,-0.078267,-0.303043,-0.048772,-0.339966,-0.006991,-0.353272,0.013895,-0.374217,0.062621,-0.379543,0.108144,-0.369752,0.147530,-0.345343,0.177844,-0.323105,0.190789,-0.295582,0.197336,-0.252089,0.201691,
-0.196059,0.203980,-0.130921,0.204329,-0.060108,0.202865,-0.060108,0.202865,$1*%
%AMFreePoly2*
4,1,6,1.000000,0.000000,0.500000,-0.750000,-0.500000,-0.750000,-0.500000,0.750000,0.500000,0.750000,1.000000,0.000000,1.000000,0.000000,$1*%
%AMFreePoly3*
4,1,6,0.500000,-0.750000,-0.650000,-0.750000,-0.150000,0.000000,-0.650000,0.750000,0.500000,0.750000,0.500000,-0.750000,0.500000,-0.750000,$1*%
G04 Aperture macros list end*
G04 #@! TA.AperFunction,ComponentPad*
%ADD10C,6.400000*%
G04 #@! TD*
G04 #@! TA.AperFunction,SMDPad,CuDef*
%ADD11RoundRect,0.250000X0.350000X0.450000X-0.350000X0.450000X-0.350000X-0.450000X0.350000X-0.450000X0*%
G04 #@! TD*
G04 #@! TA.AperFunction,ComponentPad*
%ADD12O,4.500000X2.250000*%
G04 #@! TD*
G04 #@! TA.AperFunction,SMDPad,CuDef*
%ADD13RoundRect,0.250000X0.475000X-0.337500X0.475000X0.337500X-0.475000X0.337500X-0.475000X-0.337500X0*%
G04 #@! TD*
G04 #@! TA.AperFunction,SMDPad,CuDef*
%ADD14FreePoly0,0.000000*%
G04 #@! TD*
G04 #@! TA.AperFunction,SMDPad,CuDef*
%ADD15FreePoly1,0.000000*%
G04 #@! TD*
G04 #@! TA.AperFunction,SMDPad,CuDef*
%ADD16RoundRect,0.250000X-0.350000X-0.450000X0.350000X-0.450000X0.350000X0.450000X-0.350000X0.450000X0*%
G04 #@! TD*
G04 #@! TA.AperFunction,SMDPad,CuDef*
%ADD17R,1.400000X2.100000*%
G04 #@! TD*
G04 #@! TA.AperFunction,SMDPad,CuDef*
%ADD18RoundRect,0.250000X0.337500X0.475000X-0.337500X0.475000X-0.337500X-0.475000X0.337500X-0.475000X0*%
G04 #@! TD*
G04 #@! TA.AperFunction,SMDPad,CuDef*
%ADD19FreePoly2,90.000000*%
G04 #@! TD*
G04 #@! TA.AperFunction,SMDPad,CuDef*
%ADD20FreePoly3,90.000000*%
G04 #@! TD*
G04 #@! TA.AperFunction,ComponentPad*
%ADD21O,2.500000X6.100000*%
G04 #@! TD*
G04 #@! TA.AperFunction,SMDPad,CuDef*
%ADD22R,1.500000X0.900000*%
G04 #@! TD*
G04 #@! TA.AperFunction,SMDPad,CuDef*
%ADD23R,0.900000X1.500000*%
G04 #@! TD*
G04 #@! TA.AperFunction,SMDPad,CuDef*
%ADD24R,1.050000X1.050000*%
G04 #@! TD*
G04 #@! TA.AperFunction,HeatsinkPad*
%ADD25C,0.600000*%
G04 #@! TD*
G04 #@! TA.AperFunction,SMDPad,CuDef*
%ADD26R,4.200000X4.200000*%
G04 #@! TD*
G04 #@! TA.AperFunction,SMDPad,CuDef*
%ADD27RoundRect,0.250000X-0.450000X0.350000X-0.450000X-0.350000X0.450000X-0.350000X0.450000X0.350000X0*%
G04 #@! TD*
G04 #@! TA.AperFunction,SMDPad,CuDef*
%ADD28RoundRect,0.250000X0.450000X-0.350000X0.450000X0.350000X-0.450000X0.350000X-0.450000X-0.350000X0*%
G04 #@! TD*
G04 #@! TA.AperFunction,SMDPad,CuDef*
%ADD29RoundRect,0.250001X0.624999X-0.462499X0.624999X0.462499X-0.624999X0.462499X-0.624999X-0.462499X0*%
G04 #@! TD*
G04 #@! TA.AperFunction,ComponentPad*
%ADD30C,1.200000*%
G04 #@! TD*
G04 #@! TA.AperFunction,SMDPad,CuDef*
%ADD31RoundRect,0.250000X-0.475000X0.337500X-0.475000X-0.337500X0.475000X-0.337500X0.475000X0.337500X0*%
G04 #@! TD*
G04 #@! TA.AperFunction,SMDPad,CuDef*
%ADD32R,1.511300X0.355600*%
G04 #@! TD*
G04 #@! TA.AperFunction,SMDPad,CuDef*
%ADD33RoundRect,0.150000X-0.150000X0.587500X-0.150000X-0.587500X0.150000X-0.587500X0.150000X0.587500X0*%
G04 #@! TD*
G04 #@! TA.AperFunction,ComponentPad*
%ADD34RoundRect,0.250000X-0.625000X0.350000X-0.625000X-0.350000X0.625000X-0.350000X0.625000X0.350000X0*%
G04 #@! TD*
G04 #@! TA.AperFunction,ComponentPad*
%ADD35O,1.750000X1.200000*%
G04 #@! TD*
G04 #@! TA.AperFunction,ComponentPad*
%ADD36R,1.700000X1.700000*%
G04 #@! TD*
G04 #@! TA.AperFunction,ComponentPad*
%ADD37C,1.700000*%
G04 #@! TD*
G04 #@! TA.AperFunction,ComponentPad*
%ADD38C,3.500000*%
G04 #@! TD*
G04 #@! TA.AperFunction,ComponentPad*
%ADD39O,1.700000X1.700000*%
G04 #@! TD*
G04 #@! TA.AperFunction,ViaPad*
%ADD40C,0.800000*%
G04 #@! TD*
G04 #@! TA.AperFunction,Conductor*
%ADD41C,0.250000*%
G04 #@! TD*
G04 #@! TA.AperFunction,Conductor*
%ADD42C,0.600000*%
G04 #@! TD*
G04 APERTURE END LIST*
D10*
X231000000Y-127000000D03*
D11*
X215000000Y-136500000D03*
X213000000Y-136500000D03*
D12*
X193480000Y-142990000D03*
X193480000Y-149290000D03*
D13*
X227000000Y-124037500D03*
X227000000Y-121962500D03*
D14*
X224600000Y-105600000D03*
D15*
X221400000Y-106000000D03*
D16*
X208000000Y-92000000D03*
X210000000Y-92000000D03*
D17*
X198750000Y-113500000D03*
X198750000Y-104400000D03*
X203250000Y-113500000D03*
X203250000Y-104400000D03*
D16*
X224250000Y-102250000D03*
X226250000Y-102250000D03*
D18*
X233037500Y-102750000D03*
X230962500Y-102750000D03*
D19*
X219000000Y-118749832D03*
D20*
X219000000Y-117299832D03*
D13*
X224000000Y-124037500D03*
X224000000Y-121962500D03*
D21*
X187480000Y-126290000D03*
X193480000Y-126290000D03*
D22*
X213500000Y-81340000D03*
X213500000Y-82610000D03*
X213500000Y-83880000D03*
X213500000Y-85150000D03*
X213500000Y-86420000D03*
X213500000Y-87690000D03*
X213500000Y-88960000D03*
X213500000Y-90230000D03*
X213500000Y-91500000D03*
X213500000Y-92770000D03*
X213500000Y-94040000D03*
X213500000Y-95310000D03*
X213500000Y-96580000D03*
X213500000Y-97850000D03*
D23*
X216540000Y-99100000D03*
X217810000Y-99100000D03*
X219080000Y-99100000D03*
X220350000Y-99100000D03*
X221620000Y-99100000D03*
X222890000Y-99100000D03*
X224160000Y-99100000D03*
X225430000Y-99100000D03*
X226700000Y-99100000D03*
X227970000Y-99100000D03*
D22*
X231000000Y-97850000D03*
X231000000Y-96580000D03*
X231000000Y-95310000D03*
X231000000Y-94040000D03*
X231000000Y-92770000D03*
X231000000Y-91500000D03*
X231000000Y-90230000D03*
X231000000Y-88960000D03*
X231000000Y-87690000D03*
X231000000Y-86420000D03*
X231000000Y-85150000D03*
X231000000Y-83880000D03*
X231000000Y-82610000D03*
X231000000Y-81340000D03*
D24*
X220045000Y-87155000D03*
D25*
X220045000Y-87917500D03*
D24*
X220045000Y-88680000D03*
D25*
X220045000Y-89442500D03*
D24*
X220045000Y-90205000D03*
D25*
X220807500Y-87155000D03*
X220807500Y-88680000D03*
X220807500Y-90205000D03*
D24*
X221570000Y-87155000D03*
D25*
X221570000Y-87917500D03*
D24*
X221570000Y-88680000D03*
D26*
X221570000Y-88680000D03*
D25*
X221570000Y-89442500D03*
D24*
X221570000Y-90205000D03*
D25*
X222332500Y-87155000D03*
X222332500Y-88680000D03*
X222332500Y-90205000D03*
D24*
X223095000Y-87155000D03*
D25*
X223095000Y-87917500D03*
D24*
X223095000Y-88680000D03*
D25*
X223095000Y-89442500D03*
D24*
X223095000Y-90205000D03*
D10*
X184000000Y-85000000D03*
D19*
X215000000Y-118799832D03*
D20*
X215000000Y-117349832D03*
D27*
X210750000Y-100000000D03*
X210750000Y-102000000D03*
D28*
X231500000Y-109500000D03*
X231500000Y-107500000D03*
D29*
X230500000Y-116487500D03*
X230500000Y-113512500D03*
D30*
X194500000Y-100500000D03*
X196500000Y-100500000D03*
D31*
X210000000Y-82962500D03*
X210000000Y-85037500D03*
D32*
X213992900Y-123350014D03*
X213992900Y-124000000D03*
X213992900Y-124649986D03*
X213992900Y-125299972D03*
X213992900Y-125949958D03*
X213992900Y-126599944D03*
X213992900Y-127249930D03*
X213992900Y-127899916D03*
X213992900Y-128549902D03*
X213992900Y-129199888D03*
X213992900Y-129849874D03*
X213992900Y-130499860D03*
X213992900Y-131149846D03*
X213992900Y-131799832D03*
X220000000Y-131799832D03*
X220000000Y-131149846D03*
X220000000Y-130499860D03*
X220000000Y-129849874D03*
X220000000Y-129199888D03*
X220000000Y-128549902D03*
X220000000Y-127899916D03*
X220000000Y-127249930D03*
X220000000Y-126599944D03*
X220000000Y-125949958D03*
X220000000Y-125299972D03*
X220000000Y-124649986D03*
X220000000Y-124000000D03*
X220000000Y-123350014D03*
D27*
X221750000Y-112000000D03*
X221750000Y-114000000D03*
D28*
X227000000Y-132299832D03*
X227000000Y-130299832D03*
X224000000Y-132299832D03*
X224000000Y-130299832D03*
D31*
X207000000Y-83000000D03*
X207000000Y-85075000D03*
D10*
X206000000Y-149000000D03*
D33*
X226500000Y-114500000D03*
X224600000Y-114500000D03*
X225550000Y-116375000D03*
D17*
X203250000Y-84900000D03*
X203250000Y-94000000D03*
X198750000Y-84900000D03*
X198750000Y-94000000D03*
D16*
X208000000Y-88500000D03*
X210000000Y-88500000D03*
D34*
X185675000Y-92000000D03*
D35*
X185675000Y-94000000D03*
X185675000Y-96000000D03*
X185675000Y-98000000D03*
D36*
X223750000Y-141422500D03*
D37*
X221250000Y-141422500D03*
X221250000Y-143422500D03*
X223750000Y-143422500D03*
D38*
X228520000Y-146132500D03*
X216480000Y-146132500D03*
D36*
X210380000Y-112000000D03*
D39*
X212920000Y-112000000D03*
X215460000Y-112000000D03*
X218000000Y-112000000D03*
D34*
X185675000Y-104245000D03*
D35*
X185675000Y-106245000D03*
X185675000Y-108245000D03*
X185675000Y-110245000D03*
D40*
X204250000Y-123370100D03*
X200000000Y-87000000D03*
X194000000Y-90750000D03*
X194021570Y-105750000D03*
X194021570Y-95214407D03*
X194000000Y-111250000D03*
X231800000Y-120200000D03*
X217400000Y-97600000D03*
X221400000Y-91800000D03*
X188750000Y-98250000D03*
X217250000Y-90000000D03*
X191500000Y-86250000D03*
X200250000Y-88500000D03*
X212000000Y-128500000D03*
X196750000Y-88000000D03*
X233800000Y-85600000D03*
X184400000Y-101000000D03*
X224200000Y-94800000D03*
X221250000Y-118000000D03*
X226600000Y-81200000D03*
X204000000Y-117500000D03*
X203250000Y-88000000D03*
X209600000Y-120600000D03*
X205000000Y-114000000D03*
X209000000Y-114750000D03*
X196800000Y-119000000D03*
X199750000Y-116500000D03*
X211750000Y-115000000D03*
X227250000Y-120000000D03*
X209000000Y-109000000D03*
X196500000Y-102500000D03*
X226600000Y-85400000D03*
X213500000Y-104750000D03*
X189500000Y-84000000D03*
X196500000Y-112750000D03*
X210380000Y-119145000D03*
X218500000Y-123750000D03*
X229000000Y-105500000D03*
X219250000Y-108250000D03*
X219250000Y-102250000D03*
X200000000Y-96500000D03*
X204500000Y-134000000D03*
X200000000Y-111000000D03*
X215500000Y-123750000D03*
X215200000Y-84000000D03*
X211250000Y-106525000D03*
X230962500Y-100500000D03*
X215500000Y-130000000D03*
X227200000Y-108400000D03*
X221425000Y-108425000D03*
X221756795Y-128533714D03*
X229420000Y-96580000D03*
X211250000Y-88500000D03*
X205260177Y-99002499D03*
X211600000Y-97850000D03*
X218500000Y-105750000D03*
X206250000Y-114750000D03*
X229250000Y-91750000D03*
X219960439Y-85465245D03*
X214850002Y-96250000D03*
X211500000Y-92000000D03*
X216500000Y-95500000D03*
X211561158Y-96581575D03*
X228750000Y-90250000D03*
X206480645Y-98896100D03*
X207750000Y-99000000D03*
X210500000Y-107750000D03*
X217764500Y-108472128D03*
X201250000Y-113250000D03*
D41*
X195500000Y-87000000D02*
X193000000Y-89500000D01*
D42*
X193985977Y-95250000D02*
X194021570Y-95214407D01*
X204250000Y-123370100D02*
X193000000Y-112120100D01*
X193000000Y-98250000D02*
X193000000Y-95250000D01*
X193000000Y-95250000D02*
X193985977Y-95250000D01*
X193000000Y-91750000D02*
X194000000Y-90750000D01*
X193000000Y-95250000D02*
X193000000Y-91750000D01*
X193000000Y-111250000D02*
X193000000Y-105750000D01*
X193000000Y-100500000D02*
X193000000Y-98250000D01*
X193000000Y-105750000D02*
X193000000Y-100500000D01*
D41*
X194021570Y-95214407D02*
X194000000Y-95192837D01*
X193000000Y-89500000D02*
X193000000Y-91750000D01*
D42*
X193000000Y-111250000D02*
X194000000Y-111250000D01*
X193000000Y-100500000D02*
X194500000Y-100500000D01*
X193000000Y-105750000D02*
X194021570Y-105750000D01*
D41*
X200000000Y-87000000D02*
X195500000Y-87000000D01*
D42*
X193000000Y-112120100D02*
X193000000Y-111250000D01*
D41*
X218000000Y-110250000D02*
X216540000Y-108790000D01*
X220000000Y-121224696D02*
X220112348Y-121112348D01*
X217775000Y-125380594D02*
X217775000Y-123449695D01*
X221250000Y-119974695D02*
X221250000Y-118000000D01*
X218994350Y-126599944D02*
X217775000Y-125380594D01*
X218000000Y-112000000D02*
X218000000Y-110250000D01*
X220112348Y-121112348D02*
X221250000Y-119974695D01*
X212600084Y-127899916D02*
X212000000Y-128500000D01*
X217775000Y-123449695D02*
X220112348Y-121112348D01*
X216540000Y-108790000D02*
X216540000Y-99100000D01*
X220000000Y-123350014D02*
X220000000Y-121224696D01*
X220000000Y-126599944D02*
X218994350Y-126599944D01*
X220000000Y-123350014D02*
X220149986Y-123350014D01*
X213992900Y-127899916D02*
X212600084Y-127899916D01*
X230500000Y-113512500D02*
X229000000Y-112012500D01*
X210352500Y-82610000D02*
X210000000Y-82962500D01*
X229000000Y-106200000D02*
X228600000Y-106200000D01*
X200000000Y-103228148D02*
X202750000Y-100478148D01*
X213500000Y-82610000D02*
X210352500Y-82610000D01*
X202525000Y-82925000D02*
X201750000Y-83700000D01*
X201875000Y-98375000D02*
X200000000Y-96500000D01*
X208000000Y-92250000D02*
X201875000Y-98375000D01*
X215250000Y-127000000D02*
X215250000Y-124000000D01*
X220000000Y-124000000D02*
X223962500Y-124000000D01*
X200000000Y-94500000D02*
X200000000Y-96500000D01*
X227000000Y-124037500D02*
X227962500Y-124037500D01*
X202750000Y-100478148D02*
X202750000Y-99250000D01*
X207000000Y-83000000D02*
X206925000Y-82925000D01*
X200000000Y-113300000D02*
X202700000Y-116000000D01*
X207000000Y-83000000D02*
X209962500Y-83000000D01*
X215250000Y-128298452D02*
X215250000Y-127501380D01*
X219250000Y-106250000D02*
X219250000Y-102250000D01*
X202700000Y-116000000D02*
X205500000Y-116000000D01*
X219250000Y-107000000D02*
X219250000Y-106600000D01*
X213992900Y-127249930D02*
X215000070Y-127249930D01*
X227000000Y-117750000D02*
X225511592Y-117750000D01*
X220000000Y-124000000D02*
X218750000Y-124000000D01*
X213992900Y-129199888D02*
X213992900Y-128549902D01*
X220000000Y-124649986D02*
X220000000Y-124000000D01*
X219250000Y-106600000D02*
X219250000Y-106250000D01*
X221054900Y-112925000D02*
X219250000Y-111120100D01*
X229000000Y-106200000D02*
X229000000Y-105500000D01*
X207235000Y-116000000D02*
X210380000Y-119145000D01*
X222388604Y-112925000D02*
X221054900Y-112925000D01*
X219250000Y-106600000D02*
X219800000Y-106600000D01*
X225511592Y-117750000D02*
X222775000Y-115013408D01*
X224250000Y-102250000D02*
X224000000Y-102250000D01*
X213992900Y-127249930D02*
X213992900Y-125949958D01*
X208000000Y-90250000D02*
X208000000Y-92250000D01*
X209962500Y-83000000D02*
X210000000Y-82962500D01*
X218750000Y-124000000D02*
X218500000Y-123750000D01*
X208000000Y-92000000D02*
X208000000Y-90250000D01*
X206925000Y-82925000D02*
X202525000Y-82925000D01*
X207390000Y-82610000D02*
X207000000Y-83000000D01*
X201750000Y-92750000D02*
X200000000Y-94500000D01*
X200000000Y-111000000D02*
X200000000Y-103228148D01*
X205500000Y-116000000D02*
X205500000Y-133000000D01*
X219250000Y-111120100D02*
X219250000Y-107000000D01*
X208000000Y-90250000D02*
X208000000Y-88500000D01*
X213992900Y-128549902D02*
X214998550Y-128549902D01*
X215000070Y-127249930D02*
X215250000Y-127000000D01*
X214998550Y-128549902D02*
X215250000Y-128298452D01*
X227962500Y-124037500D02*
X229500000Y-122500000D01*
X215250000Y-127501380D02*
X215250000Y-127000000D01*
X227000000Y-124037500D02*
X224000000Y-124037500D01*
X205500000Y-116000000D02*
X207235000Y-116000000D01*
X202750000Y-99250000D02*
X201875000Y-98375000D01*
X222775000Y-115013408D02*
X222775000Y-113311396D01*
X222775000Y-113311396D02*
X222388604Y-112925000D01*
X229500000Y-120250000D02*
X227000000Y-117750000D01*
X201750000Y-83700000D02*
X201750000Y-92750000D01*
X229000000Y-112012500D02*
X229000000Y-106200000D01*
X229500000Y-122500000D02*
X229500000Y-120250000D01*
X205500000Y-133000000D02*
X204500000Y-134000000D01*
X215250000Y-124000000D02*
X215500000Y-123750000D01*
X223962500Y-124000000D02*
X224000000Y-124037500D01*
X200000000Y-111000000D02*
X200000000Y-113300000D01*
X215080000Y-83880000D02*
X215200000Y-84000000D01*
X204237500Y-83912500D02*
X203250000Y-84900000D01*
X213500000Y-83880000D02*
X215080000Y-83880000D01*
X203250000Y-84900000D02*
X202500000Y-85650000D01*
X202500000Y-93250000D02*
X203250000Y-94000000D01*
X202500000Y-85650000D02*
X202500000Y-93250000D01*
X213500000Y-83880000D02*
X213467500Y-83912500D01*
X213467500Y-83912500D02*
X204237500Y-83912500D01*
X208525000Y-106525000D02*
X206400000Y-104400000D01*
X203250000Y-104400000D02*
X203250000Y-113500000D01*
X211250000Y-106525000D02*
X208525000Y-106525000D01*
X230962500Y-102750000D02*
X230962500Y-100800000D01*
X206400000Y-104400000D02*
X203250000Y-104400000D01*
X230962500Y-100800000D02*
X230962500Y-100500000D01*
X230962500Y-97887500D02*
X231000000Y-97850000D01*
X230962500Y-100500000D02*
X230962500Y-97887500D01*
X223750000Y-141422500D02*
X224925000Y-142597500D01*
X220763299Y-144597500D02*
X215000000Y-138834201D01*
X224925000Y-142597500D02*
X224925000Y-144075000D01*
X215000000Y-138834201D02*
X215000000Y-136500000D01*
X224925000Y-144075000D02*
X224402500Y-144597500D01*
X224402500Y-144597500D02*
X220763299Y-144597500D01*
X221250000Y-143422500D02*
X222575000Y-142097500D01*
X222575000Y-142097500D02*
X222575000Y-136724832D01*
X222575000Y-136724832D02*
X227000000Y-132299832D01*
X221250000Y-141422500D02*
X221250000Y-135049832D01*
X221250000Y-135049832D02*
X224000000Y-132299832D01*
X225550000Y-116375000D02*
X230387500Y-116375000D01*
X230387500Y-116375000D02*
X230500000Y-116487500D01*
X230000000Y-85150000D02*
X222000000Y-93150000D01*
X222000000Y-93150000D02*
X220003604Y-93150000D01*
X220003604Y-93150000D02*
X219276802Y-93876802D01*
X215000000Y-117349832D02*
X214200084Y-116549916D01*
X219976802Y-93176802D02*
X219276802Y-93876802D01*
X212920000Y-115269832D02*
X212920000Y-112000000D01*
X219276802Y-93876802D02*
X215300000Y-97853604D01*
X215300000Y-97853604D02*
X215300000Y-108700000D01*
X214200084Y-109799916D02*
X214200084Y-116549916D01*
X214200084Y-116549916D02*
X212920000Y-115269832D01*
X231000000Y-85150000D02*
X230000000Y-85150000D01*
X215300000Y-108700000D02*
X214200084Y-109799916D01*
X216800000Y-120599832D02*
X216800000Y-129998382D01*
X215000000Y-118799832D02*
X216800000Y-120599832D01*
X214998550Y-131799832D02*
X213992900Y-131799832D01*
X216800000Y-129998382D02*
X214998550Y-131799832D01*
X217250000Y-130055482D02*
X218994350Y-131799832D01*
X217750000Y-119999832D02*
X217750000Y-120000000D01*
X218994350Y-131799832D02*
X220000000Y-131799832D01*
X217750000Y-120000000D02*
X217250000Y-120500000D01*
X217250000Y-120500000D02*
X217250000Y-130055482D01*
X219000000Y-118749832D02*
X217750000Y-119999832D01*
X219395000Y-94395000D02*
X215750000Y-98040000D01*
X215460000Y-113759832D02*
X215460000Y-112000000D01*
X216825000Y-111075000D02*
X216825000Y-115124832D01*
X219000000Y-117299832D02*
X216850084Y-115149916D01*
X215750000Y-98040000D02*
X215750000Y-110000000D01*
X224865000Y-91555000D02*
X224845000Y-91555000D01*
X224845000Y-91555000D02*
X222800000Y-93600000D01*
X216850084Y-115149916D02*
X215460000Y-113759832D01*
X215750000Y-110000000D02*
X216825000Y-111075000D01*
X230000000Y-86420000D02*
X224865000Y-91555000D01*
X222800000Y-93600000D02*
X220190000Y-93600000D01*
X220190000Y-93600000D02*
X219395000Y-94395000D01*
X231000000Y-86420000D02*
X230000000Y-86420000D01*
X216825000Y-115124832D02*
X216850084Y-115149916D01*
X229725000Y-107750000D02*
X229725000Y-100855000D01*
X231700000Y-114220100D02*
X231700000Y-111950000D01*
X231500000Y-109500000D02*
X231475000Y-109500000D01*
X229725000Y-100855000D02*
X227970000Y-99100000D01*
X231700000Y-111950000D02*
X229725000Y-109975000D01*
X231475000Y-109500000D02*
X229725000Y-107750000D01*
X231120100Y-114800000D02*
X231700000Y-114220100D01*
X226800000Y-114800000D02*
X231120100Y-114800000D01*
X226500000Y-114500000D02*
X226800000Y-114800000D01*
X229725000Y-109975000D02*
X229725000Y-107750000D01*
X224600000Y-114500000D02*
X222100000Y-112000000D01*
X222100000Y-112000000D02*
X221750000Y-112000000D01*
X215000140Y-130499860D02*
X215500000Y-130000000D01*
X213992900Y-130499860D02*
X215000140Y-130499860D01*
X227175000Y-108425000D02*
X221425000Y-108425000D01*
X227200000Y-108400000D02*
X227175000Y-108425000D01*
X220000000Y-128549902D02*
X221700098Y-128549902D01*
X227000000Y-130299832D02*
X222000140Y-125299972D01*
X222000140Y-125299972D02*
X220000000Y-125299972D01*
X210500000Y-134000000D02*
X213000000Y-136500000D01*
X213992900Y-124000000D02*
X212987250Y-124000000D01*
X210500000Y-126487250D02*
X210500000Y-134000000D01*
X212987250Y-124000000D02*
X210500000Y-126487250D01*
X224000000Y-130299832D02*
X224000000Y-128944308D01*
X224000000Y-128944308D02*
X221005650Y-125949958D01*
X221005650Y-125949958D02*
X220000000Y-125949958D01*
X231000000Y-96580000D02*
X229420000Y-96580000D01*
X213500000Y-87690000D02*
X211250000Y-87690000D01*
X211250000Y-87690000D02*
X210810000Y-87690000D01*
X210810000Y-87690000D02*
X210000000Y-88500000D01*
X211250000Y-88500000D02*
X211250000Y-87690000D01*
X210000000Y-94250000D02*
X205250000Y-99000000D01*
X213040000Y-88960000D02*
X210000000Y-92000000D01*
X210000000Y-92000000D02*
X210000000Y-94250000D01*
X213500000Y-88960000D02*
X213040000Y-88960000D01*
X212900000Y-97850000D02*
X210750000Y-100000000D01*
X213500000Y-97850000D02*
X211600000Y-97850000D01*
X213500000Y-97850000D02*
X212900000Y-97850000D01*
X226700000Y-100500000D02*
X226700000Y-101800000D01*
X219750000Y-100500000D02*
X218500000Y-101750000D01*
X218500000Y-101750000D02*
X218500000Y-105750000D01*
X226700000Y-99100000D02*
X226700000Y-100500000D01*
X226700000Y-100500000D02*
X219750000Y-100500000D01*
X226700000Y-101800000D02*
X226250000Y-102250000D01*
X213500000Y-86420000D02*
X214500000Y-86420000D01*
X206250000Y-113780000D02*
X206250000Y-114750000D01*
X214500000Y-86420000D02*
X215575002Y-87495002D01*
X215575002Y-87495002D02*
X215575002Y-96942206D01*
X208000000Y-112030000D02*
X206250000Y-113780000D01*
X209205000Y-110825000D02*
X208000000Y-112030000D01*
X214850000Y-108400000D02*
X212425000Y-110825000D01*
X215575002Y-96942206D02*
X214850000Y-97667208D01*
X212425000Y-110825000D02*
X209205000Y-110825000D01*
X214850000Y-97667208D02*
X214850000Y-108400000D01*
X231000000Y-87690000D02*
X230000000Y-87690000D01*
X230000000Y-87690000D02*
X228025000Y-89665000D01*
X228025000Y-89665000D02*
X228025000Y-90550305D01*
X228025000Y-90550305D02*
X229224695Y-91750000D01*
X229224695Y-91750000D02*
X229250000Y-91750000D01*
X231000000Y-83880000D02*
X221545684Y-83880000D01*
X221545684Y-83880000D02*
X219960439Y-85465245D01*
X213500000Y-90230000D02*
X214080000Y-90230000D01*
X212500000Y-90230000D02*
X211500000Y-91230000D01*
X213500000Y-90230000D02*
X212500000Y-90230000D01*
X214850002Y-91000002D02*
X214850002Y-96250000D01*
X211500000Y-91230000D02*
X211500000Y-92000000D01*
X214080000Y-90230000D02*
X214850002Y-91000002D01*
X219000000Y-85400380D02*
X219325190Y-85075190D01*
X219450190Y-84950190D02*
X221790379Y-82610000D01*
X216500000Y-95500000D02*
X219000000Y-93000000D01*
X219325190Y-85075190D02*
X219450190Y-84950190D01*
X219000000Y-93000000D02*
X219000000Y-85400380D01*
X219145000Y-85255379D02*
X219325190Y-85075190D01*
X221790379Y-82610000D02*
X231000000Y-82610000D01*
X213500000Y-96580000D02*
X211580000Y-96580000D01*
X231000000Y-90230000D02*
X228770000Y-90230000D01*
X228770000Y-90230000D02*
X228750000Y-90250000D01*
X213500000Y-92770000D02*
X212730000Y-92770000D01*
X212730000Y-92770000D02*
X206500000Y-99000000D01*
X207750000Y-98500000D02*
X207750000Y-99000000D01*
X212210000Y-94040000D02*
X207750000Y-98500000D01*
X213500000Y-94040000D02*
X212210000Y-94040000D01*
X211975000Y-107025000D02*
X211250000Y-107750000D01*
X209183714Y-102053814D02*
X211975000Y-104845100D01*
X211975000Y-104845100D02*
X211975000Y-107025000D01*
X209183714Y-97933714D02*
X209183714Y-102053814D01*
X213500000Y-95310000D02*
X211807428Y-95310000D01*
X211250000Y-107750000D02*
X210500000Y-107750000D01*
X211807428Y-95310000D02*
X209183714Y-97933714D01*
X217764500Y-99145500D02*
X217764500Y-108472128D01*
X217810000Y-99100000D02*
X217764500Y-99145500D01*
X204535177Y-99509872D02*
X201250000Y-102795049D01*
X209000000Y-87879900D02*
X209000000Y-93250000D01*
X209000000Y-93250000D02*
X204535177Y-97714823D01*
X204535177Y-97714823D02*
X204535177Y-99509872D01*
X211729900Y-85150000D02*
X209000000Y-87879900D01*
X213500000Y-85150000D02*
X211729900Y-85150000D01*
X201250000Y-113250000D02*
X201250000Y-102795049D01*
G04 #@! TA.AperFunction,Conductor*
G36*
X212656084Y-125318268D02*
G01*
X212712017Y-125360140D01*
X212736434Y-125425604D01*
X212736750Y-125434449D01*
X212736750Y-125525641D01*
X212736751Y-125525648D01*
X212743158Y-125585251D01*
X212744942Y-125592798D01*
X212742649Y-125593339D01*
X212746786Y-125651348D01*
X212744336Y-125659690D01*
X212743158Y-125664675D01*
X212736751Y-125724275D01*
X212736750Y-125724294D01*
X212736750Y-126175628D01*
X212736751Y-126175634D01*
X212743158Y-126235237D01*
X212744942Y-126242784D01*
X212742649Y-126243325D01*
X212746786Y-126301334D01*
X212744336Y-126309676D01*
X212743158Y-126314661D01*
X212736751Y-126374261D01*
X212736750Y-126374280D01*
X212736750Y-126825614D01*
X212736751Y-126825620D01*
X212743158Y-126885223D01*
X212744942Y-126892770D01*
X212742649Y-126893311D01*
X212746786Y-126951320D01*
X212744336Y-126959662D01*
X212743158Y-126964647D01*
X212736751Y-127024247D01*
X212736750Y-127024266D01*
X212736750Y-127475600D01*
X212736751Y-127475606D01*
X212743159Y-127535217D01*
X212744942Y-127542761D01*
X212742855Y-127543253D01*
X212747059Y-127601991D01*
X212745034Y-127608888D01*
X212743651Y-127614740D01*
X212737250Y-127674271D01*
X212737250Y-127722116D01*
X212770353Y-127722116D01*
X212837392Y-127741801D01*
X212869618Y-127771804D01*
X212876884Y-127781509D01*
X212879703Y-127785275D01*
X212879704Y-127785276D01*
X212900241Y-127800650D01*
X212942111Y-127856584D01*
X212947095Y-127926276D01*
X212913609Y-127987599D01*
X212900241Y-127999182D01*
X212879704Y-128014555D01*
X212879703Y-128014556D01*
X212873585Y-128022729D01*
X212869619Y-128028027D01*
X212813687Y-128069897D01*
X212770353Y-128077716D01*
X212737250Y-128077716D01*
X212737250Y-128125560D01*
X212743651Y-128185088D01*
X212745437Y-128192646D01*
X212742959Y-128193231D01*
X212747057Y-128250557D01*
X212744110Y-128260593D01*
X212743158Y-128264619D01*
X212736751Y-128324219D01*
X212736750Y-128324238D01*
X212736750Y-128775572D01*
X212736751Y-128775578D01*
X212743158Y-128835181D01*
X212744942Y-128842728D01*
X212742649Y-128843269D01*
X212746786Y-128901278D01*
X212744336Y-128909620D01*
X212743158Y-128914605D01*
X212736751Y-128974205D01*
X212736750Y-128974224D01*
X212736750Y-129425558D01*
X212736751Y-129425564D01*
X212743158Y-129485167D01*
X212744942Y-129492714D01*
X212742649Y-129493255D01*
X212746786Y-129551264D01*
X212744336Y-129559606D01*
X212743158Y-129564591D01*
X212740234Y-129591794D01*
X212736751Y-129624197D01*
X212736750Y-129624210D01*
X212736750Y-130075544D01*
X212736751Y-130075550D01*
X212743158Y-130135153D01*
X212744942Y-130142700D01*
X212742649Y-130143241D01*
X212746786Y-130201250D01*
X212744336Y-130209592D01*
X212743158Y-130214577D01*
X212736751Y-130274176D01*
X212736751Y-130274183D01*
X212736750Y-130274196D01*
X212736750Y-130725530D01*
X212736751Y-130725536D01*
X212743158Y-130785139D01*
X212744942Y-130792686D01*
X212742649Y-130793227D01*
X212746786Y-130851236D01*
X212744336Y-130859578D01*
X212743158Y-130864563D01*
X212736751Y-130924163D01*
X212736751Y-130924169D01*
X212736750Y-130924182D01*
X212736750Y-131375516D01*
X212736751Y-131375522D01*
X212743158Y-131435125D01*
X212744942Y-131442672D01*
X212742649Y-131443213D01*
X212746786Y-131501222D01*
X212744336Y-131509564D01*
X212743158Y-131514549D01*
X212736751Y-131574149D01*
X212736751Y-131574155D01*
X212736750Y-131574168D01*
X212736750Y-132025502D01*
X212736751Y-132025508D01*
X212743158Y-132085115D01*
X212793452Y-132219960D01*
X212793456Y-132219967D01*
X212879702Y-132335176D01*
X212879705Y-132335179D01*
X212994914Y-132421425D01*
X212994921Y-132421429D01*
X213129767Y-132471723D01*
X213129766Y-132471723D01*
X213136694Y-132472467D01*
X213189377Y-132478132D01*
X214796422Y-132478131D01*
X214856033Y-132471723D01*
X214958763Y-132433406D01*
X214998202Y-132425651D01*
X215002550Y-132425514D01*
X215006429Y-132425393D01*
X215010317Y-132425332D01*
X215037896Y-132425332D01*
X215037900Y-132425332D01*
X215041874Y-132424829D01*
X215053513Y-132423912D01*
X215097177Y-132422541D01*
X215116419Y-132416949D01*
X215135462Y-132413006D01*
X215155342Y-132410496D01*
X215195951Y-132394417D01*
X215206994Y-132390635D01*
X215248940Y-132378450D01*
X215266179Y-132368254D01*
X215283653Y-132359694D01*
X215302277Y-132352320D01*
X215302277Y-132352319D01*
X215302282Y-132352318D01*
X215337633Y-132326632D01*
X215347364Y-132320240D01*
X215384970Y-132298002D01*
X215399139Y-132283831D01*
X215413929Y-132271200D01*
X215430137Y-132259426D01*
X215457988Y-132225758D01*
X215465829Y-132217141D01*
X216908770Y-130774201D01*
X216970091Y-130740718D01*
X217039783Y-130745702D01*
X217084130Y-130774203D01*
X218493547Y-132183620D01*
X218503372Y-132195883D01*
X218503593Y-132195701D01*
X218508561Y-132201706D01*
X218557572Y-132247731D01*
X218560371Y-132250444D01*
X218579872Y-132269946D01*
X218579876Y-132269949D01*
X218579879Y-132269952D01*
X218583052Y-132272413D01*
X218591924Y-132279991D01*
X218623768Y-132309894D01*
X218641326Y-132319546D01*
X218657585Y-132330227D01*
X218673414Y-132342505D01*
X218713505Y-132359853D01*
X218723976Y-132364983D01*
X218746530Y-132377382D01*
X218762252Y-132386026D01*
X218762254Y-132386027D01*
X218762258Y-132386029D01*
X218781666Y-132391012D01*
X218800069Y-132397313D01*
X218818451Y-132405268D01*
X218818452Y-132405268D01*
X218818454Y-132405269D01*
X218861600Y-132412102D01*
X218873022Y-132414468D01*
X218915331Y-132425332D01*
X218935366Y-132425332D01*
X218954765Y-132426859D01*
X218974546Y-132429992D01*
X218986443Y-132428867D01*
X219041451Y-132436135D01*
X219136858Y-132471720D01*
X219136861Y-132471720D01*
X219136867Y-132471723D01*
X219196477Y-132478132D01*
X220803522Y-132478131D01*
X220863133Y-132471723D01*
X220997981Y-132421428D01*
X221113196Y-132335178D01*
X221199446Y-132219963D01*
X221249741Y-132085115D01*
X221256150Y-132025505D01*
X221256149Y-131574160D01*
X221249741Y-131514549D01*
X221249740Y-131514547D01*
X221249740Y-131514544D01*
X221247958Y-131507001D01*
X221250256Y-131506457D01*
X221246105Y-131448495D01*
X221248551Y-131440163D01*
X221249739Y-131435134D01*
X221249738Y-131435134D01*
X221249741Y-131435129D01*
X221256150Y-131375519D01*
X221256149Y-130924174D01*
X221249741Y-130864563D01*
X221249740Y-130864561D01*
X221249740Y-130864558D01*
X221247958Y-130857015D01*
X221250256Y-130856471D01*
X221246105Y-130798509D01*
X221248551Y-130790177D01*
X221249739Y-130785148D01*
X221249738Y-130785148D01*
X221249741Y-130785143D01*
X221256150Y-130725533D01*
X221256149Y-130274188D01*
X221249741Y-130214577D01*
X221249740Y-130214575D01*
X221249740Y-130214572D01*
X221247958Y-130207029D01*
X221250256Y-130206485D01*
X221246105Y-130148523D01*
X221248551Y-130140191D01*
X221249739Y-130135162D01*
X221249738Y-130135162D01*
X221249741Y-130135157D01*
X221256150Y-130075547D01*
X221256149Y-129624202D01*
X221249741Y-129564591D01*
X221249740Y-129564589D01*
X221249740Y-129564586D01*
X221247958Y-129557043D01*
X221250256Y-129556499D01*
X221246105Y-129498537D01*
X221248551Y-129490205D01*
X221249740Y-129485174D01*
X221249740Y-129485173D01*
X221249741Y-129485171D01*
X221251189Y-129471696D01*
X221277923Y-129407149D01*
X221335313Y-129367298D01*
X221405138Y-129364800D01*
X221424909Y-129371669D01*
X221476992Y-129394858D01*
X221662149Y-129434214D01*
X221662150Y-129434214D01*
X221851439Y-129434214D01*
X221851441Y-129434214D01*
X222036598Y-129394858D01*
X222209525Y-129317865D01*
X222362666Y-129206602D01*
X222489328Y-129065930D01*
X222583974Y-128901998D01*
X222641397Y-128725267D01*
X222680833Y-128667595D01*
X222745192Y-128640396D01*
X222814038Y-128652310D01*
X222847008Y-128675907D01*
X223246848Y-129075746D01*
X223280333Y-129137069D01*
X223275349Y-129206760D01*
X223233478Y-129262694D01*
X223224264Y-129268965D01*
X223081347Y-129357117D01*
X223081343Y-129357120D01*
X222957289Y-129481174D01*
X222865187Y-129630495D01*
X222865185Y-129630500D01*
X222837349Y-129714502D01*
X222810001Y-129797035D01*
X222810001Y-129797036D01*
X222810000Y-129797036D01*
X222799500Y-129899815D01*
X222799500Y-130699833D01*
X222799501Y-130699851D01*
X222810000Y-130802628D01*
X222810001Y-130802631D01*
X222865185Y-130969163D01*
X222865187Y-130969168D01*
X222957289Y-131118489D01*
X223050951Y-131212151D01*
X223084436Y-131273474D01*
X223079452Y-131343166D01*
X223050951Y-131387513D01*
X222957289Y-131481174D01*
X222865187Y-131630495D01*
X222865186Y-131630498D01*
X222810001Y-131797035D01*
X222810001Y-131797036D01*
X222810000Y-131797036D01*
X222799500Y-131899815D01*
X222799500Y-132564378D01*
X222779815Y-132631417D01*
X222763181Y-132652059D01*
X220866208Y-134549031D01*
X220853951Y-134558852D01*
X220854134Y-134559073D01*
X220848122Y-134564046D01*
X220802098Y-134613055D01*
X220799391Y-134615848D01*
X220779889Y-134635349D01*
X220779875Y-134635366D01*
X220777407Y-134638547D01*
X220769843Y-134647402D01*
X220739937Y-134679250D01*
X220739936Y-134679252D01*
X220730284Y-134696808D01*
X220719610Y-134713058D01*
X220707329Y-134728893D01*
X220707324Y-134728900D01*
X220689975Y-134768990D01*
X220684838Y-134779476D01*
X220663803Y-134817738D01*
X220658822Y-134837139D01*
X220652521Y-134855542D01*
X220644562Y-134873934D01*
X220644561Y-134873937D01*
X220637728Y-134917075D01*
X220635360Y-134928506D01*
X220624501Y-134970803D01*
X220624500Y-134970814D01*
X220624500Y-134990848D01*
X220622973Y-135010247D01*
X220619840Y-135030026D01*
X220619840Y-135030027D01*
X220623950Y-135073506D01*
X220624500Y-135085175D01*
X220624500Y-140147273D01*
X220604815Y-140214312D01*
X220571623Y-140248848D01*
X220378597Y-140384005D01*
X220211505Y-140551097D01*
X220075965Y-140744669D01*
X220075964Y-140744671D01*
X219976098Y-140958835D01*
X219976094Y-140958844D01*
X219914938Y-141187086D01*
X219914936Y-141187096D01*
X219894341Y-141422499D01*
X219894341Y-141422500D01*
X219914936Y-141657903D01*
X219914938Y-141657913D01*
X219976094Y-141886155D01*
X219976096Y-141886159D01*
X219976097Y-141886163D01*
X220043915Y-142031598D01*
X220075965Y-142100330D01*
X220075967Y-142100334D01*
X220211501Y-142293895D01*
X220211506Y-142293902D01*
X220252422Y-142334818D01*
X220285907Y-142396141D01*
X220280923Y-142465833D01*
X220252423Y-142510179D01*
X220211506Y-142551096D01*
X220075965Y-142744669D01*
X220075964Y-142744671D01*
X220061474Y-142775746D01*
X220015301Y-142828185D01*
X219948107Y-142847337D01*
X219881226Y-142827121D01*
X219861411Y-142811022D01*
X217795060Y-140744671D01*
X215661819Y-138611429D01*
X215628334Y-138550106D01*
X215625500Y-138523748D01*
X215625500Y-137731057D01*
X215645185Y-137664018D01*
X215684401Y-137625520D01*
X215818656Y-137542712D01*
X215942712Y-137418656D01*
X216034814Y-137269334D01*
X216089999Y-137102797D01*
X216100500Y-137000009D01*
X216100499Y-135999992D01*
X216089999Y-135897203D01*
X216034814Y-135730666D01*
X215942712Y-135581344D01*
X215818656Y-135457288D01*
X215669334Y-135365186D01*
X215502797Y-135310001D01*
X215502795Y-135310000D01*
X215400010Y-135299500D01*
X214599998Y-135299500D01*
X214599980Y-135299501D01*
X214497203Y-135310000D01*
X214497200Y-135310001D01*
X214330668Y-135365185D01*
X214330663Y-135365187D01*
X214181342Y-135457289D01*
X214087681Y-135550951D01*
X214026358Y-135584436D01*
X213956666Y-135579452D01*
X213912319Y-135550951D01*
X213818657Y-135457289D01*
X213818656Y-135457288D01*
X213669334Y-135365186D01*
X213502797Y-135310001D01*
X213502795Y-135310000D01*
X213400016Y-135299500D01*
X213400009Y-135299500D01*
X212735453Y-135299500D01*
X212668414Y-135279815D01*
X212647772Y-135263181D01*
X211161819Y-133777228D01*
X211128334Y-133715905D01*
X211125500Y-133689547D01*
X211125500Y-126797701D01*
X211145185Y-126730662D01*
X211161814Y-126710025D01*
X212525071Y-125346767D01*
X212586392Y-125313284D01*
X212656084Y-125318268D01*
G37*
G04 #@! TD.AperFunction*
G04 #@! TA.AperFunction,Conductor*
G36*
X218049927Y-124535334D02*
G01*
X218220197Y-124611144D01*
X218405354Y-124650500D01*
X218405355Y-124650500D01*
X218594647Y-124650500D01*
X218601105Y-124649821D01*
X218601247Y-124651171D01*
X218663724Y-124655933D01*
X218719462Y-124698064D01*
X218743574Y-124763642D01*
X218743850Y-124771911D01*
X218743850Y-124875655D01*
X218743851Y-124875662D01*
X218750258Y-124935265D01*
X218752042Y-124942812D01*
X218749749Y-124943353D01*
X218753886Y-125001362D01*
X218751436Y-125009704D01*
X218750258Y-125014689D01*
X218743851Y-125074289D01*
X218743850Y-125074308D01*
X218743850Y-125525642D01*
X218743851Y-125525648D01*
X218750258Y-125585251D01*
X218752042Y-125592798D01*
X218749749Y-125593339D01*
X218753886Y-125651348D01*
X218751436Y-125659690D01*
X218750258Y-125664675D01*
X218743851Y-125724275D01*
X218743850Y-125724294D01*
X218743850Y-126175628D01*
X218743851Y-126175634D01*
X218750259Y-126235245D01*
X218752042Y-126242789D01*
X218749955Y-126243281D01*
X218754159Y-126302019D01*
X218752134Y-126308916D01*
X218750751Y-126314768D01*
X218744350Y-126374299D01*
X218744350Y-126422144D01*
X218777453Y-126422144D01*
X218844492Y-126441829D01*
X218876718Y-126471832D01*
X218883984Y-126481537D01*
X218886803Y-126485303D01*
X218886804Y-126485304D01*
X218907341Y-126500678D01*
X218949211Y-126556612D01*
X218954195Y-126626304D01*
X218920709Y-126687627D01*
X218907341Y-126699210D01*
X218886804Y-126714583D01*
X218886803Y-126714584D01*
X218880685Y-126722757D01*
X218876719Y-126728055D01*
X218820787Y-126769925D01*
X218777453Y-126777744D01*
X218744350Y-126777744D01*
X218744350Y-126825588D01*
X218750751Y-126885116D01*
X218752537Y-126892674D01*
X218750059Y-126893259D01*
X218754157Y-126950585D01*
X218751210Y-126960621D01*
X218750258Y-126964647D01*
X218743851Y-127024247D01*
X218743850Y-127024266D01*
X218743850Y-127475600D01*
X218743851Y-127475606D01*
X218750258Y-127535209D01*
X218752042Y-127542756D01*
X218749749Y-127543297D01*
X218753886Y-127601306D01*
X218751436Y-127609648D01*
X218750258Y-127614633D01*
X218743851Y-127674233D01*
X218743850Y-127674252D01*
X218743850Y-128125586D01*
X218743851Y-128125592D01*
X218750258Y-128185195D01*
X218752042Y-128192742D01*
X218749749Y-128193283D01*
X218753886Y-128251292D01*
X218751436Y-128259634D01*
X218750258Y-128264619D01*
X218743851Y-128324219D01*
X218743850Y-128324238D01*
X218743850Y-128775572D01*
X218743851Y-128775578D01*
X218750258Y-128835181D01*
X218752042Y-128842728D01*
X218749749Y-128843269D01*
X218753886Y-128901278D01*
X218751436Y-128909620D01*
X218750258Y-128914605D01*
X218743851Y-128974205D01*
X218743850Y-128974224D01*
X218743850Y-129425558D01*
X218743851Y-129425564D01*
X218750258Y-129485167D01*
X218752042Y-129492714D01*
X218749749Y-129493255D01*
X218753886Y-129551264D01*
X218751436Y-129559606D01*
X218750258Y-129564591D01*
X218747334Y-129591794D01*
X218743851Y-129624197D01*
X218743850Y-129624210D01*
X218743850Y-130075544D01*
X218743851Y-130075550D01*
X218750258Y-130135153D01*
X218752042Y-130142700D01*
X218749749Y-130143241D01*
X218753886Y-130201250D01*
X218751436Y-130209592D01*
X218750258Y-130214577D01*
X218743851Y-130274176D01*
X218743851Y-130274183D01*
X218743850Y-130274195D01*
X218743850Y-130365379D01*
X218724165Y-130432418D01*
X218671361Y-130478173D01*
X218602203Y-130488117D01*
X218538647Y-130459092D01*
X218532169Y-130453060D01*
X217911819Y-129832710D01*
X217878334Y-129771387D01*
X217875500Y-129745029D01*
X217875500Y-124648616D01*
X217895185Y-124581577D01*
X217947989Y-124535822D01*
X218017147Y-124525878D01*
X218049927Y-124535334D01*
G37*
G04 #@! TD.AperFunction*
G04 #@! TA.AperFunction,Conductor*
G36*
X219478434Y-112245686D02*
G01*
X219517303Y-112271994D01*
X220551738Y-113306429D01*
X220585223Y-113367752D01*
X220581764Y-113433112D01*
X220560494Y-113497303D01*
X220550000Y-113600013D01*
X220550000Y-113750000D01*
X221876000Y-113750000D01*
X221943039Y-113769685D01*
X221988794Y-113822489D01*
X222000000Y-113874000D01*
X222000000Y-115099999D01*
X222052271Y-115099999D01*
X222119310Y-115119684D01*
X222165065Y-115172488D01*
X222167564Y-115178354D01*
X222180414Y-115210811D01*
X222184197Y-115221860D01*
X222195911Y-115262180D01*
X222196382Y-115263798D01*
X222204251Y-115277105D01*
X222206580Y-115281042D01*
X222215138Y-115298511D01*
X222222514Y-115317140D01*
X222248181Y-115352468D01*
X222254593Y-115362229D01*
X222276828Y-115399825D01*
X222276833Y-115399832D01*
X222290990Y-115413988D01*
X222303628Y-115428784D01*
X222315405Y-115444994D01*
X222315406Y-115444995D01*
X222349057Y-115472833D01*
X222357698Y-115480696D01*
X225010786Y-118133784D01*
X225020611Y-118146048D01*
X225020832Y-118145866D01*
X225025802Y-118151874D01*
X225074831Y-118197915D01*
X225077628Y-118200626D01*
X225097122Y-118220120D01*
X225100287Y-118222575D01*
X225109163Y-118230156D01*
X225141010Y-118260062D01*
X225141014Y-118260064D01*
X225158565Y-118269713D01*
X225174823Y-118280392D01*
X225190656Y-118292674D01*
X225207233Y-118299847D01*
X225230747Y-118310022D01*
X225241227Y-118315155D01*
X225279500Y-118336197D01*
X225298904Y-118341179D01*
X225317302Y-118347478D01*
X225335697Y-118355438D01*
X225378846Y-118362271D01*
X225390272Y-118364638D01*
X225432573Y-118375500D01*
X225452608Y-118375500D01*
X225472005Y-118377026D01*
X225491788Y-118380160D01*
X225535267Y-118376050D01*
X225546936Y-118375500D01*
X226689548Y-118375500D01*
X226756587Y-118395185D01*
X226777229Y-118411819D01*
X228838181Y-120472771D01*
X228871666Y-120534094D01*
X228874500Y-120560452D01*
X228874500Y-122189546D01*
X228854815Y-122256585D01*
X228838181Y-122277227D01*
X228362234Y-122753174D01*
X228300911Y-122786659D01*
X228231219Y-122781675D01*
X228175286Y-122739803D01*
X228150869Y-122674339D01*
X228159646Y-122626825D01*
X228157086Y-122625977D01*
X228214505Y-122452697D01*
X228214506Y-122452690D01*
X228224999Y-122349986D01*
X228225000Y-122349973D01*
X228225000Y-122212500D01*
X225775001Y-122212500D01*
X225775001Y-122349986D01*
X225785494Y-122452697D01*
X225840641Y-122619119D01*
X225840643Y-122619124D01*
X225932684Y-122768345D01*
X226056655Y-122892316D01*
X226056659Y-122892319D01*
X226059656Y-122894168D01*
X226061279Y-122895972D01*
X226062323Y-122896798D01*
X226062181Y-122896976D01*
X226106381Y-122946116D01*
X226117602Y-123015079D01*
X226089759Y-123079161D01*
X226059661Y-123105241D01*
X226056349Y-123107283D01*
X226056343Y-123107288D01*
X225932289Y-123231342D01*
X225911690Y-123264739D01*
X225876557Y-123321700D01*
X225857191Y-123353097D01*
X225805243Y-123399821D01*
X225751652Y-123412000D01*
X225248348Y-123412000D01*
X225181309Y-123392315D01*
X225142809Y-123353097D01*
X225138220Y-123345657D01*
X225067712Y-123231344D01*
X224943656Y-123107288D01*
X224940342Y-123105243D01*
X224938546Y-123103248D01*
X224937989Y-123102807D01*
X224938064Y-123102711D01*
X224893618Y-123053297D01*
X224882397Y-122984334D01*
X224910240Y-122920252D01*
X224940348Y-122894165D01*
X224943342Y-122892318D01*
X225067315Y-122768345D01*
X225159356Y-122619124D01*
X225159358Y-122619119D01*
X225214505Y-122452697D01*
X225214506Y-122452690D01*
X225224999Y-122349986D01*
X225225000Y-122349973D01*
X225225000Y-122212500D01*
X222775001Y-122212500D01*
X222775001Y-122349986D01*
X222785494Y-122452697D01*
X222840641Y-122619119D01*
X222840643Y-122619124D01*
X222932684Y-122768345D01*
X223056655Y-122892316D01*
X223056659Y-122892319D01*
X223059656Y-122894168D01*
X223061279Y-122895972D01*
X223062323Y-122896798D01*
X223062181Y-122896976D01*
X223106381Y-122946116D01*
X223117602Y-123015079D01*
X223089759Y-123079161D01*
X223059661Y-123105241D01*
X223056349Y-123107283D01*
X223056343Y-123107288D01*
X222932289Y-123231342D01*
X222915122Y-123259174D01*
X222883469Y-123310494D01*
X222880321Y-123315597D01*
X222828373Y-123362321D01*
X222774782Y-123374500D01*
X221379650Y-123374500D01*
X221312611Y-123354815D01*
X221266856Y-123302011D01*
X221255650Y-123250500D01*
X221255650Y-123124386D01*
X221255649Y-123124369D01*
X221249248Y-123064841D01*
X221249246Y-123064834D01*
X221199004Y-122930127D01*
X221199000Y-122930120D01*
X221112840Y-122815026D01*
X221112837Y-122815023D01*
X220997743Y-122728863D01*
X220997736Y-122728859D01*
X220863029Y-122678617D01*
X220863022Y-122678615D01*
X220803494Y-122672214D01*
X220177800Y-122672214D01*
X220177800Y-123197700D01*
X220158115Y-123264739D01*
X220105311Y-123310494D01*
X220053800Y-123321700D01*
X219946200Y-123321700D01*
X219879161Y-123302015D01*
X219833406Y-123249211D01*
X219822200Y-123197700D01*
X219822200Y-122672214D01*
X219196505Y-122672214D01*
X219136977Y-122678615D01*
X219136970Y-122678617D01*
X219002263Y-122728859D01*
X219002256Y-122728863D01*
X218887162Y-122815023D01*
X218887160Y-122815025D01*
X218872244Y-122834950D01*
X218816309Y-122876819D01*
X218747199Y-122881925D01*
X218594646Y-122849500D01*
X218405354Y-122849500D01*
X218388747Y-122853030D01*
X218220197Y-122888855D01*
X218220192Y-122888857D01*
X218049936Y-122964662D01*
X217980686Y-122973947D01*
X217917410Y-122944319D01*
X217880196Y-122885185D01*
X217875500Y-122851383D01*
X217875500Y-121712500D01*
X222775000Y-121712500D01*
X223750000Y-121712500D01*
X223750000Y-120875000D01*
X224250000Y-120875000D01*
X224250000Y-121712500D01*
X225224999Y-121712500D01*
X225775000Y-121712500D01*
X226750000Y-121712500D01*
X226750000Y-120875000D01*
X227250000Y-120875000D01*
X227250000Y-121712500D01*
X228224999Y-121712500D01*
X228224999Y-121575028D01*
X228224998Y-121575013D01*
X228214505Y-121472302D01*
X228159358Y-121305880D01*
X228159356Y-121305875D01*
X228067315Y-121156654D01*
X227943345Y-121032684D01*
X227794124Y-120940643D01*
X227794119Y-120940641D01*
X227627697Y-120885494D01*
X227627690Y-120885493D01*
X227524986Y-120875000D01*
X227250000Y-120875000D01*
X226750000Y-120875000D01*
X226475029Y-120875000D01*
X226475012Y-120875001D01*
X226372302Y-120885494D01*
X226205880Y-120940641D01*
X226205875Y-120940643D01*
X226056654Y-121032684D01*
X225932684Y-121156654D01*
X225840643Y-121305875D01*
X225840641Y-121305880D01*
X225785494Y-121472302D01*
X225785493Y-121472309D01*
X225775000Y-121575013D01*
X225775000Y-121712500D01*
X225224999Y-121712500D01*
X225224999Y-121575028D01*
X225224998Y-121575013D01*
X225214505Y-121472302D01*
X225159358Y-121305880D01*
X225159356Y-121305875D01*
X225067315Y-121156654D01*
X224943345Y-121032684D01*
X224794124Y-120940643D01*
X224794119Y-120940641D01*
X224627697Y-120885494D01*
X224627690Y-120885493D01*
X224524986Y-120875000D01*
X224250000Y-120875000D01*
X223750000Y-120875000D01*
X223475029Y-120875000D01*
X223475012Y-120875001D01*
X223372302Y-120885494D01*
X223205880Y-120940641D01*
X223205875Y-120940643D01*
X223056654Y-121032684D01*
X222932684Y-121156654D01*
X222840643Y-121305875D01*
X222840641Y-121305880D01*
X222785494Y-121472302D01*
X222785493Y-121472309D01*
X222775000Y-121575013D01*
X222775000Y-121712500D01*
X217875500Y-121712500D01*
X217875500Y-120810451D01*
X217895185Y-120743412D01*
X217911815Y-120722774D01*
X218133786Y-120500802D01*
X218146048Y-120490980D01*
X218145865Y-120490759D01*
X218151868Y-120485791D01*
X218151877Y-120485786D01*
X218197933Y-120436740D01*
X218200581Y-120434007D01*
X218220120Y-120414470D01*
X218220123Y-120414465D01*
X218221551Y-120413038D01*
X218224128Y-120410292D01*
X218842625Y-119791798D01*
X218903948Y-119758313D01*
X218930306Y-119755479D01*
X219750000Y-119755479D01*
X219821961Y-119750332D01*
X219821963Y-119750331D01*
X219821965Y-119750331D01*
X219960050Y-119709786D01*
X219960050Y-119709785D01*
X219960053Y-119709785D01*
X220081128Y-119631975D01*
X220175377Y-119523205D01*
X220235165Y-119392289D01*
X220255647Y-119249832D01*
X220255647Y-118249832D01*
X220251639Y-118186291D01*
X220238807Y-118139712D01*
X220235617Y-118089142D01*
X220255647Y-117949832D01*
X220255647Y-116799832D01*
X220250500Y-116727871D01*
X220226221Y-116645185D01*
X220209954Y-116589781D01*
X220207651Y-116586197D01*
X220132143Y-116468704D01*
X220023373Y-116374455D01*
X220001941Y-116364667D01*
X219892456Y-116314666D01*
X219785812Y-116299334D01*
X219750000Y-116294185D01*
X219749998Y-116294185D01*
X218930306Y-116294185D01*
X218863267Y-116274500D01*
X218842625Y-116257866D01*
X217486819Y-114902060D01*
X217453334Y-114840737D01*
X217450500Y-114814379D01*
X217450500Y-114250000D01*
X220550001Y-114250000D01*
X220550001Y-114399986D01*
X220560494Y-114502697D01*
X220615641Y-114669119D01*
X220615643Y-114669124D01*
X220707684Y-114818345D01*
X220831654Y-114942315D01*
X220980875Y-115034356D01*
X220980880Y-115034358D01*
X221147302Y-115089505D01*
X221147309Y-115089506D01*
X221250019Y-115099999D01*
X221499999Y-115099999D01*
X221500000Y-115099998D01*
X221500000Y-114250000D01*
X220550001Y-114250000D01*
X217450500Y-114250000D01*
X217450500Y-113411984D01*
X217470185Y-113344945D01*
X217522989Y-113299190D01*
X217592147Y-113289246D01*
X217606593Y-113292209D01*
X217750000Y-113330634D01*
X217750000Y-112435501D01*
X217857685Y-112484680D01*
X217964237Y-112500000D01*
X218035763Y-112500000D01*
X218142315Y-112484680D01*
X218250000Y-112435501D01*
X218250000Y-113330633D01*
X218463483Y-113273433D01*
X218463492Y-113273429D01*
X218677578Y-113173600D01*
X218871082Y-113038105D01*
X219038105Y-112871082D01*
X219173600Y-112677578D01*
X219273429Y-112463492D01*
X219273433Y-112463483D01*
X219309847Y-112327582D01*
X219346211Y-112267922D01*
X219409058Y-112237392D01*
X219478434Y-112245686D01*
G37*
G04 #@! TD.AperFunction*
G04 #@! TA.AperFunction,Conductor*
G36*
X201055211Y-87124853D02*
G01*
X201106687Y-87172097D01*
X201124500Y-87236130D01*
X201124500Y-92439546D01*
X201104815Y-92506585D01*
X201088181Y-92527227D01*
X200161681Y-93453727D01*
X200100358Y-93487212D01*
X200030666Y-93482228D01*
X199974733Y-93440356D01*
X199950316Y-93374892D01*
X199950000Y-93366046D01*
X199950000Y-92902172D01*
X199949999Y-92902155D01*
X199943598Y-92842627D01*
X199943596Y-92842620D01*
X199893354Y-92707913D01*
X199893350Y-92707906D01*
X199807190Y-92592812D01*
X199807187Y-92592809D01*
X199692093Y-92506649D01*
X199692086Y-92506645D01*
X199557379Y-92456403D01*
X199557372Y-92456401D01*
X199497844Y-92450000D01*
X199000000Y-92450000D01*
X199000000Y-95550000D01*
X199250500Y-95550000D01*
X199317539Y-95569685D01*
X199363294Y-95622489D01*
X199374500Y-95674000D01*
X199374500Y-95801312D01*
X199354815Y-95868351D01*
X199342650Y-95884284D01*
X199267466Y-95967784D01*
X199172821Y-96131715D01*
X199172818Y-96131722D01*
X199114327Y-96311740D01*
X199114326Y-96311744D01*
X199094540Y-96500000D01*
X199114326Y-96688256D01*
X199114327Y-96688259D01*
X199172818Y-96868277D01*
X199172821Y-96868284D01*
X199267467Y-97032216D01*
X199362250Y-97137483D01*
X199394129Y-97172888D01*
X199547265Y-97284148D01*
X199547270Y-97284151D01*
X199720192Y-97361142D01*
X199720197Y-97361144D01*
X199905354Y-97400500D01*
X199964548Y-97400500D01*
X200031587Y-97420185D01*
X200052228Y-97436818D01*
X200718439Y-98103030D01*
X201382606Y-98767197D01*
X201397480Y-98785175D01*
X201402076Y-98791938D01*
X201402077Y-98791939D01*
X201402078Y-98791940D01*
X201443676Y-98828613D01*
X201449358Y-98833949D01*
X201463626Y-98848218D01*
X201463655Y-98848245D01*
X202088181Y-99472771D01*
X202121666Y-99534094D01*
X202124500Y-99560452D01*
X202124500Y-100167694D01*
X202104815Y-100234733D01*
X202088181Y-100255375D01*
X199616208Y-102727347D01*
X199603951Y-102737168D01*
X199604134Y-102737389D01*
X199598122Y-102742362D01*
X199552098Y-102791371D01*
X199549391Y-102794164D01*
X199529877Y-102813679D01*
X199468555Y-102847166D01*
X199442194Y-102850000D01*
X199000000Y-102850000D01*
X199000000Y-105950000D01*
X199250500Y-105950000D01*
X199317539Y-105969685D01*
X199363294Y-106022489D01*
X199374500Y-106074000D01*
X199374500Y-110301312D01*
X199354815Y-110368351D01*
X199342650Y-110384284D01*
X199267466Y-110467784D01*
X199172821Y-110631715D01*
X199172818Y-110631722D01*
X199116283Y-110805721D01*
X199114326Y-110811744D01*
X199094540Y-111000000D01*
X199114326Y-111188256D01*
X199114327Y-111188259D01*
X199172818Y-111368277D01*
X199172821Y-111368284D01*
X199267467Y-111532216D01*
X199310772Y-111580310D01*
X199342650Y-111615715D01*
X199372880Y-111678706D01*
X199374500Y-111698687D01*
X199374500Y-111826000D01*
X199354815Y-111893039D01*
X199302011Y-111938794D01*
X199250500Y-111950000D01*
X199000000Y-111950000D01*
X199000000Y-115050000D01*
X199497828Y-115050000D01*
X199497844Y-115049999D01*
X199557372Y-115043598D01*
X199557379Y-115043596D01*
X199692086Y-114993354D01*
X199692093Y-114993350D01*
X199807187Y-114907190D01*
X199807190Y-114907187D01*
X199893350Y-114792093D01*
X199893354Y-114792086D01*
X199943596Y-114657379D01*
X199943598Y-114657372D01*
X199949999Y-114597844D01*
X199950000Y-114597827D01*
X199950000Y-114433952D01*
X199969685Y-114366913D01*
X200022489Y-114321158D01*
X200091647Y-114311214D01*
X200155203Y-114340239D01*
X200161681Y-114346271D01*
X202199194Y-116383784D01*
X202209019Y-116396048D01*
X202209240Y-116395866D01*
X202214210Y-116401874D01*
X202263239Y-116447915D01*
X202266036Y-116450626D01*
X202285530Y-116470120D01*
X202288695Y-116472575D01*
X202297571Y-116480156D01*
X202329418Y-116510062D01*
X202346973Y-116519713D01*
X202363231Y-116530392D01*
X202379064Y-116542674D01*
X202414410Y-116557968D01*
X202419155Y-116560022D01*
X202429635Y-116565155D01*
X202467908Y-116586197D01*
X202487312Y-116591179D01*
X202505710Y-116597478D01*
X202524105Y-116605438D01*
X202567254Y-116612271D01*
X202578680Y-116614638D01*
X202620981Y-116625500D01*
X202641016Y-116625500D01*
X202660413Y-116627026D01*
X202680196Y-116630160D01*
X202723675Y-116626050D01*
X202735344Y-116625500D01*
X204750500Y-116625500D01*
X204817539Y-116645185D01*
X204863294Y-116697989D01*
X204874500Y-116749500D01*
X204874500Y-122471483D01*
X204854815Y-122538522D01*
X204802011Y-122584277D01*
X204732853Y-122594221D01*
X204700064Y-122584762D01*
X204534809Y-122511184D01*
X204497564Y-122485586D01*
X195761978Y-113750000D01*
X197550000Y-113750000D01*
X197550000Y-114597844D01*
X197556401Y-114657372D01*
X197556403Y-114657379D01*
X197606645Y-114792086D01*
X197606649Y-114792093D01*
X197692809Y-114907187D01*
X197692812Y-114907190D01*
X197807906Y-114993350D01*
X197807913Y-114993354D01*
X197942620Y-115043596D01*
X197942627Y-115043598D01*
X198002155Y-115049999D01*
X198002172Y-115050000D01*
X198500000Y-115050000D01*
X198500000Y-113750000D01*
X197550000Y-113750000D01*
X195761978Y-113750000D01*
X195261978Y-113250000D01*
X197550000Y-113250000D01*
X198500000Y-113250000D01*
X198500000Y-111950000D01*
X198002155Y-111950000D01*
X197942627Y-111956401D01*
X197942620Y-111956403D01*
X197807913Y-112006645D01*
X197807906Y-112006649D01*
X197692812Y-112092809D01*
X197692809Y-112092812D01*
X197606649Y-112207906D01*
X197606645Y-112207913D01*
X197556403Y-112342620D01*
X197556401Y-112342627D01*
X197550000Y-112402155D01*
X197550000Y-113250000D01*
X195261978Y-113250000D01*
X194298967Y-112286989D01*
X194265482Y-112225666D01*
X194270466Y-112155974D01*
X194312338Y-112100041D01*
X194336212Y-112086029D01*
X194391012Y-112061630D01*
X194452730Y-112034151D01*
X194605871Y-111922888D01*
X194732533Y-111782216D01*
X194827179Y-111618284D01*
X194885674Y-111438256D01*
X194905460Y-111250000D01*
X194885674Y-111061744D01*
X194827179Y-110881716D01*
X194732533Y-110717784D01*
X194605871Y-110577112D01*
X194605870Y-110577111D01*
X194452734Y-110465851D01*
X194452729Y-110465848D01*
X194279807Y-110388857D01*
X194279802Y-110388855D01*
X194134001Y-110357865D01*
X194094646Y-110349500D01*
X193924500Y-110349500D01*
X193857461Y-110329815D01*
X193811706Y-110277011D01*
X193800500Y-110225500D01*
X193800500Y-106774500D01*
X193820185Y-106707461D01*
X193872989Y-106661706D01*
X193924500Y-106650500D01*
X194116214Y-106650500D01*
X194116216Y-106650500D01*
X194301373Y-106611144D01*
X194474300Y-106534151D01*
X194627441Y-106422888D01*
X194754103Y-106282216D01*
X194848749Y-106118284D01*
X194907244Y-105938256D01*
X194927030Y-105750000D01*
X194907244Y-105561744D01*
X194848749Y-105381716D01*
X194754103Y-105217784D01*
X194627441Y-105077112D01*
X194627440Y-105077111D01*
X194474304Y-104965851D01*
X194474299Y-104965848D01*
X194301377Y-104888857D01*
X194301372Y-104888855D01*
X194155571Y-104857865D01*
X194116216Y-104849500D01*
X193926924Y-104849500D01*
X193924500Y-104849500D01*
X193857461Y-104829815D01*
X193811706Y-104777011D01*
X193800500Y-104725500D01*
X193800500Y-104650000D01*
X197550000Y-104650000D01*
X197550000Y-105497844D01*
X197556401Y-105557372D01*
X197556403Y-105557379D01*
X197606645Y-105692086D01*
X197606649Y-105692093D01*
X197692809Y-105807187D01*
X197692812Y-105807190D01*
X197807906Y-105893350D01*
X197807913Y-105893354D01*
X197942620Y-105943596D01*
X197942627Y-105943598D01*
X198002155Y-105949999D01*
X198002172Y-105950000D01*
X198500000Y-105950000D01*
X198500000Y-104650000D01*
X197550000Y-104650000D01*
X193800500Y-104650000D01*
X193800500Y-104150000D01*
X197550000Y-104150000D01*
X198500000Y-104150000D01*
X198500000Y-102850000D01*
X198002155Y-102850000D01*
X197942627Y-102856401D01*
X197942620Y-102856403D01*
X197807913Y-102906645D01*
X197807906Y-102906649D01*
X197692812Y-102992809D01*
X197692809Y-102992812D01*
X197606649Y-103107906D01*
X197606645Y-103107913D01*
X197556403Y-103242620D01*
X197556401Y-103242627D01*
X197550000Y-103302155D01*
X197550000Y-104150000D01*
X193800500Y-104150000D01*
X193800500Y-101583886D01*
X193820185Y-101516847D01*
X193872989Y-101471092D01*
X193942147Y-101461148D01*
X193989777Y-101478459D01*
X194007363Y-101489348D01*
X194197544Y-101563024D01*
X194398024Y-101600500D01*
X194398026Y-101600500D01*
X194601974Y-101600500D01*
X194601976Y-101600500D01*
X194802456Y-101563024D01*
X194992637Y-101489348D01*
X195081640Y-101434240D01*
X195919311Y-101434240D01*
X196007585Y-101488897D01*
X196197678Y-101562539D01*
X196398072Y-101600000D01*
X196601928Y-101600000D01*
X196802322Y-101562539D01*
X196992412Y-101488899D01*
X196992416Y-101488897D01*
X197080686Y-101434241D01*
X197080686Y-101434240D01*
X196500001Y-100853553D01*
X196500000Y-100853553D01*
X195919311Y-101434240D01*
X195081640Y-101434240D01*
X195166041Y-101381981D01*
X195316764Y-101244579D01*
X195391823Y-101145185D01*
X195403794Y-101129333D01*
X195459903Y-101087696D01*
X195511338Y-101080357D01*
X195562533Y-101083911D01*
X196146446Y-100500000D01*
X196118286Y-100471840D01*
X196196105Y-100471840D01*
X196206454Y-100583521D01*
X196256448Y-100683922D01*
X196339334Y-100759484D01*
X196443920Y-100800000D01*
X196527802Y-100800000D01*
X196610250Y-100784588D01*
X196705610Y-100725543D01*
X196773201Y-100636038D01*
X196803895Y-100528160D01*
X196801286Y-100500000D01*
X196853552Y-100500000D01*
X197437465Y-101083912D01*
X197439247Y-101081553D01*
X197439248Y-101081551D01*
X197530113Y-100899069D01*
X197530116Y-100899063D01*
X197585902Y-100702992D01*
X197585903Y-100702989D01*
X197604713Y-100500000D01*
X197604713Y-100499999D01*
X197585903Y-100297010D01*
X197585902Y-100297007D01*
X197530116Y-100100936D01*
X197530113Y-100100930D01*
X197439249Y-99918449D01*
X197439247Y-99918447D01*
X197437465Y-99916087D01*
X196853552Y-100500000D01*
X196801286Y-100500000D01*
X196793546Y-100416479D01*
X196743552Y-100316078D01*
X196660666Y-100240516D01*
X196556080Y-100200000D01*
X196472198Y-100200000D01*
X196389750Y-100215412D01*
X196294390Y-100274457D01*
X196226799Y-100363962D01*
X196196105Y-100471840D01*
X196118286Y-100471840D01*
X195562532Y-99916086D01*
X195511352Y-99919645D01*
X195443108Y-99904658D01*
X195403797Y-99870671D01*
X195316762Y-99755418D01*
X195166041Y-99618019D01*
X195166039Y-99618017D01*
X195081637Y-99565758D01*
X195919311Y-99565758D01*
X196500000Y-100146446D01*
X196500001Y-100146446D01*
X197080687Y-99565758D01*
X196992413Y-99511101D01*
X196992411Y-99511100D01*
X196802321Y-99437460D01*
X196601928Y-99400000D01*
X196398072Y-99400000D01*
X196197678Y-99437460D01*
X196007588Y-99511100D01*
X196007581Y-99511104D01*
X195919312Y-99565757D01*
X195919311Y-99565758D01*
X195081637Y-99565758D01*
X194992642Y-99510655D01*
X194992635Y-99510651D01*
X194803705Y-99437460D01*
X194802456Y-99436976D01*
X194601976Y-99399500D01*
X194398024Y-99399500D01*
X194197544Y-99436976D01*
X194197541Y-99436976D01*
X194197541Y-99436977D01*
X194007364Y-99510651D01*
X194007354Y-99510656D01*
X193989775Y-99521541D01*
X193922414Y-99540095D01*
X193855715Y-99519286D01*
X193810855Y-99465720D01*
X193800500Y-99416113D01*
X193800500Y-96238907D01*
X193820185Y-96171868D01*
X193872989Y-96126113D01*
X193924500Y-96114907D01*
X194116214Y-96114907D01*
X194116216Y-96114907D01*
X194301373Y-96075551D01*
X194474300Y-95998558D01*
X194627441Y-95887295D01*
X194754103Y-95746623D01*
X194848749Y-95582691D01*
X194907244Y-95402663D01*
X194927030Y-95214407D01*
X194907244Y-95026151D01*
X194848749Y-94846123D01*
X194754103Y-94682191D01*
X194627441Y-94541519D01*
X194627440Y-94541518D01*
X194474304Y-94430258D01*
X194474299Y-94430255D01*
X194301377Y-94353264D01*
X194301372Y-94353262D01*
X194155571Y-94322272D01*
X194116216Y-94313907D01*
X193926924Y-94313907D01*
X193924500Y-94313907D01*
X193857461Y-94294222D01*
X193819142Y-94250000D01*
X197550000Y-94250000D01*
X197550000Y-95097844D01*
X197556401Y-95157372D01*
X197556403Y-95157379D01*
X197606645Y-95292086D01*
X197606649Y-95292093D01*
X197692809Y-95407187D01*
X197692812Y-95407190D01*
X197807906Y-95493350D01*
X197807913Y-95493354D01*
X197942620Y-95543596D01*
X197942627Y-95543598D01*
X198002155Y-95549999D01*
X198002172Y-95550000D01*
X198500000Y-95550000D01*
X198500000Y-94250000D01*
X197550000Y-94250000D01*
X193819142Y-94250000D01*
X193811706Y-94241418D01*
X193800500Y-94189907D01*
X193800500Y-93750000D01*
X197550000Y-93750000D01*
X198500000Y-93750000D01*
X198500000Y-92450000D01*
X198002155Y-92450000D01*
X197942627Y-92456401D01*
X197942620Y-92456403D01*
X197807913Y-92506645D01*
X197807906Y-92506649D01*
X197692812Y-92592809D01*
X197692809Y-92592812D01*
X197606649Y-92707906D01*
X197606645Y-92707913D01*
X197556403Y-92842620D01*
X197556401Y-92842627D01*
X197550000Y-92902155D01*
X197550000Y-93750000D01*
X193800500Y-93750000D01*
X193800500Y-92132939D01*
X193820185Y-92065900D01*
X193836815Y-92045262D01*
X194247566Y-91634510D01*
X194284801Y-91608918D01*
X194452730Y-91534151D01*
X194605871Y-91422888D01*
X194732533Y-91282216D01*
X194827179Y-91118284D01*
X194885674Y-90938256D01*
X194905460Y-90750000D01*
X194885674Y-90561744D01*
X194827179Y-90381716D01*
X194732533Y-90217784D01*
X194605871Y-90077112D01*
X194521631Y-90015908D01*
X194452734Y-89965851D01*
X194452729Y-89965848D01*
X194279807Y-89888857D01*
X194279802Y-89888855D01*
X194103801Y-89851446D01*
X194094646Y-89849500D01*
X193905354Y-89849500D01*
X193844608Y-89862411D01*
X193774943Y-89857095D01*
X193719210Y-89814957D01*
X193695105Y-89749377D01*
X193710282Y-89681176D01*
X193731145Y-89653444D01*
X195722772Y-87661819D01*
X195784095Y-87628334D01*
X195810453Y-87625500D01*
X199296252Y-87625500D01*
X199363291Y-87645185D01*
X199388400Y-87666526D01*
X199394126Y-87672885D01*
X199394130Y-87672889D01*
X199547265Y-87784148D01*
X199547270Y-87784151D01*
X199720192Y-87861142D01*
X199720197Y-87861144D01*
X199905354Y-87900500D01*
X199905355Y-87900500D01*
X200094644Y-87900500D01*
X200094646Y-87900500D01*
X200279803Y-87861144D01*
X200452730Y-87784151D01*
X200605871Y-87672888D01*
X200732533Y-87532216D01*
X200827179Y-87368284D01*
X200882569Y-87197811D01*
X200922006Y-87140136D01*
X200986365Y-87112938D01*
X201055211Y-87124853D01*
G37*
G04 #@! TD.AperFunction*
G04 #@! TA.AperFunction,Conductor*
G36*
X214167539Y-98820184D02*
G01*
X214213294Y-98872988D01*
X214224500Y-98924499D01*
X214224500Y-108089547D01*
X214204815Y-108156586D01*
X214188181Y-108177228D01*
X212202228Y-110163181D01*
X212140905Y-110196666D01*
X212114547Y-110199500D01*
X209287737Y-110199500D01*
X209272120Y-110197776D01*
X209272093Y-110198062D01*
X209264331Y-110197327D01*
X209197144Y-110199439D01*
X209193250Y-110199500D01*
X209165650Y-110199500D01*
X209161962Y-110199965D01*
X209161649Y-110200005D01*
X209150031Y-110200918D01*
X209106377Y-110202290D01*
X209106367Y-110202292D01*
X209087134Y-110207879D01*
X209068094Y-110211822D01*
X209048217Y-110214334D01*
X209048210Y-110214335D01*
X209048208Y-110214336D01*
X209048206Y-110214336D01*
X209048205Y-110214337D01*
X209007584Y-110230419D01*
X208996537Y-110234201D01*
X208954611Y-110246382D01*
X208954608Y-110246383D01*
X208937363Y-110256581D01*
X208919901Y-110265135D01*
X208901272Y-110272511D01*
X208901267Y-110272514D01*
X208865926Y-110298189D01*
X208856168Y-110304599D01*
X208818580Y-110326828D01*
X208804408Y-110341000D01*
X208789623Y-110353628D01*
X208773412Y-110365407D01*
X208745571Y-110399059D01*
X208737711Y-110407696D01*
X207529880Y-111615529D01*
X207529876Y-111615533D01*
X205866208Y-113279199D01*
X205853951Y-113289020D01*
X205854134Y-113289241D01*
X205848122Y-113294214D01*
X205802098Y-113343223D01*
X205799391Y-113346016D01*
X205779889Y-113365517D01*
X205779875Y-113365534D01*
X205777407Y-113368715D01*
X205769843Y-113377570D01*
X205739937Y-113409418D01*
X205739936Y-113409420D01*
X205730284Y-113426976D01*
X205719610Y-113443226D01*
X205707329Y-113459061D01*
X205707324Y-113459068D01*
X205689975Y-113499158D01*
X205684838Y-113509644D01*
X205663803Y-113547906D01*
X205658822Y-113567307D01*
X205652521Y-113585710D01*
X205644562Y-113604102D01*
X205644561Y-113604105D01*
X205637728Y-113647243D01*
X205635360Y-113658674D01*
X205624501Y-113700971D01*
X205624500Y-113700982D01*
X205624500Y-113721016D01*
X205622973Y-113740413D01*
X205619840Y-113760196D01*
X205620733Y-113769646D01*
X205623950Y-113803674D01*
X205624500Y-113815343D01*
X205624500Y-114051312D01*
X205604815Y-114118351D01*
X205592650Y-114134284D01*
X205517466Y-114217784D01*
X205422821Y-114381715D01*
X205422818Y-114381722D01*
X205364327Y-114561740D01*
X205364326Y-114561744D01*
X205344540Y-114750000D01*
X205364326Y-114938256D01*
X205364327Y-114938259D01*
X205422818Y-115118277D01*
X205422823Y-115118289D01*
X205463360Y-115188501D01*
X205479833Y-115256401D01*
X205456980Y-115322428D01*
X205402059Y-115365618D01*
X205355973Y-115374500D01*
X203010452Y-115374500D01*
X202943413Y-115354815D01*
X202922771Y-115338181D01*
X202846770Y-115262180D01*
X202813285Y-115200857D01*
X202818269Y-115131165D01*
X202860141Y-115075232D01*
X202925605Y-115050815D01*
X202934451Y-115050499D01*
X203997871Y-115050499D01*
X203997872Y-115050499D01*
X204057483Y-115044091D01*
X204192331Y-114993796D01*
X204307546Y-114907546D01*
X204393796Y-114792331D01*
X204444091Y-114657483D01*
X204450500Y-114597873D01*
X204450499Y-112402128D01*
X204444091Y-112342517D01*
X204441466Y-112335480D01*
X204393797Y-112207671D01*
X204393793Y-112207664D01*
X204307547Y-112092455D01*
X204307544Y-112092452D01*
X204192335Y-112006206D01*
X204192328Y-112006202D01*
X204057482Y-111955908D01*
X204057483Y-111955908D01*
X203997883Y-111949501D01*
X203997881Y-111949500D01*
X203997873Y-111949500D01*
X203997864Y-111949500D01*
X203994548Y-111949322D01*
X203994615Y-111948065D01*
X203932461Y-111929815D01*
X203886706Y-111877011D01*
X203875500Y-111825500D01*
X203875500Y-106074499D01*
X203895185Y-106007460D01*
X203947989Y-105961705D01*
X203994611Y-105951562D01*
X203994576Y-105950900D01*
X203994571Y-105950854D01*
X203994573Y-105950853D01*
X203994564Y-105950676D01*
X203997857Y-105950499D01*
X203997872Y-105950499D01*
X204057483Y-105944091D01*
X204192331Y-105893796D01*
X204307546Y-105807546D01*
X204393796Y-105692331D01*
X204444091Y-105557483D01*
X204450500Y-105497873D01*
X204450500Y-105149500D01*
X204470185Y-105082461D01*
X204522989Y-105036706D01*
X204574500Y-105025500D01*
X206089548Y-105025500D01*
X206156587Y-105045185D01*
X206177228Y-105061818D01*
X207122869Y-106007460D01*
X208024197Y-106908788D01*
X208034022Y-106921051D01*
X208034243Y-106920869D01*
X208039211Y-106926874D01*
X208088222Y-106972899D01*
X208091021Y-106975612D01*
X208110522Y-106995114D01*
X208110526Y-106995117D01*
X208110529Y-106995120D01*
X208113702Y-106997581D01*
X208122574Y-107005159D01*
X208154418Y-107035062D01*
X208171976Y-107044714D01*
X208188233Y-107055393D01*
X208204064Y-107067673D01*
X208233803Y-107080542D01*
X208244152Y-107085021D01*
X208254641Y-107090160D01*
X208278457Y-107103252D01*
X208292908Y-107111197D01*
X208305523Y-107114435D01*
X208312305Y-107116177D01*
X208330719Y-107122481D01*
X208349104Y-107130438D01*
X208392261Y-107137273D01*
X208403656Y-107139632D01*
X208445981Y-107150500D01*
X208466016Y-107150500D01*
X208485413Y-107152026D01*
X208505196Y-107155160D01*
X208548675Y-107151050D01*
X208560344Y-107150500D01*
X209591540Y-107150500D01*
X209658579Y-107170185D01*
X209704334Y-107222989D01*
X209714278Y-107292147D01*
X209698927Y-107336497D01*
X209693479Y-107345936D01*
X209672821Y-107381715D01*
X209672818Y-107381722D01*
X209621888Y-107538471D01*
X209614326Y-107561744D01*
X209594540Y-107750000D01*
X209614326Y-107938256D01*
X209614327Y-107938259D01*
X209672818Y-108118277D01*
X209672821Y-108118284D01*
X209767467Y-108282216D01*
X209884293Y-108411964D01*
X209894129Y-108422888D01*
X210047265Y-108534148D01*
X210047270Y-108534151D01*
X210220192Y-108611142D01*
X210220197Y-108611144D01*
X210405354Y-108650500D01*
X210405355Y-108650500D01*
X210594644Y-108650500D01*
X210594646Y-108650500D01*
X210779803Y-108611144D01*
X210952730Y-108534151D01*
X211105871Y-108422888D01*
X211109907Y-108418405D01*
X211169391Y-108381756D01*
X211198160Y-108377437D01*
X211253211Y-108375707D01*
X211257874Y-108375561D01*
X211261768Y-108375500D01*
X211289346Y-108375500D01*
X211289350Y-108375500D01*
X211293324Y-108374997D01*
X211304963Y-108374080D01*
X211348627Y-108372709D01*
X211367869Y-108367117D01*
X211386912Y-108363174D01*
X211406792Y-108360664D01*
X211447401Y-108344585D01*
X211458444Y-108340803D01*
X211500390Y-108328618D01*
X211517629Y-108318422D01*
X211535103Y-108309862D01*
X211553727Y-108302488D01*
X211553727Y-108302487D01*
X211553732Y-108302486D01*
X211589083Y-108276800D01*
X211598814Y-108270408D01*
X211636420Y-108248170D01*
X211650589Y-108233999D01*
X211665379Y-108221368D01*
X211681587Y-108209594D01*
X211709438Y-108175926D01*
X211717279Y-108167309D01*
X212358787Y-107525802D01*
X212371042Y-107515986D01*
X212370859Y-107515764D01*
X212376868Y-107510791D01*
X212376877Y-107510786D01*
X212422949Y-107461722D01*
X212425566Y-107459023D01*
X212445120Y-107439471D01*
X212447576Y-107436303D01*
X212455156Y-107427427D01*
X212485062Y-107395582D01*
X212494715Y-107378020D01*
X212505389Y-107361770D01*
X212517673Y-107345936D01*
X212535019Y-107305850D01*
X212540157Y-107295362D01*
X212541925Y-107292147D01*
X212561197Y-107257092D01*
X212566177Y-107237691D01*
X212572478Y-107219288D01*
X212580438Y-107200896D01*
X212587272Y-107157741D01*
X212589635Y-107146331D01*
X212600500Y-107104019D01*
X212600500Y-107083983D01*
X212602027Y-107064582D01*
X212605160Y-107044804D01*
X212601050Y-107001324D01*
X212600500Y-106989655D01*
X212600500Y-104927842D01*
X212602224Y-104912222D01*
X212601939Y-104912195D01*
X212602673Y-104904433D01*
X212600561Y-104837212D01*
X212600500Y-104833318D01*
X212600500Y-104805756D01*
X212600500Y-104805750D01*
X212599996Y-104801768D01*
X212599081Y-104790129D01*
X212598669Y-104777011D01*
X212597710Y-104746473D01*
X212592119Y-104727230D01*
X212588173Y-104708178D01*
X212585664Y-104688308D01*
X212569579Y-104647683D01*
X212565804Y-104636655D01*
X212553618Y-104594710D01*
X212547006Y-104583530D01*
X212543419Y-104577464D01*
X212534858Y-104559988D01*
X212528588Y-104544152D01*
X212527486Y-104541368D01*
X212501805Y-104506021D01*
X212495409Y-104496282D01*
X212473171Y-104458680D01*
X212473169Y-104458678D01*
X212473166Y-104458674D01*
X212459005Y-104444513D01*
X212446370Y-104429720D01*
X212434593Y-104413512D01*
X212400945Y-104385676D01*
X212392304Y-104377813D01*
X211308048Y-103293557D01*
X211274563Y-103232234D01*
X211279547Y-103162542D01*
X211321419Y-103106609D01*
X211356725Y-103088170D01*
X211519119Y-103034358D01*
X211519124Y-103034356D01*
X211668345Y-102942315D01*
X211792315Y-102818345D01*
X211884356Y-102669124D01*
X211884358Y-102669119D01*
X211939505Y-102502697D01*
X211939506Y-102502690D01*
X211949999Y-102399986D01*
X211950000Y-102399973D01*
X211950000Y-102250000D01*
X210624000Y-102250000D01*
X210556961Y-102230315D01*
X210511206Y-102177511D01*
X210500000Y-102126000D01*
X210500000Y-101874000D01*
X210519685Y-101806961D01*
X210572489Y-101761206D01*
X210624000Y-101750000D01*
X211949999Y-101750000D01*
X211949999Y-101600028D01*
X211949998Y-101600013D01*
X211939505Y-101497302D01*
X211884358Y-101330880D01*
X211884356Y-101330875D01*
X211792315Y-101181654D01*
X211698695Y-101088034D01*
X211665210Y-101026711D01*
X211670194Y-100957019D01*
X211698691Y-100912676D01*
X211792712Y-100818656D01*
X211884814Y-100669334D01*
X211939999Y-100502797D01*
X211950500Y-100400009D01*
X211950499Y-99735451D01*
X211970183Y-99668413D01*
X211986814Y-99647775D01*
X212797771Y-98836817D01*
X212859094Y-98803333D01*
X212885452Y-98800499D01*
X214100500Y-98800499D01*
X214167539Y-98820184D01*
G37*
G04 #@! TD.AperFunction*
G04 #@! TA.AperFunction,Conductor*
G36*
X216733039Y-98869685D02*
G01*
X216778794Y-98922489D01*
X216790000Y-98974000D01*
X216790000Y-100350000D01*
X217015000Y-100350000D01*
X217082039Y-100369685D01*
X217127794Y-100422489D01*
X217139000Y-100474000D01*
X217139000Y-107773440D01*
X217119315Y-107840479D01*
X217107150Y-107856412D01*
X217031966Y-107939912D01*
X216937321Y-108103843D01*
X216937318Y-108103850D01*
X216879364Y-108282216D01*
X216878826Y-108283872D01*
X216859040Y-108472128D01*
X216878826Y-108660384D01*
X216878827Y-108660387D01*
X216937318Y-108840405D01*
X216937321Y-108840412D01*
X217031967Y-109004344D01*
X217154599Y-109140540D01*
X217158629Y-109145016D01*
X217311765Y-109256276D01*
X217311770Y-109256279D01*
X217484692Y-109333270D01*
X217484697Y-109333272D01*
X217669854Y-109372628D01*
X217669855Y-109372628D01*
X217859144Y-109372628D01*
X217859146Y-109372628D01*
X218044303Y-109333272D01*
X218217230Y-109256279D01*
X218370371Y-109145016D01*
X218408350Y-109102835D01*
X218467837Y-109066187D01*
X218537694Y-109067518D01*
X218595742Y-109106404D01*
X218623552Y-109170501D01*
X218624500Y-109185808D01*
X218624500Y-110608110D01*
X218604815Y-110675149D01*
X218552011Y-110720904D01*
X218482853Y-110730848D01*
X218468407Y-110727885D01*
X218250000Y-110669363D01*
X218250000Y-111564498D01*
X218142315Y-111515320D01*
X218035763Y-111500000D01*
X217964237Y-111500000D01*
X217857685Y-111515320D01*
X217750000Y-111564498D01*
X217750000Y-110669364D01*
X217749999Y-110669364D01*
X217536513Y-110726567D01*
X217536502Y-110726571D01*
X217488797Y-110748817D01*
X217419720Y-110759309D01*
X217355936Y-110730789D01*
X217329660Y-110699554D01*
X217323172Y-110688583D01*
X217323165Y-110688574D01*
X217309006Y-110674415D01*
X217296368Y-110659619D01*
X217284594Y-110643413D01*
X217270453Y-110631715D01*
X217250940Y-110615572D01*
X217242299Y-110607709D01*
X216411819Y-109777228D01*
X216378334Y-109715905D01*
X216375500Y-109689547D01*
X216375500Y-98974000D01*
X216395185Y-98906961D01*
X216447989Y-98861206D01*
X216499500Y-98850000D01*
X216666000Y-98850000D01*
X216733039Y-98869685D01*
G37*
G04 #@! TD.AperFunction*
G04 #@! TA.AperFunction,Conductor*
G36*
X227318834Y-90088269D02*
G01*
X227374767Y-90130141D01*
X227399184Y-90195605D01*
X227399500Y-90204451D01*
X227399500Y-90467560D01*
X227397775Y-90483177D01*
X227398061Y-90483204D01*
X227397326Y-90490970D01*
X227399439Y-90558177D01*
X227399500Y-90562072D01*
X227399500Y-90589662D01*
X227400003Y-90593640D01*
X227400918Y-90605272D01*
X227402290Y-90648929D01*
X227402291Y-90648932D01*
X227407880Y-90668172D01*
X227411824Y-90687216D01*
X227414336Y-90707097D01*
X227430414Y-90747708D01*
X227434197Y-90758757D01*
X227446381Y-90800693D01*
X227456580Y-90817939D01*
X227465138Y-90835408D01*
X227472514Y-90854037D01*
X227498181Y-90889365D01*
X227504593Y-90899126D01*
X227526828Y-90936722D01*
X227526833Y-90936729D01*
X227540990Y-90950885D01*
X227553627Y-90965680D01*
X227565406Y-90981892D01*
X227589867Y-91002128D01*
X227599057Y-91009730D01*
X227607698Y-91017593D01*
X228314010Y-91723906D01*
X228347495Y-91785229D01*
X228349650Y-91798625D01*
X228364326Y-91938257D01*
X228364327Y-91938260D01*
X228422818Y-92118277D01*
X228422821Y-92118284D01*
X228517467Y-92282216D01*
X228623528Y-92400008D01*
X228644129Y-92422888D01*
X228797265Y-92534148D01*
X228797270Y-92534151D01*
X228970192Y-92611142D01*
X228970197Y-92611144D01*
X229155354Y-92650500D01*
X229155355Y-92650500D01*
X229344644Y-92650500D01*
X229344646Y-92650500D01*
X229529803Y-92611144D01*
X229575065Y-92590991D01*
X229644312Y-92581706D01*
X229707589Y-92611334D01*
X229744804Y-92670468D01*
X229749500Y-92704271D01*
X229749500Y-93267870D01*
X229749501Y-93267876D01*
X229755908Y-93327481D01*
X229768659Y-93361669D01*
X229773642Y-93431361D01*
X229768659Y-93448331D01*
X229755908Y-93482518D01*
X229753987Y-93500390D01*
X229749501Y-93542123D01*
X229749500Y-93542135D01*
X229749500Y-94537870D01*
X229749501Y-94537876D01*
X229755908Y-94597481D01*
X229768659Y-94631669D01*
X229773642Y-94701361D01*
X229768659Y-94718331D01*
X229755908Y-94752518D01*
X229749680Y-94810451D01*
X229749501Y-94812123D01*
X229749500Y-94812135D01*
X229749500Y-95576292D01*
X229729815Y-95643331D01*
X229677011Y-95689086D01*
X229607853Y-95699030D01*
X229599723Y-95697583D01*
X229514646Y-95679500D01*
X229325354Y-95679500D01*
X229292897Y-95686398D01*
X229140197Y-95718855D01*
X229140192Y-95718857D01*
X228967270Y-95795848D01*
X228967265Y-95795851D01*
X228814129Y-95907111D01*
X228687466Y-96047785D01*
X228592821Y-96211715D01*
X228592818Y-96211722D01*
X228544126Y-96361582D01*
X228534326Y-96391744D01*
X228514540Y-96580000D01*
X228534326Y-96768256D01*
X228534327Y-96768259D01*
X228592818Y-96948277D01*
X228592821Y-96948284D01*
X228687467Y-97112216D01*
X228800144Y-97237356D01*
X228814129Y-97252888D01*
X228967265Y-97364148D01*
X228967270Y-97364151D01*
X229140192Y-97441142D01*
X229140197Y-97441144D01*
X229325354Y-97480500D01*
X229325355Y-97480500D01*
X229514644Y-97480500D01*
X229514646Y-97480500D01*
X229599720Y-97462417D01*
X229669386Y-97467733D01*
X229725120Y-97509870D01*
X229749225Y-97575450D01*
X229749500Y-97583707D01*
X229749500Y-98347870D01*
X229749501Y-98347876D01*
X229755908Y-98407483D01*
X229806202Y-98542328D01*
X229806206Y-98542335D01*
X229892452Y-98657544D01*
X229892455Y-98657547D01*
X230007664Y-98743793D01*
X230007671Y-98743797D01*
X230052618Y-98760561D01*
X230142517Y-98794091D01*
X230202127Y-98800500D01*
X230212994Y-98800499D01*
X230280032Y-98820179D01*
X230325791Y-98872980D01*
X230337000Y-98924499D01*
X230337000Y-99801312D01*
X230317315Y-99868351D01*
X230305150Y-99884284D01*
X230229966Y-99967784D01*
X230135321Y-100131715D01*
X230132675Y-100137659D01*
X230130355Y-100136626D01*
X230097320Y-100184913D01*
X230032954Y-100212094D01*
X229964111Y-100200162D01*
X229931170Y-100176580D01*
X229490042Y-99735452D01*
X228956818Y-99202227D01*
X228923333Y-99140904D01*
X228920499Y-99114546D01*
X228920499Y-98302129D01*
X228920498Y-98302123D01*
X228916038Y-98260634D01*
X228914091Y-98242517D01*
X228900115Y-98205046D01*
X228863797Y-98107671D01*
X228863793Y-98107664D01*
X228777547Y-97992455D01*
X228777544Y-97992452D01*
X228662335Y-97906206D01*
X228662328Y-97906202D01*
X228527482Y-97855908D01*
X228527483Y-97855908D01*
X228467883Y-97849501D01*
X228467881Y-97849500D01*
X228467873Y-97849500D01*
X228467864Y-97849500D01*
X227472129Y-97849500D01*
X227472123Y-97849501D01*
X227412518Y-97855908D01*
X227378331Y-97868659D01*
X227308639Y-97873642D01*
X227291669Y-97868659D01*
X227274140Y-97862121D01*
X227257483Y-97855909D01*
X227257482Y-97855908D01*
X227197883Y-97849501D01*
X227197881Y-97849500D01*
X227197873Y-97849500D01*
X227197864Y-97849500D01*
X226202129Y-97849500D01*
X226202123Y-97849501D01*
X226142518Y-97855908D01*
X226108331Y-97868659D01*
X226038639Y-97873642D01*
X226021669Y-97868659D01*
X226004140Y-97862121D01*
X225987483Y-97855909D01*
X225987482Y-97855908D01*
X225927883Y-97849501D01*
X225927881Y-97849500D01*
X225927873Y-97849500D01*
X225927864Y-97849500D01*
X224932129Y-97849500D01*
X224932123Y-97849501D01*
X224872518Y-97855908D01*
X224838331Y-97868659D01*
X224768639Y-97873642D01*
X224751669Y-97868659D01*
X224734140Y-97862121D01*
X224717483Y-97855909D01*
X224717482Y-97855908D01*
X224657883Y-97849501D01*
X224657881Y-97849500D01*
X224657873Y-97849500D01*
X224657864Y-97849500D01*
X223662129Y-97849500D01*
X223662123Y-97849501D01*
X223602518Y-97855908D01*
X223568331Y-97868659D01*
X223498639Y-97873642D01*
X223481669Y-97868659D01*
X223464140Y-97862121D01*
X223447483Y-97855909D01*
X223447482Y-97855908D01*
X223387883Y-97849501D01*
X223387881Y-97849500D01*
X223387873Y-97849500D01*
X223387864Y-97849500D01*
X222392129Y-97849500D01*
X222392123Y-97849501D01*
X222332518Y-97855908D01*
X222298331Y-97868659D01*
X222228639Y-97873642D01*
X222211669Y-97868659D01*
X222194140Y-97862121D01*
X222177483Y-97855909D01*
X222177482Y-97855908D01*
X222117883Y-97849501D01*
X222117881Y-97849500D01*
X222117873Y-97849500D01*
X222117864Y-97849500D01*
X221122129Y-97849500D01*
X221122123Y-97849501D01*
X221062518Y-97855908D01*
X221028331Y-97868659D01*
X220958639Y-97873642D01*
X220941669Y-97868659D01*
X220924140Y-97862121D01*
X220907483Y-97855909D01*
X220907482Y-97855908D01*
X220847883Y-97849501D01*
X220847881Y-97849500D01*
X220847873Y-97849500D01*
X220847864Y-97849500D01*
X219852129Y-97849500D01*
X219852123Y-97849501D01*
X219792518Y-97855908D01*
X219758331Y-97868659D01*
X219688639Y-97873642D01*
X219671669Y-97868659D01*
X219654140Y-97862121D01*
X219637483Y-97855909D01*
X219637482Y-97855908D01*
X219577883Y-97849501D01*
X219577881Y-97849500D01*
X219577873Y-97849500D01*
X219577864Y-97849500D01*
X218582129Y-97849500D01*
X218582123Y-97849501D01*
X218522518Y-97855908D01*
X218488331Y-97868659D01*
X218418639Y-97873642D01*
X218401669Y-97868659D01*
X218384140Y-97862121D01*
X218367483Y-97855909D01*
X218367482Y-97855908D01*
X218307883Y-97849501D01*
X218307881Y-97849500D01*
X218307873Y-97849500D01*
X218307864Y-97849500D01*
X217312129Y-97849500D01*
X217312123Y-97849501D01*
X217252520Y-97855908D01*
X217252517Y-97855908D01*
X217252517Y-97855909D01*
X217217620Y-97868925D01*
X217217617Y-97868926D01*
X217147925Y-97873909D01*
X217130952Y-97868925D01*
X217097379Y-97856403D01*
X217089832Y-97854620D01*
X217090489Y-97851835D01*
X217038408Y-97830249D01*
X216998573Y-97772848D01*
X216996095Y-97703022D01*
X217028553Y-97646036D01*
X219865120Y-94809471D01*
X219865120Y-94809470D01*
X219870484Y-94804107D01*
X219870499Y-94804089D01*
X220412771Y-94261819D01*
X220474094Y-94228334D01*
X220500452Y-94225500D01*
X222717257Y-94225500D01*
X222732877Y-94227224D01*
X222732904Y-94226939D01*
X222740660Y-94227671D01*
X222740667Y-94227673D01*
X222807873Y-94225561D01*
X222811768Y-94225500D01*
X222839346Y-94225500D01*
X222839350Y-94225500D01*
X222843324Y-94224997D01*
X222854963Y-94224080D01*
X222898627Y-94222709D01*
X222917869Y-94217117D01*
X222936912Y-94213174D01*
X222956792Y-94210664D01*
X222997401Y-94194585D01*
X223008444Y-94190803D01*
X223050390Y-94178618D01*
X223067629Y-94168422D01*
X223085103Y-94159862D01*
X223103727Y-94152488D01*
X223103727Y-94152487D01*
X223103732Y-94152486D01*
X223139083Y-94126800D01*
X223148814Y-94120408D01*
X223186420Y-94098170D01*
X223200589Y-94083999D01*
X223215379Y-94071368D01*
X223231587Y-94059594D01*
X223259438Y-94025926D01*
X223267279Y-94017309D01*
X225191397Y-92093191D01*
X225215947Y-92074147D01*
X225251420Y-92053170D01*
X225265589Y-92038999D01*
X225280379Y-92026368D01*
X225296587Y-92014594D01*
X225324438Y-91980926D01*
X225332279Y-91972309D01*
X227187820Y-90116768D01*
X227249142Y-90083285D01*
X227318834Y-90088269D01*
G37*
G04 #@! TD.AperFunction*
G04 #@! TA.AperFunction,Conductor*
G36*
X205720001Y-84557685D02*
G01*
X205765756Y-84610489D01*
X205776320Y-84674605D01*
X205775000Y-84687519D01*
X205775000Y-84825000D01*
X208224999Y-84825000D01*
X208224999Y-84687528D01*
X208224998Y-84687518D01*
X208223679Y-84674604D01*
X208236448Y-84605911D01*
X208284327Y-84555026D01*
X208347037Y-84538000D01*
X208651000Y-84538000D01*
X208718039Y-84557685D01*
X208763794Y-84610489D01*
X208775000Y-84662000D01*
X208775000Y-84787500D01*
X210126000Y-84787500D01*
X210193039Y-84807185D01*
X210238794Y-84859989D01*
X210250000Y-84911500D01*
X210250000Y-85163500D01*
X210230315Y-85230539D01*
X210177511Y-85276294D01*
X210126000Y-85287500D01*
X208775001Y-85287500D01*
X208775001Y-85424986D01*
X208785494Y-85527697D01*
X208840641Y-85694119D01*
X208840643Y-85694124D01*
X208932684Y-85843345D01*
X209056654Y-85967315D01*
X209205875Y-86059356D01*
X209205880Y-86059358D01*
X209372302Y-86114505D01*
X209372309Y-86114506D01*
X209475019Y-86124999D01*
X209570944Y-86124999D01*
X209637983Y-86144683D01*
X209683739Y-86197486D01*
X209693683Y-86266645D01*
X209664659Y-86330201D01*
X209658626Y-86336680D01*
X208693964Y-87301343D01*
X208632641Y-87334828D01*
X208567279Y-87331368D01*
X208502798Y-87310001D01*
X208400010Y-87299500D01*
X207599998Y-87299500D01*
X207599980Y-87299501D01*
X207497203Y-87310000D01*
X207497200Y-87310001D01*
X207330668Y-87365185D01*
X207330663Y-87365187D01*
X207181342Y-87457289D01*
X207057289Y-87581342D01*
X206965187Y-87730663D01*
X206965186Y-87730666D01*
X206910001Y-87897203D01*
X206910001Y-87897204D01*
X206910000Y-87897204D01*
X206899500Y-87999983D01*
X206899500Y-89000001D01*
X206899501Y-89000019D01*
X206910000Y-89102796D01*
X206910001Y-89102799D01*
X206948559Y-89219158D01*
X206965186Y-89269334D01*
X207057288Y-89418656D01*
X207181344Y-89542712D01*
X207315597Y-89625519D01*
X207362321Y-89677465D01*
X207374500Y-89731057D01*
X207374500Y-90768942D01*
X207354815Y-90835981D01*
X207315598Y-90874479D01*
X207260712Y-90908334D01*
X207181342Y-90957289D01*
X207057289Y-91081342D01*
X206965187Y-91230663D01*
X206965185Y-91230668D01*
X206942315Y-91299685D01*
X206910001Y-91397203D01*
X206910001Y-91397204D01*
X206910000Y-91397204D01*
X206899500Y-91499983D01*
X206899500Y-92414546D01*
X206879815Y-92481585D01*
X206863181Y-92502227D01*
X204662180Y-94703228D01*
X204600857Y-94736713D01*
X204531165Y-94731729D01*
X204475232Y-94689857D01*
X204450815Y-94624393D01*
X204450499Y-94615547D01*
X204450499Y-92902129D01*
X204450498Y-92902123D01*
X204444091Y-92842516D01*
X204393797Y-92707671D01*
X204393793Y-92707664D01*
X204307547Y-92592455D01*
X204307544Y-92592452D01*
X204192335Y-92506206D01*
X204192328Y-92506202D01*
X204057482Y-92455908D01*
X204057483Y-92455908D01*
X203997883Y-92449501D01*
X203997881Y-92449500D01*
X203997873Y-92449500D01*
X203997865Y-92449500D01*
X203249500Y-92449500D01*
X203182461Y-92429815D01*
X203136706Y-92377011D01*
X203125500Y-92325500D01*
X203125500Y-86574499D01*
X203145185Y-86507460D01*
X203197989Y-86461705D01*
X203249500Y-86450499D01*
X203997871Y-86450499D01*
X203997872Y-86450499D01*
X204057483Y-86444091D01*
X204192331Y-86393796D01*
X204307546Y-86307546D01*
X204393796Y-86192331D01*
X204444091Y-86057483D01*
X204450500Y-85997873D01*
X204450499Y-85325000D01*
X205775001Y-85325000D01*
X205775001Y-85462486D01*
X205785494Y-85565197D01*
X205840641Y-85731619D01*
X205840643Y-85731624D01*
X205932684Y-85880845D01*
X206056654Y-86004815D01*
X206205875Y-86096856D01*
X206205880Y-86096858D01*
X206372302Y-86152005D01*
X206372309Y-86152006D01*
X206475019Y-86162499D01*
X206749999Y-86162499D01*
X206750000Y-86162498D01*
X206750000Y-85325000D01*
X207250000Y-85325000D01*
X207250000Y-86162499D01*
X207524972Y-86162499D01*
X207524986Y-86162498D01*
X207627697Y-86152005D01*
X207794119Y-86096858D01*
X207794124Y-86096856D01*
X207943345Y-86004815D01*
X208067315Y-85880845D01*
X208159356Y-85731624D01*
X208159358Y-85731619D01*
X208214505Y-85565197D01*
X208214506Y-85565190D01*
X208224999Y-85462486D01*
X208225000Y-85462473D01*
X208225000Y-85325000D01*
X207250000Y-85325000D01*
X206750000Y-85325000D01*
X205775001Y-85325000D01*
X204450499Y-85325000D01*
X204450499Y-84661999D01*
X204470184Y-84594961D01*
X204522987Y-84549206D01*
X204574499Y-84538000D01*
X205652962Y-84538000D01*
X205720001Y-84557685D01*
G37*
G04 #@! TD.AperFunction*
G04 #@! TA.AperFunction,Conductor*
G36*
X229524906Y-84525185D02*
G01*
X229570661Y-84577989D01*
X229580605Y-84647147D01*
X229553405Y-84708547D01*
X229540568Y-84724062D01*
X229532711Y-84732696D01*
X224381681Y-89883727D01*
X224320358Y-89917212D01*
X224250666Y-89912228D01*
X224194733Y-89870356D01*
X224170316Y-89804892D01*
X224170000Y-89796046D01*
X224170000Y-88930000D01*
X223345000Y-88930000D01*
X223345000Y-89338947D01*
X223360872Y-89354819D01*
X223394357Y-89416142D01*
X223389373Y-89485834D01*
X223360872Y-89530181D01*
X223345000Y-89546052D01*
X223345000Y-90331000D01*
X223325315Y-90398039D01*
X223272511Y-90443794D01*
X223221000Y-90455000D01*
X222436052Y-90455000D01*
X222420181Y-90470872D01*
X222358858Y-90504357D01*
X222289166Y-90499373D01*
X222244819Y-90470872D01*
X222228947Y-90455000D01*
X221820000Y-90455000D01*
X221820000Y-91280000D01*
X222686047Y-91280000D01*
X222753086Y-91299685D01*
X222798841Y-91352489D01*
X222808785Y-91421647D01*
X222779760Y-91485203D01*
X222773728Y-91491681D01*
X221777228Y-92488181D01*
X221715905Y-92521666D01*
X221689547Y-92524500D01*
X220086341Y-92524500D01*
X220070724Y-92522776D01*
X220070697Y-92523062D01*
X220062935Y-92522327D01*
X219995748Y-92524439D01*
X219991854Y-92524500D01*
X219964254Y-92524500D01*
X219960566Y-92524965D01*
X219960253Y-92525005D01*
X219948635Y-92525918D01*
X219904977Y-92527290D01*
X219904976Y-92527290D01*
X219885733Y-92532881D01*
X219866683Y-92536825D01*
X219846815Y-92539334D01*
X219846814Y-92539335D01*
X219806204Y-92555413D01*
X219795156Y-92559195D01*
X219784098Y-92562408D01*
X219714229Y-92562211D01*
X219655558Y-92524271D01*
X219626713Y-92460633D01*
X219625500Y-92443333D01*
X219625500Y-91404000D01*
X219645185Y-91336961D01*
X219697989Y-91291206D01*
X219749500Y-91280000D01*
X221320000Y-91280000D01*
X221320000Y-90455000D01*
X220911052Y-90455000D01*
X220895181Y-90470872D01*
X220833858Y-90504357D01*
X220764166Y-90499373D01*
X220719819Y-90470872D01*
X220703947Y-90455000D01*
X219919000Y-90455000D01*
X219851961Y-90435315D01*
X219806206Y-90382511D01*
X219795000Y-90331000D01*
X219795000Y-90237492D01*
X220707500Y-90237492D01*
X220745697Y-90290065D01*
X220791662Y-90305000D01*
X220823338Y-90305000D01*
X220869303Y-90290065D01*
X220907500Y-90237492D01*
X222232500Y-90237492D01*
X222270697Y-90290065D01*
X222316662Y-90305000D01*
X222348338Y-90305000D01*
X222394303Y-90290065D01*
X222432500Y-90237492D01*
X222432500Y-90172508D01*
X222394303Y-90119935D01*
X222348338Y-90105000D01*
X222316662Y-90105000D01*
X222270697Y-90119935D01*
X222232500Y-90172508D01*
X222232500Y-90237492D01*
X220907500Y-90237492D01*
X220907500Y-90172508D01*
X220869303Y-90119935D01*
X220823338Y-90105000D01*
X220791662Y-90105000D01*
X220745697Y-90119935D01*
X220707500Y-90172508D01*
X220707500Y-90237492D01*
X219795000Y-90237492D01*
X219795000Y-89546053D01*
X219779128Y-89530181D01*
X219748992Y-89474992D01*
X219945000Y-89474992D01*
X219983197Y-89527565D01*
X220029162Y-89542500D01*
X220060838Y-89542500D01*
X220106803Y-89527565D01*
X220145000Y-89474992D01*
X220145000Y-89442500D01*
X220398553Y-89442500D01*
X220436249Y-89480195D01*
X220807500Y-89851446D01*
X221183954Y-89474992D01*
X221470000Y-89474992D01*
X221508197Y-89527565D01*
X221554162Y-89542500D01*
X221585838Y-89542500D01*
X221631803Y-89527565D01*
X221670000Y-89474992D01*
X221670000Y-89442500D01*
X221923553Y-89442500D01*
X221961249Y-89480195D01*
X222332500Y-89851446D01*
X222708954Y-89474992D01*
X222995000Y-89474992D01*
X223033197Y-89527565D01*
X223079162Y-89542500D01*
X223110838Y-89542500D01*
X223156803Y-89527565D01*
X223195000Y-89474992D01*
X223195000Y-89410008D01*
X223156803Y-89357435D01*
X223110838Y-89342500D01*
X223079162Y-89342500D01*
X223033197Y-89357435D01*
X222995000Y-89410008D01*
X222995000Y-89474992D01*
X222708954Y-89474992D01*
X222741446Y-89442500D01*
X222384474Y-89085528D01*
X222332500Y-89033553D01*
X222280526Y-89085528D01*
X222280525Y-89085529D01*
X221923553Y-89442500D01*
X221670000Y-89442500D01*
X221670000Y-89410008D01*
X221631803Y-89357435D01*
X221585838Y-89342500D01*
X221554162Y-89342500D01*
X221508197Y-89357435D01*
X221470000Y-89410008D01*
X221470000Y-89474992D01*
X221183954Y-89474992D01*
X221216446Y-89442500D01*
X220859474Y-89085528D01*
X220807500Y-89033553D01*
X220755526Y-89085528D01*
X220755525Y-89085529D01*
X220398553Y-89442500D01*
X220145000Y-89442500D01*
X220145000Y-89410008D01*
X220106803Y-89357435D01*
X220060838Y-89342500D01*
X220029162Y-89342500D01*
X219983197Y-89357435D01*
X219945000Y-89410008D01*
X219945000Y-89474992D01*
X219748992Y-89474992D01*
X219745643Y-89468858D01*
X219750627Y-89399166D01*
X219779128Y-89354819D01*
X219794999Y-89338947D01*
X219795000Y-89338946D01*
X219795000Y-88712492D01*
X220707500Y-88712492D01*
X220745697Y-88765065D01*
X220791662Y-88780000D01*
X220823338Y-88780000D01*
X220869303Y-88765065D01*
X220907500Y-88712492D01*
X222232500Y-88712492D01*
X222270697Y-88765065D01*
X222316662Y-88780000D01*
X222348338Y-88780000D01*
X222394303Y-88765065D01*
X222432500Y-88712492D01*
X222432500Y-88647508D01*
X222394303Y-88594935D01*
X222348338Y-88580000D01*
X222316662Y-88580000D01*
X222270697Y-88594935D01*
X222232500Y-88647508D01*
X222232500Y-88712492D01*
X220907500Y-88712492D01*
X220907500Y-88647508D01*
X220869303Y-88594935D01*
X220823338Y-88580000D01*
X220791662Y-88580000D01*
X220745697Y-88594935D01*
X220707500Y-88647508D01*
X220707500Y-88712492D01*
X219795000Y-88712492D01*
X219795000Y-88021053D01*
X219779128Y-88005181D01*
X219748992Y-87949992D01*
X219945000Y-87949992D01*
X219983197Y-88002565D01*
X220029162Y-88017500D01*
X220060838Y-88017500D01*
X220106803Y-88002565D01*
X220145000Y-87949992D01*
X220145000Y-87917499D01*
X220398553Y-87917499D01*
X220807500Y-88326446D01*
X221183954Y-87949992D01*
X221470000Y-87949992D01*
X221508197Y-88002565D01*
X221554162Y-88017500D01*
X221585838Y-88017500D01*
X221631803Y-88002565D01*
X221670000Y-87949992D01*
X221670000Y-87917499D01*
X221923553Y-87917499D01*
X222332500Y-88326446D01*
X222708954Y-87949992D01*
X222995000Y-87949992D01*
X223033197Y-88002565D01*
X223079162Y-88017500D01*
X223110838Y-88017500D01*
X223156803Y-88002565D01*
X223195000Y-87949992D01*
X223195000Y-87885008D01*
X223156803Y-87832435D01*
X223110838Y-87817500D01*
X223079162Y-87817500D01*
X223033197Y-87832435D01*
X222995000Y-87885008D01*
X222995000Y-87949992D01*
X222708954Y-87949992D01*
X222741446Y-87917500D01*
X222378279Y-87554333D01*
X222332500Y-87508553D01*
X222286721Y-87554333D01*
X222286720Y-87554334D01*
X221923553Y-87917499D01*
X221670000Y-87917499D01*
X221670000Y-87885008D01*
X221631803Y-87832435D01*
X221585838Y-87817500D01*
X221554162Y-87817500D01*
X221508197Y-87832435D01*
X221470000Y-87885008D01*
X221470000Y-87949992D01*
X221183954Y-87949992D01*
X221216446Y-87917500D01*
X220853279Y-87554333D01*
X220807500Y-87508553D01*
X220761721Y-87554333D01*
X220761720Y-87554334D01*
X220398553Y-87917499D01*
X220145000Y-87917499D01*
X220145000Y-87885008D01*
X220106803Y-87832435D01*
X220060838Y-87817500D01*
X220029162Y-87817500D01*
X219983197Y-87832435D01*
X219945000Y-87885008D01*
X219945000Y-87949992D01*
X219748992Y-87949992D01*
X219745643Y-87943858D01*
X219750627Y-87874166D01*
X219779128Y-87829819D01*
X219794999Y-87813947D01*
X219795000Y-87813946D01*
X219795000Y-87187492D01*
X220707500Y-87187492D01*
X220745697Y-87240065D01*
X220791662Y-87255000D01*
X220823338Y-87255000D01*
X220869303Y-87240065D01*
X220907500Y-87187492D01*
X222232500Y-87187492D01*
X222270697Y-87240065D01*
X222316662Y-87255000D01*
X222348338Y-87255000D01*
X222394303Y-87240065D01*
X222432500Y-87187492D01*
X222432500Y-87122508D01*
X222394303Y-87069935D01*
X222348338Y-87055000D01*
X222316662Y-87055000D01*
X222270697Y-87069935D01*
X222232500Y-87122508D01*
X222232500Y-87187492D01*
X220907500Y-87187492D01*
X220907500Y-87122508D01*
X220869303Y-87069935D01*
X220823338Y-87055000D01*
X220791662Y-87055000D01*
X220745697Y-87069935D01*
X220707500Y-87122508D01*
X220707500Y-87187492D01*
X219795000Y-87187492D01*
X219795000Y-87029000D01*
X219814685Y-86961961D01*
X219867489Y-86916206D01*
X219919000Y-86905000D01*
X220703947Y-86905000D01*
X220703947Y-86904999D01*
X220719819Y-86889128D01*
X220781142Y-86855643D01*
X220850834Y-86860627D01*
X220895181Y-86889128D01*
X220911053Y-86905000D01*
X221320000Y-86905000D01*
X221320000Y-86080000D01*
X221820000Y-86080000D01*
X221820000Y-86905000D01*
X222228947Y-86905000D01*
X222228947Y-86904999D01*
X222244819Y-86889128D01*
X222306142Y-86855643D01*
X222375834Y-86860627D01*
X222420181Y-86889128D01*
X222436053Y-86905000D01*
X223221000Y-86905000D01*
X223288039Y-86924685D01*
X223333794Y-86977489D01*
X223345000Y-87029000D01*
X223345000Y-87813947D01*
X223360872Y-87829819D01*
X223394357Y-87891142D01*
X223389373Y-87960834D01*
X223360872Y-88005181D01*
X223345000Y-88021052D01*
X223345000Y-88430000D01*
X224170000Y-88430000D01*
X224170000Y-86532172D01*
X224169999Y-86532155D01*
X224163598Y-86472627D01*
X224163596Y-86472620D01*
X224113354Y-86337913D01*
X224113350Y-86337906D01*
X224027190Y-86222812D01*
X224027187Y-86222809D01*
X223912093Y-86136649D01*
X223912086Y-86136645D01*
X223777379Y-86086403D01*
X223777372Y-86086401D01*
X223717844Y-86080000D01*
X221820000Y-86080000D01*
X221320000Y-86080000D01*
X220860092Y-86080000D01*
X220793053Y-86060315D01*
X220747298Y-86007511D01*
X220737354Y-85938353D01*
X220752705Y-85894000D01*
X220770881Y-85862518D01*
X220787618Y-85833529D01*
X220846113Y-85653501D01*
X220863760Y-85485589D01*
X220890343Y-85420979D01*
X220899390Y-85410883D01*
X221768456Y-84541819D01*
X221829779Y-84508334D01*
X221856137Y-84505500D01*
X229457867Y-84505500D01*
X229524906Y-84525185D01*
G37*
G04 #@! TD.AperFunction*
G04 #@! TA.AperFunction,Conductor*
G36*
X231502854Y-80000632D02*
G01*
X231518811Y-80001369D01*
X231673088Y-80008502D01*
X231869795Y-80018166D01*
X231880787Y-80019201D01*
X232062876Y-80044601D01*
X232063781Y-80044732D01*
X232247261Y-80071949D01*
X232257413Y-80073892D01*
X232438614Y-80116510D01*
X232440023Y-80116852D01*
X232617874Y-80161401D01*
X232627091Y-80164096D01*
X232804478Y-80223550D01*
X232806618Y-80224292D01*
X232978220Y-80285692D01*
X232986519Y-80289004D01*
X233157980Y-80364712D01*
X233160909Y-80366051D01*
X233247263Y-80406892D01*
X233325119Y-80443715D01*
X233332411Y-80447465D01*
X233485636Y-80532812D01*
X233496435Y-80538827D01*
X233499810Y-80540777D01*
X233655371Y-80634017D01*
X233661670Y-80638058D01*
X233816699Y-80744256D01*
X233820459Y-80746935D01*
X233966009Y-80854882D01*
X233971305Y-80859040D01*
X234116009Y-80979200D01*
X234119947Y-80982617D01*
X234254206Y-81104303D01*
X234258590Y-81108478D01*
X234391520Y-81241408D01*
X234395698Y-81245795D01*
X234517375Y-81380045D01*
X234520805Y-81383998D01*
X234640951Y-81528684D01*
X234645124Y-81534000D01*
X234753041Y-81679509D01*
X234755742Y-81683299D01*
X234861940Y-81838328D01*
X234865992Y-81844645D01*
X234897597Y-81897375D01*
X234959200Y-82000153D01*
X234961171Y-82003563D01*
X235052525Y-82167573D01*
X235056291Y-82174896D01*
X235133947Y-82339089D01*
X235135286Y-82342018D01*
X235210994Y-82513479D01*
X235214311Y-82521791D01*
X235275666Y-82693265D01*
X235276487Y-82695634D01*
X235335894Y-82872881D01*
X235338606Y-82882157D01*
X235383104Y-83059803D01*
X235383526Y-83061543D01*
X235426101Y-83242562D01*
X235428053Y-83252758D01*
X235455257Y-83436156D01*
X235455410Y-83437218D01*
X235480794Y-83619184D01*
X235481834Y-83630232D01*
X235491512Y-83827238D01*
X235491529Y-83827595D01*
X235499368Y-83997145D01*
X235499500Y-84002872D01*
X235499500Y-152997127D01*
X235499368Y-153002854D01*
X235491529Y-153172404D01*
X235491512Y-153172761D01*
X235481834Y-153369766D01*
X235480794Y-153380814D01*
X235455410Y-153562780D01*
X235455257Y-153563842D01*
X235428053Y-153747240D01*
X235426101Y-153757436D01*
X235383526Y-153938455D01*
X235383104Y-153940195D01*
X235338606Y-154117841D01*
X235335894Y-154127117D01*
X235276487Y-154304364D01*
X235275666Y-154306733D01*
X235214311Y-154478207D01*
X235210994Y-154486519D01*
X235135286Y-154657980D01*
X235133947Y-154660909D01*
X235056291Y-154825102D01*
X235052525Y-154832425D01*
X234961171Y-154996435D01*
X234959200Y-154999845D01*
X234865999Y-155155342D01*
X234861940Y-155161670D01*
X234755742Y-155316699D01*
X234753041Y-155320489D01*
X234645135Y-155465984D01*
X234640935Y-155471334D01*
X234520851Y-155615947D01*
X234517331Y-155620004D01*
X234395717Y-155754183D01*
X234391520Y-155758590D01*
X234258590Y-155891520D01*
X234254183Y-155895717D01*
X234120004Y-156017331D01*
X234115947Y-156020851D01*
X233971334Y-156140935D01*
X233965984Y-156145135D01*
X233820489Y-156253041D01*
X233816699Y-156255742D01*
X233661670Y-156361940D01*
X233655342Y-156365999D01*
X233499845Y-156459200D01*
X233496435Y-156461171D01*
X233332425Y-156552525D01*
X233325102Y-156556291D01*
X233160909Y-156633947D01*
X233157980Y-156635286D01*
X232986519Y-156710994D01*
X232978207Y-156714311D01*
X232806733Y-156775666D01*
X232804364Y-156776487D01*
X232627117Y-156835894D01*
X232617841Y-156838606D01*
X232440195Y-156883104D01*
X232438455Y-156883526D01*
X232257436Y-156926101D01*
X232247240Y-156928053D01*
X232063842Y-156955257D01*
X232062780Y-156955410D01*
X231880814Y-156980794D01*
X231869766Y-156981834D01*
X231672931Y-156991503D01*
X231672575Y-156991520D01*
X231507393Y-156999158D01*
X231502854Y-156999368D01*
X231497128Y-156999500D01*
X183252872Y-156999500D01*
X183247145Y-156999368D01*
X183242305Y-156999144D01*
X183077423Y-156991520D01*
X183077067Y-156991503D01*
X182880232Y-156981834D01*
X182869184Y-156980794D01*
X182687218Y-156955410D01*
X182686156Y-156955257D01*
X182502758Y-156928053D01*
X182492562Y-156926101D01*
X182311543Y-156883526D01*
X182309803Y-156883104D01*
X182132157Y-156838606D01*
X182122881Y-156835894D01*
X181945634Y-156776487D01*
X181943265Y-156775666D01*
X181771791Y-156714311D01*
X181763479Y-156710994D01*
X181592018Y-156635286D01*
X181589089Y-156633947D01*
X181424896Y-156556291D01*
X181417573Y-156552525D01*
X181253563Y-156461171D01*
X181250153Y-156459200D01*
X181230648Y-156447509D01*
X181094645Y-156365992D01*
X181088328Y-156361940D01*
X180933299Y-156255742D01*
X180929509Y-156253041D01*
X180784000Y-156145124D01*
X180778684Y-156140951D01*
X180633998Y-156020805D01*
X180630045Y-156017375D01*
X180495795Y-155895698D01*
X180491408Y-155891520D01*
X180358478Y-155758590D01*
X180354303Y-155754206D01*
X180232617Y-155619947D01*
X180229200Y-155616009D01*
X180109040Y-155471305D01*
X180104882Y-155466009D01*
X179996935Y-155320459D01*
X179994256Y-155316699D01*
X179888058Y-155161670D01*
X179884017Y-155155371D01*
X179790777Y-154999810D01*
X179788827Y-154996435D01*
X179762261Y-154948740D01*
X179697465Y-154832411D01*
X179693715Y-154825119D01*
X179656892Y-154747263D01*
X179616051Y-154660909D01*
X179614712Y-154657980D01*
X179539004Y-154486519D01*
X179535692Y-154478220D01*
X179474292Y-154306618D01*
X179473550Y-154304478D01*
X179414096Y-154127091D01*
X179411401Y-154117874D01*
X179366852Y-153940023D01*
X179366510Y-153938614D01*
X179323892Y-153757413D01*
X179321949Y-153747261D01*
X179294732Y-153563781D01*
X179294588Y-153562780D01*
X179269201Y-153380787D01*
X179268166Y-153369795D01*
X179258480Y-153172611D01*
X179250632Y-153002854D01*
X179250500Y-152997128D01*
X179250500Y-149540000D01*
X190744651Y-149540000D01*
X190745043Y-149544995D01*
X190745044Y-149544997D01*
X190804752Y-149793702D01*
X190902634Y-150030012D01*
X190902636Y-150030015D01*
X191036278Y-150248100D01*
X191036279Y-150248102D01*
X191202398Y-150442601D01*
X191396897Y-150608720D01*
X191396899Y-150608721D01*
X191614984Y-150742363D01*
X191614987Y-150742365D01*
X191851297Y-150840247D01*
X192100011Y-150899957D01*
X192100010Y-150899957D01*
X192291144Y-150914999D01*
X192291158Y-150915000D01*
X193230000Y-150915000D01*
X193230000Y-149840000D01*
X193730000Y-149840000D01*
X193730000Y-150915000D01*
X194668842Y-150915000D01*
X194668855Y-150914999D01*
X194859988Y-150899957D01*
X195108702Y-150840247D01*
X195345012Y-150742365D01*
X195345015Y-150742363D01*
X195563100Y-150608721D01*
X195563102Y-150608720D01*
X195757601Y-150442601D01*
X195923720Y-150248102D01*
X195923721Y-150248100D01*
X196057363Y-150030015D01*
X196057365Y-150030012D01*
X196155247Y-149793702D01*
X196214955Y-149544997D01*
X196214956Y-149544995D01*
X196215349Y-149540000D01*
X195024852Y-149540000D01*
X195073559Y-149402953D01*
X195083877Y-149252114D01*
X195053116Y-149104085D01*
X195019910Y-149040000D01*
X196215349Y-149040000D01*
X196214956Y-149035004D01*
X196214955Y-149035002D01*
X196155247Y-148786297D01*
X196057365Y-148549987D01*
X196057363Y-148549984D01*
X195923721Y-148331899D01*
X195923720Y-148331897D01*
X195757601Y-148137398D01*
X195563102Y-147971279D01*
X195563100Y-147971278D01*
X195345015Y-147837636D01*
X195345012Y-147837634D01*
X195108702Y-147739752D01*
X194859988Y-147680042D01*
X194859989Y-147680042D01*
X194668855Y-147665000D01*
X193730000Y-147665000D01*
X193730000Y-148740000D01*
X193230000Y-148740000D01*
X193230000Y-147665000D01*
X192291144Y-147665000D01*
X192100011Y-147680042D01*
X191851297Y-147739752D01*
X191614987Y-147837634D01*
X191614984Y-147837636D01*
X191396899Y-147971278D01*
X191396897Y-147971279D01*
X191202398Y-148137398D01*
X191036279Y-148331897D01*
X191036278Y-148331899D01*
X190902636Y-148549984D01*
X190902634Y-148549987D01*
X190804752Y-148786297D01*
X190745044Y-149035002D01*
X190745043Y-149035004D01*
X190744651Y-149040000D01*
X191935148Y-149040000D01*
X191886441Y-149177047D01*
X191876123Y-149327886D01*
X191906884Y-149475915D01*
X191940090Y-149540000D01*
X190744651Y-149540000D01*
X179250500Y-149540000D01*
X179250500Y-146132500D01*
X214225172Y-146132500D01*
X214244462Y-146426812D01*
X214244464Y-146426824D01*
X214302001Y-146716084D01*
X214302005Y-146716099D01*
X214396812Y-146995388D01*
X214527258Y-147259906D01*
X214527265Y-147259919D01*
X214691123Y-147505149D01*
X214720405Y-147538540D01*
X215498542Y-146760402D01*
X215546327Y-146837577D01*
X215691782Y-146997134D01*
X215849679Y-147116372D01*
X215073958Y-147892093D01*
X215107350Y-147921376D01*
X215352580Y-148085234D01*
X215352593Y-148085241D01*
X215617111Y-148215687D01*
X215896400Y-148310494D01*
X215896415Y-148310498D01*
X216185675Y-148368035D01*
X216185687Y-148368037D01*
X216480000Y-148387327D01*
X216774312Y-148368037D01*
X216774324Y-148368035D01*
X217063584Y-148310498D01*
X217063599Y-148310494D01*
X217342888Y-148215687D01*
X217607406Y-148085241D01*
X217607419Y-148085234D01*
X217852648Y-147921377D01*
X217886039Y-147892093D01*
X217110319Y-147116372D01*
X217268218Y-146997134D01*
X217413673Y-146837577D01*
X217461456Y-146760403D01*
X218239593Y-147538539D01*
X218268877Y-147505148D01*
X218432734Y-147259919D01*
X218432741Y-147259906D01*
X218563187Y-146995388D01*
X218657994Y-146716099D01*
X218657998Y-146716084D01*
X218715535Y-146426824D01*
X218715537Y-146426812D01*
X218734827Y-146132500D01*
X226265172Y-146132500D01*
X226284462Y-146426812D01*
X226284464Y-146426824D01*
X226342001Y-146716084D01*
X226342005Y-146716099D01*
X226436812Y-146995388D01*
X226567258Y-147259906D01*
X226567265Y-147259919D01*
X226731123Y-147505149D01*
X226760405Y-147538540D01*
X227538542Y-146760402D01*
X227586327Y-146837577D01*
X227731782Y-146997134D01*
X227889679Y-147116372D01*
X227113958Y-147892093D01*
X227147350Y-147921376D01*
X227392580Y-148085234D01*
X227392593Y-148085241D01*
X227657111Y-148215687D01*
X227936400Y-148310494D01*
X227936415Y-148310498D01*
X228225675Y-148368035D01*
X228225687Y-148368037D01*
X228520000Y-148387327D01*
X228814312Y-148368037D01*
X228814324Y-148368035D01*
X229103584Y-148310498D01*
X229103599Y-148310494D01*
X229382888Y-148215687D01*
X229647406Y-148085241D01*
X229647419Y-148085234D01*
X229892648Y-147921377D01*
X229926039Y-147892093D01*
X229150319Y-147116372D01*
X229308218Y-146997134D01*
X229453673Y-146837577D01*
X229501456Y-146760403D01*
X230279593Y-147538539D01*
X230308877Y-147505148D01*
X230472734Y-147259919D01*
X230472741Y-147259906D01*
X230603187Y-146995388D01*
X230697994Y-146716099D01*
X230697998Y-146716084D01*
X230755535Y-146426824D01*
X230755537Y-146426812D01*
X230774827Y-146132500D01*
X230755537Y-145838187D01*
X230755535Y-145838175D01*
X230697998Y-145548915D01*
X230697994Y-145548900D01*
X230603187Y-145269611D01*
X230472741Y-145005093D01*
X230472734Y-145005080D01*
X230308876Y-144759850D01*
X230279593Y-144726458D01*
X229501456Y-145504595D01*
X229453673Y-145427423D01*
X229308218Y-145267866D01*
X229150319Y-145148626D01*
X229926040Y-144372905D01*
X229892649Y-144343623D01*
X229647419Y-144179765D01*
X229647406Y-144179758D01*
X229382888Y-144049312D01*
X229103599Y-143954505D01*
X229103584Y-143954501D01*
X228814324Y-143896964D01*
X228814312Y-143896962D01*
X228520000Y-143877672D01*
X228225687Y-143896962D01*
X228225675Y-143896964D01*
X227936415Y-143954501D01*
X227936400Y-143954505D01*
X227657111Y-144049312D01*
X227392593Y-144179758D01*
X227392580Y-144179765D01*
X227147346Y-144343626D01*
X227147339Y-144343631D01*
X227113959Y-144372903D01*
X227113959Y-144372905D01*
X227889680Y-145148626D01*
X227731782Y-145267866D01*
X227586327Y-145427423D01*
X227538543Y-145504596D01*
X226760405Y-144726459D01*
X226760403Y-144726459D01*
X226731131Y-144759839D01*
X226731126Y-144759846D01*
X226567265Y-145005080D01*
X226567258Y-145005093D01*
X226436812Y-145269611D01*
X226342005Y-145548900D01*
X226342001Y-145548915D01*
X226284464Y-145838175D01*
X226284462Y-145838187D01*
X226265172Y-146132500D01*
X218734827Y-146132500D01*
X218715537Y-145838187D01*
X218715535Y-145838175D01*
X218657998Y-145548915D01*
X218657994Y-145548900D01*
X218563187Y-145269611D01*
X218432741Y-145005093D01*
X218432734Y-145005080D01*
X218268876Y-144759850D01*
X218239593Y-144726458D01*
X217461456Y-145504595D01*
X217413673Y-145427423D01*
X217268218Y-145267866D01*
X217110319Y-145148626D01*
X217886040Y-144372905D01*
X217852649Y-144343623D01*
X217607419Y-144179765D01*
X217607406Y-144179758D01*
X217342888Y-144049312D01*
X217063599Y-143954505D01*
X217063584Y-143954501D01*
X216774324Y-143896964D01*
X216774312Y-143896962D01*
X216480000Y-143877672D01*
X216185687Y-143896962D01*
X216185675Y-143896964D01*
X215896415Y-143954501D01*
X215896400Y-143954505D01*
X215617111Y-144049312D01*
X215352593Y-144179758D01*
X215352580Y-144179765D01*
X215107346Y-144343626D01*
X215107339Y-144343631D01*
X215073959Y-144372903D01*
X215073959Y-144372905D01*
X215849680Y-145148626D01*
X215691782Y-145267866D01*
X215546327Y-145427423D01*
X215498542Y-145504596D01*
X214720405Y-144726459D01*
X214720403Y-144726459D01*
X214691131Y-144759839D01*
X214691126Y-144759846D01*
X214527265Y-145005080D01*
X214527258Y-145005093D01*
X214396812Y-145269611D01*
X214302005Y-145548900D01*
X214302001Y-145548915D01*
X214244464Y-145838175D01*
X214244462Y-145838187D01*
X214225172Y-146132500D01*
X179250500Y-146132500D01*
X179250500Y-142990000D01*
X190724474Y-142990000D01*
X190744547Y-143245064D01*
X190744547Y-143245067D01*
X190744548Y-143245070D01*
X190778800Y-143387736D01*
X190804279Y-143493864D01*
X190902188Y-143730239D01*
X190902190Y-143730242D01*
X191035875Y-143948396D01*
X191035878Y-143948401D01*
X191056034Y-143972000D01*
X191202044Y-144142956D01*
X191326579Y-144249319D01*
X191396598Y-144309121D01*
X191396603Y-144309124D01*
X191614757Y-144442809D01*
X191614760Y-144442811D01*
X191851135Y-144540720D01*
X191851140Y-144540722D01*
X192099930Y-144600452D01*
X192291137Y-144615500D01*
X192291145Y-144615500D01*
X194668855Y-144615500D01*
X194668863Y-144615500D01*
X194860070Y-144600452D01*
X195108860Y-144540722D01*
X195240205Y-144486317D01*
X195345239Y-144442811D01*
X195345240Y-144442810D01*
X195345243Y-144442809D01*
X195563399Y-144309123D01*
X195757956Y-144142956D01*
X195924123Y-143948399D01*
X196057809Y-143730243D01*
X196155722Y-143493860D01*
X196215452Y-143245070D01*
X196235526Y-142990000D01*
X196215452Y-142734930D01*
X196155722Y-142486140D01*
X196147311Y-142465833D01*
X196057811Y-142249760D01*
X196057809Y-142249757D01*
X195984550Y-142130209D01*
X195924123Y-142031601D01*
X195924122Y-142031600D01*
X195924121Y-142031598D01*
X195832845Y-141924728D01*
X195757956Y-141837044D01*
X195651591Y-141746200D01*
X195563401Y-141670878D01*
X195563396Y-141670875D01*
X195345242Y-141537190D01*
X195345239Y-141537188D01*
X195108864Y-141439279D01*
X195108860Y-141439278D01*
X194860070Y-141379548D01*
X194860068Y-141379547D01*
X194860065Y-141379547D01*
X194668868Y-141364500D01*
X194668863Y-141364500D01*
X192291137Y-141364500D01*
X192291131Y-141364500D01*
X192099934Y-141379547D01*
X191851135Y-141439279D01*
X191614760Y-141537188D01*
X191614757Y-141537190D01*
X191396603Y-141670875D01*
X191396598Y-141670878D01*
X191202044Y-141837044D01*
X191035878Y-142031598D01*
X191035875Y-142031603D01*
X190902190Y-142249757D01*
X190902188Y-142249760D01*
X190804279Y-142486135D01*
X190787945Y-142554172D01*
X190763298Y-142656834D01*
X190744547Y-142734935D01*
X190724474Y-142990000D01*
X179250500Y-142990000D01*
X179250500Y-128155515D01*
X185729500Y-128155515D01*
X185744196Y-128351620D01*
X185744197Y-128351625D01*
X185802576Y-128607402D01*
X185802578Y-128607411D01*
X185802580Y-128607416D01*
X185898432Y-128851643D01*
X186029614Y-129078857D01*
X186125690Y-129199332D01*
X186193198Y-129283985D01*
X186355108Y-129434214D01*
X186385521Y-129462433D01*
X186602296Y-129610228D01*
X186602301Y-129610230D01*
X186602302Y-129610231D01*
X186602303Y-129610232D01*
X186709017Y-129661622D01*
X186838673Y-129724061D01*
X186838674Y-129724061D01*
X186838677Y-129724063D01*
X187089385Y-129801396D01*
X187348818Y-129840500D01*
X187611182Y-129840500D01*
X187870615Y-129801396D01*
X188121323Y-129724063D01*
X188357704Y-129610228D01*
X188574479Y-129462433D01*
X188766805Y-129283981D01*
X188930386Y-129078857D01*
X189061568Y-128851643D01*
X189157420Y-128607416D01*
X189215802Y-128351630D01*
X189217855Y-128324238D01*
X189230499Y-128155515D01*
X191729500Y-128155515D01*
X191744196Y-128351620D01*
X191744197Y-128351625D01*
X191802576Y-128607402D01*
X191802578Y-128607411D01*
X191802580Y-128607416D01*
X191898432Y-128851643D01*
X192029614Y-129078857D01*
X192125690Y-129199332D01*
X192193198Y-129283985D01*
X192355108Y-129434214D01*
X192385521Y-129462433D01*
X192602296Y-129610228D01*
X192602301Y-129610230D01*
X192602302Y-129610231D01*
X192602303Y-129610232D01*
X192709017Y-129661622D01*
X192838673Y-129724061D01*
X192838674Y-129724061D01*
X192838677Y-129724063D01*
X193089385Y-129801396D01*
X193348818Y-129840500D01*
X193611182Y-129840500D01*
X193870615Y-129801396D01*
X194121323Y-129724063D01*
X194357704Y-129610228D01*
X194574479Y-129462433D01*
X194766805Y-129283981D01*
X194930386Y-129078857D01*
X195061568Y-128851643D01*
X195157420Y-128607416D01*
X195215802Y-128351630D01*
X195217855Y-128324238D01*
X195230499Y-128155515D01*
X195230500Y-128155492D01*
X195230500Y-124424507D01*
X195230499Y-124424484D01*
X195215803Y-124228379D01*
X195215802Y-124228374D01*
X195215802Y-124228370D01*
X195157420Y-123972584D01*
X195061568Y-123728357D01*
X194930386Y-123501143D01*
X194766805Y-123296019D01*
X194766804Y-123296018D01*
X194766801Y-123296014D01*
X194574479Y-123117567D01*
X194559404Y-123107289D01*
X194357704Y-122969772D01*
X194357700Y-122969770D01*
X194357697Y-122969768D01*
X194357696Y-122969767D01*
X194121325Y-122855938D01*
X194121327Y-122855938D01*
X193870623Y-122778606D01*
X193870619Y-122778605D01*
X193870615Y-122778604D01*
X193745823Y-122759794D01*
X193611187Y-122739500D01*
X193611182Y-122739500D01*
X193348818Y-122739500D01*
X193348812Y-122739500D01*
X193187247Y-122763853D01*
X193089385Y-122778604D01*
X193089382Y-122778605D01*
X193089376Y-122778606D01*
X192838673Y-122855938D01*
X192602303Y-122969767D01*
X192602302Y-122969768D01*
X192602296Y-122969771D01*
X192602296Y-122969772D01*
X192581532Y-122983929D01*
X192385520Y-123117567D01*
X192193198Y-123296014D01*
X192029614Y-123501143D01*
X191898432Y-123728356D01*
X191802582Y-123972578D01*
X191802576Y-123972597D01*
X191744197Y-124228374D01*
X191744196Y-124228379D01*
X191729500Y-124424484D01*
X191729500Y-128155515D01*
X189230499Y-128155515D01*
X189230500Y-128155492D01*
X189230500Y-124424507D01*
X189230499Y-124424484D01*
X189215803Y-124228379D01*
X189215802Y-124228374D01*
X189215802Y-124228370D01*
X189157420Y-123972584D01*
X189061568Y-123728357D01*
X188930386Y-123501143D01*
X188766805Y-123296019D01*
X188766804Y-123296018D01*
X188766801Y-123296014D01*
X188574479Y-123117567D01*
X188559404Y-123107289D01*
X188357704Y-122969772D01*
X188357700Y-122969770D01*
X188357697Y-122969768D01*
X188357696Y-122969767D01*
X188121325Y-122855938D01*
X188121327Y-122855938D01*
X187870623Y-122778606D01*
X187870619Y-122778605D01*
X187870615Y-122778604D01*
X187745823Y-122759794D01*
X187611187Y-122739500D01*
X187611182Y-122739500D01*
X187348818Y-122739500D01*
X187348812Y-122739500D01*
X187187247Y-122763853D01*
X187089385Y-122778604D01*
X187089382Y-122778605D01*
X187089376Y-122778606D01*
X186838673Y-122855938D01*
X186602303Y-122969767D01*
X186602302Y-122969768D01*
X186602296Y-122969771D01*
X186602296Y-122969772D01*
X186581532Y-122983929D01*
X186385520Y-123117567D01*
X186193198Y-123296014D01*
X186029614Y-123501143D01*
X185898432Y-123728356D01*
X185802582Y-123972578D01*
X185802576Y-123972597D01*
X185744197Y-124228374D01*
X185744196Y-124228379D01*
X185729500Y-124424484D01*
X185729500Y-128155515D01*
X179250500Y-128155515D01*
X179250500Y-110192401D01*
X184295746Y-110192401D01*
X184305745Y-110402327D01*
X184355296Y-110606578D01*
X184355298Y-110606582D01*
X184442598Y-110797743D01*
X184442601Y-110797748D01*
X184442602Y-110797750D01*
X184442604Y-110797753D01*
X184561833Y-110965187D01*
X184564515Y-110968953D01*
X184564520Y-110968959D01*
X184716620Y-111113985D01*
X184811578Y-111175011D01*
X184893428Y-111227613D01*
X185088543Y-111305725D01*
X185177847Y-111322937D01*
X185294914Y-111345500D01*
X185294915Y-111345500D01*
X186002419Y-111345500D01*
X186002425Y-111345500D01*
X186159218Y-111330528D01*
X186360875Y-111271316D01*
X186402221Y-111250001D01*
X192194435Y-111250001D01*
X192198720Y-111288029D01*
X192199500Y-111301914D01*
X192199500Y-112210291D01*
X192199501Y-112210300D01*
X192208017Y-112247618D01*
X192210345Y-112261317D01*
X192211861Y-112274767D01*
X192213412Y-112288532D01*
X192214633Y-112299360D01*
X192227271Y-112335480D01*
X192231119Y-112348835D01*
X192239639Y-112386161D01*
X192256250Y-112420654D01*
X192261570Y-112433497D01*
X192274212Y-112469625D01*
X192294572Y-112502027D01*
X192301296Y-112514193D01*
X192317910Y-112548689D01*
X192341771Y-112578610D01*
X192349817Y-112589949D01*
X192370182Y-112622359D01*
X192370184Y-112622362D01*
X203371262Y-123623440D01*
X203401512Y-123672803D01*
X203422818Y-123738377D01*
X203422821Y-123738384D01*
X203517467Y-123902316D01*
X203625500Y-124022298D01*
X203644129Y-124042988D01*
X203797265Y-124154248D01*
X203797270Y-124154251D01*
X203970192Y-124231242D01*
X203970197Y-124231244D01*
X204155354Y-124270600D01*
X204155355Y-124270600D01*
X204344644Y-124270600D01*
X204344646Y-124270600D01*
X204529803Y-124231244D01*
X204700067Y-124155436D01*
X204769313Y-124146151D01*
X204832590Y-124175779D01*
X204869804Y-124234914D01*
X204874500Y-124268716D01*
X204874500Y-132689547D01*
X204854815Y-132756586D01*
X204838181Y-132777228D01*
X204552228Y-133063181D01*
X204490905Y-133096666D01*
X204464547Y-133099500D01*
X204405354Y-133099500D01*
X204372897Y-133106398D01*
X204220197Y-133138855D01*
X204220192Y-133138857D01*
X204047270Y-133215848D01*
X204047265Y-133215851D01*
X203894129Y-133327111D01*
X203767466Y-133467785D01*
X203672821Y-133631715D01*
X203672818Y-133631722D01*
X203625541Y-133777228D01*
X203614326Y-133811744D01*
X203594540Y-134000000D01*
X203614326Y-134188256D01*
X203614327Y-134188259D01*
X203672818Y-134368277D01*
X203672821Y-134368284D01*
X203767467Y-134532216D01*
X203860344Y-134635366D01*
X203894129Y-134672888D01*
X204047265Y-134784148D01*
X204047270Y-134784151D01*
X204220192Y-134861142D01*
X204220197Y-134861144D01*
X204405354Y-134900500D01*
X204405355Y-134900500D01*
X204594644Y-134900500D01*
X204594646Y-134900500D01*
X204779803Y-134861144D01*
X204952730Y-134784151D01*
X205105871Y-134672888D01*
X205232533Y-134532216D01*
X205327179Y-134368284D01*
X205385674Y-134188256D01*
X205403321Y-134020345D01*
X205429905Y-133955732D01*
X205438952Y-133945636D01*
X205883786Y-133500802D01*
X205896048Y-133490980D01*
X205895865Y-133490759D01*
X205901868Y-133485791D01*
X205901877Y-133485786D01*
X205947934Y-133436739D01*
X205950582Y-133434006D01*
X205970120Y-133414470D01*
X205972570Y-133411310D01*
X205980154Y-133402429D01*
X206010062Y-133370582D01*
X206019714Y-133353023D01*
X206030389Y-133336772D01*
X206042674Y-133320936D01*
X206060030Y-133280825D01*
X206065161Y-133270354D01*
X206086194Y-133232098D01*
X206086194Y-133232097D01*
X206086197Y-133232092D01*
X206091180Y-133212680D01*
X206097477Y-133194291D01*
X206105438Y-133175895D01*
X206112270Y-133132748D01*
X206114639Y-133121316D01*
X206120572Y-133098210D01*
X206125500Y-133079019D01*
X206125500Y-133058983D01*
X206127027Y-133039582D01*
X206130160Y-133019804D01*
X206126050Y-132976324D01*
X206125500Y-132964655D01*
X206125500Y-116749500D01*
X206145185Y-116682461D01*
X206197989Y-116636706D01*
X206249500Y-116625500D01*
X206924548Y-116625500D01*
X206991587Y-116645185D01*
X207012229Y-116661819D01*
X209441038Y-119090628D01*
X209474523Y-119151951D01*
X209476678Y-119165347D01*
X209481078Y-119207207D01*
X209494326Y-119333256D01*
X209494327Y-119333259D01*
X209552818Y-119513277D01*
X209552821Y-119513284D01*
X209647467Y-119677216D01*
X209760403Y-119802644D01*
X209774129Y-119817888D01*
X209927265Y-119929148D01*
X209927270Y-119929151D01*
X210100192Y-120006142D01*
X210100197Y-120006144D01*
X210285354Y-120045500D01*
X210285355Y-120045500D01*
X210474644Y-120045500D01*
X210474646Y-120045500D01*
X210659803Y-120006144D01*
X210832730Y-119929151D01*
X210985871Y-119817888D01*
X211112533Y-119677216D01*
X211207179Y-119513284D01*
X211265674Y-119333256D01*
X211285460Y-119145000D01*
X211265674Y-118956744D01*
X211207179Y-118776716D01*
X211112533Y-118612784D01*
X210985871Y-118472112D01*
X210985870Y-118472111D01*
X210832734Y-118360851D01*
X210832729Y-118360848D01*
X210659807Y-118283857D01*
X210659802Y-118283855D01*
X210499722Y-118249830D01*
X210474646Y-118244500D01*
X210474645Y-118244500D01*
X210415452Y-118244500D01*
X210348413Y-118224815D01*
X210327771Y-118208181D01*
X207735803Y-115616212D01*
X207725980Y-115603950D01*
X207725759Y-115604134D01*
X207720786Y-115598122D01*
X207671776Y-115552099D01*
X207668977Y-115549386D01*
X207649477Y-115529885D01*
X207649471Y-115529880D01*
X207646286Y-115527409D01*
X207637434Y-115519848D01*
X207605582Y-115489938D01*
X207605580Y-115489936D01*
X207605577Y-115489935D01*
X207588029Y-115480288D01*
X207571763Y-115469604D01*
X207555932Y-115457324D01*
X207515849Y-115439978D01*
X207505363Y-115434841D01*
X207467094Y-115413803D01*
X207467092Y-115413802D01*
X207447693Y-115408822D01*
X207429281Y-115402518D01*
X207410898Y-115394562D01*
X207410892Y-115394560D01*
X207367760Y-115387729D01*
X207356322Y-115385361D01*
X207314020Y-115374500D01*
X207314019Y-115374500D01*
X207293984Y-115374500D01*
X207274586Y-115372973D01*
X207260695Y-115370773D01*
X207254805Y-115369840D01*
X207254804Y-115369840D01*
X207211325Y-115373950D01*
X207199656Y-115374500D01*
X207144027Y-115374500D01*
X207076988Y-115354815D01*
X207031233Y-115302011D01*
X207021289Y-115232853D01*
X207036640Y-115188501D01*
X207077176Y-115118289D01*
X207077175Y-115118289D01*
X207077179Y-115118284D01*
X207135674Y-114938256D01*
X207155460Y-114750000D01*
X207135674Y-114561744D01*
X207077179Y-114381716D01*
X206982533Y-114217784D01*
X206925893Y-114154879D01*
X206895664Y-114091890D01*
X206904288Y-114022554D01*
X206930359Y-113984230D01*
X208470120Y-112444470D01*
X208528679Y-112385911D01*
X208528691Y-112385898D01*
X208817820Y-112096769D01*
X208879142Y-112063285D01*
X208948834Y-112068269D01*
X209004767Y-112110141D01*
X209029184Y-112175605D01*
X209029500Y-112184451D01*
X209029500Y-112897870D01*
X209029501Y-112897876D01*
X209035908Y-112957483D01*
X209086202Y-113092328D01*
X209086206Y-113092335D01*
X209172452Y-113207544D01*
X209172455Y-113207547D01*
X209287664Y-113293793D01*
X209287671Y-113293797D01*
X209422517Y-113344091D01*
X209422516Y-113344091D01*
X209429444Y-113344835D01*
X209482127Y-113350500D01*
X211277872Y-113350499D01*
X211337483Y-113344091D01*
X211472331Y-113293796D01*
X211587546Y-113207546D01*
X211673796Y-113092331D01*
X211722810Y-112960916D01*
X211764681Y-112904984D01*
X211830145Y-112880566D01*
X211898418Y-112895417D01*
X211926673Y-112916569D01*
X212048597Y-113038493D01*
X212048603Y-113038498D01*
X212081036Y-113061208D01*
X212241624Y-113173653D01*
X212285248Y-113228228D01*
X212294500Y-113275226D01*
X212294500Y-115187087D01*
X212292775Y-115202704D01*
X212293061Y-115202731D01*
X212292326Y-115210497D01*
X212294439Y-115277704D01*
X212294500Y-115281599D01*
X212294500Y-115309189D01*
X212295003Y-115313167D01*
X212295918Y-115324799D01*
X212297290Y-115368456D01*
X212297291Y-115368459D01*
X212302880Y-115387699D01*
X212306824Y-115406743D01*
X212307740Y-115413988D01*
X212309336Y-115426624D01*
X212325414Y-115467235D01*
X212329197Y-115478284D01*
X212338775Y-115511252D01*
X212341382Y-115520222D01*
X212347096Y-115529885D01*
X212351580Y-115537466D01*
X212360136Y-115554932D01*
X212364973Y-115567147D01*
X212367514Y-115573564D01*
X212393181Y-115608892D01*
X212399593Y-115618653D01*
X212421828Y-115656249D01*
X212421833Y-115656256D01*
X212435990Y-115670412D01*
X212448628Y-115685208D01*
X212460405Y-115701418D01*
X212460406Y-115701419D01*
X212494057Y-115729257D01*
X212502697Y-115737119D01*
X213708035Y-116942458D01*
X213741519Y-117003779D01*
X213744353Y-117030137D01*
X213744353Y-117999851D01*
X213750779Y-118080189D01*
X213750779Y-118080193D01*
X213759638Y-118108588D01*
X213764002Y-118163162D01*
X213744353Y-118299830D01*
X213744353Y-119299834D01*
X213749499Y-119371792D01*
X213749500Y-119371797D01*
X213790045Y-119509882D01*
X213790047Y-119509885D01*
X213867857Y-119630960D01*
X213976627Y-119725209D01*
X214107543Y-119784997D01*
X214250000Y-119805479D01*
X215069695Y-119805479D01*
X215136734Y-119825164D01*
X215157376Y-119841798D01*
X216138181Y-120822603D01*
X216171666Y-120883926D01*
X216174500Y-120910284D01*
X216174500Y-122883610D01*
X216154815Y-122950649D01*
X216102011Y-122996404D01*
X216032853Y-123006348D01*
X215977616Y-122983929D01*
X215952733Y-122965850D01*
X215952729Y-122965848D01*
X215779807Y-122888857D01*
X215779802Y-122888855D01*
X215634001Y-122857865D01*
X215594646Y-122849500D01*
X215405354Y-122849500D01*
X215405352Y-122849500D01*
X215247212Y-122883113D01*
X215177545Y-122877797D01*
X215122165Y-122836134D01*
X215106096Y-122814668D01*
X215068681Y-122786659D01*
X214990885Y-122728420D01*
X214990878Y-122728416D01*
X214856032Y-122678122D01*
X214856033Y-122678122D01*
X214796433Y-122671715D01*
X214796431Y-122671714D01*
X214796423Y-122671714D01*
X214796414Y-122671714D01*
X213189379Y-122671714D01*
X213189373Y-122671715D01*
X213129766Y-122678122D01*
X212994921Y-122728416D01*
X212994914Y-122728420D01*
X212879705Y-122814666D01*
X212879702Y-122814669D01*
X212793456Y-122929878D01*
X212793452Y-122929885D01*
X212743158Y-123064731D01*
X212736751Y-123124330D01*
X212736750Y-123124349D01*
X212736750Y-123345657D01*
X212717065Y-123412696D01*
X212685634Y-123445976D01*
X212648183Y-123473185D01*
X212638423Y-123479596D01*
X212600830Y-123501829D01*
X212586664Y-123515995D01*
X212571874Y-123528627D01*
X212555664Y-123540404D01*
X212555661Y-123540407D01*
X212527823Y-123574058D01*
X212519961Y-123582697D01*
X210116208Y-125986449D01*
X210103951Y-125996270D01*
X210104134Y-125996491D01*
X210098122Y-126001464D01*
X210052098Y-126050473D01*
X210049391Y-126053266D01*
X210029889Y-126072767D01*
X210029875Y-126072784D01*
X210027407Y-126075965D01*
X210019843Y-126084820D01*
X209989937Y-126116668D01*
X209989936Y-126116670D01*
X209980284Y-126134226D01*
X209969610Y-126150476D01*
X209957329Y-126166311D01*
X209957324Y-126166318D01*
X209939975Y-126206408D01*
X209934838Y-126216894D01*
X209913803Y-126255156D01*
X209908822Y-126274557D01*
X209902521Y-126292960D01*
X209894562Y-126311352D01*
X209894561Y-126311355D01*
X209887728Y-126354493D01*
X209885360Y-126365924D01*
X209874501Y-126408221D01*
X209874500Y-126408232D01*
X209874500Y-126428266D01*
X209872973Y-126447665D01*
X209869840Y-126467444D01*
X209869840Y-126467445D01*
X209873950Y-126510924D01*
X209874500Y-126522593D01*
X209874500Y-133917255D01*
X209872775Y-133932872D01*
X209873061Y-133932899D01*
X209872326Y-133940665D01*
X209874439Y-134007872D01*
X209874500Y-134011767D01*
X209874500Y-134039357D01*
X209875003Y-134043335D01*
X209875918Y-134054967D01*
X209877290Y-134098624D01*
X209877291Y-134098627D01*
X209882880Y-134117867D01*
X209886824Y-134136911D01*
X209889336Y-134156792D01*
X209905414Y-134197403D01*
X209909197Y-134208452D01*
X209921381Y-134250388D01*
X209931580Y-134267634D01*
X209940138Y-134285103D01*
X209947514Y-134303732D01*
X209973181Y-134339060D01*
X209979593Y-134348821D01*
X210001828Y-134386417D01*
X210001833Y-134386424D01*
X210015990Y-134400580D01*
X210028628Y-134415376D01*
X210040405Y-134431586D01*
X210040406Y-134431587D01*
X210074057Y-134459425D01*
X210082698Y-134467288D01*
X211863181Y-136247772D01*
X211896666Y-136309095D01*
X211899500Y-136335453D01*
X211899500Y-137000001D01*
X211899501Y-137000019D01*
X211910000Y-137102796D01*
X211910001Y-137102799D01*
X211965185Y-137269331D01*
X211965186Y-137269334D01*
X212057288Y-137418656D01*
X212181344Y-137542712D01*
X212330666Y-137634814D01*
X212497203Y-137689999D01*
X212599991Y-137700500D01*
X213400008Y-137700499D01*
X213400016Y-137700498D01*
X213400019Y-137700498D01*
X213456302Y-137694748D01*
X213502797Y-137689999D01*
X213669334Y-137634814D01*
X213818656Y-137542712D01*
X213912319Y-137449049D01*
X213973642Y-137415564D01*
X214043334Y-137420548D01*
X214087681Y-137449049D01*
X214181344Y-137542712D01*
X214315597Y-137625519D01*
X214362321Y-137677465D01*
X214374500Y-137731057D01*
X214374500Y-138751456D01*
X214372775Y-138767073D01*
X214373061Y-138767100D01*
X214372326Y-138774866D01*
X214374439Y-138842073D01*
X214374500Y-138845968D01*
X214374500Y-138873558D01*
X214375003Y-138877536D01*
X214375918Y-138889168D01*
X214377290Y-138932825D01*
X214377291Y-138932828D01*
X214382880Y-138952068D01*
X214386824Y-138971112D01*
X214389336Y-138990993D01*
X214405414Y-139031604D01*
X214409197Y-139042653D01*
X214421381Y-139084589D01*
X214431580Y-139101835D01*
X214440138Y-139119304D01*
X214447514Y-139137933D01*
X214473181Y-139173261D01*
X214479593Y-139183022D01*
X214501828Y-139220618D01*
X214501833Y-139220625D01*
X214515990Y-139234781D01*
X214528628Y-139249577D01*
X214540405Y-139265787D01*
X214540406Y-139265788D01*
X214574057Y-139293626D01*
X214582698Y-139301489D01*
X220262493Y-144981284D01*
X220272318Y-144993548D01*
X220272539Y-144993366D01*
X220277509Y-144999374D01*
X220326538Y-145045415D01*
X220329335Y-145048126D01*
X220348829Y-145067620D01*
X220351994Y-145070075D01*
X220360870Y-145077656D01*
X220392717Y-145107562D01*
X220392721Y-145107564D01*
X220410272Y-145117213D01*
X220426530Y-145127892D01*
X220442363Y-145140174D01*
X220477709Y-145155468D01*
X220482454Y-145157522D01*
X220492934Y-145162655D01*
X220531207Y-145183697D01*
X220550611Y-145188679D01*
X220569009Y-145194978D01*
X220587404Y-145202938D01*
X220630553Y-145209771D01*
X220641979Y-145212138D01*
X220684280Y-145223000D01*
X220704315Y-145223000D01*
X220723712Y-145224526D01*
X220743495Y-145227660D01*
X220786974Y-145223550D01*
X220798643Y-145223000D01*
X224319757Y-145223000D01*
X224335377Y-145224724D01*
X224335404Y-145224439D01*
X224343160Y-145225171D01*
X224343167Y-145225173D01*
X224410373Y-145223061D01*
X224414268Y-145223000D01*
X224441846Y-145223000D01*
X224441850Y-145223000D01*
X224445824Y-145222497D01*
X224457463Y-145221580D01*
X224501127Y-145220209D01*
X224520369Y-145214617D01*
X224539412Y-145210674D01*
X224559292Y-145208164D01*
X224599901Y-145192085D01*
X224610944Y-145188303D01*
X224652890Y-145176118D01*
X224670129Y-145165922D01*
X224687603Y-145157362D01*
X224706227Y-145149988D01*
X224706227Y-145149987D01*
X224706232Y-145149986D01*
X224741583Y-145124300D01*
X224751314Y-145117908D01*
X224788920Y-145095670D01*
X224803089Y-145081499D01*
X224817879Y-145068868D01*
X224834087Y-145057094D01*
X224861938Y-145023426D01*
X224869779Y-145014809D01*
X225308786Y-144575802D01*
X225321048Y-144565980D01*
X225320865Y-144565759D01*
X225326868Y-144560791D01*
X225326877Y-144560786D01*
X225372934Y-144511739D01*
X225375582Y-144509006D01*
X225395120Y-144489470D01*
X225397570Y-144486310D01*
X225405154Y-144477429D01*
X225435062Y-144445582D01*
X225444714Y-144428023D01*
X225455389Y-144411772D01*
X225467674Y-144395936D01*
X225485030Y-144355825D01*
X225490161Y-144345354D01*
X225511194Y-144307098D01*
X225511194Y-144307097D01*
X225511197Y-144307092D01*
X225516180Y-144287680D01*
X225522477Y-144269291D01*
X225530438Y-144250895D01*
X225537270Y-144207748D01*
X225539639Y-144196316D01*
X225550499Y-144154022D01*
X225550500Y-144154017D01*
X225550500Y-144133983D01*
X225552027Y-144114582D01*
X225555160Y-144094804D01*
X225551050Y-144051324D01*
X225550500Y-144039655D01*
X225550500Y-142680242D01*
X225552224Y-142664622D01*
X225551939Y-142664596D01*
X225552671Y-142656840D01*
X225552673Y-142656833D01*
X225550561Y-142589626D01*
X225550500Y-142585731D01*
X225550500Y-142558154D01*
X225550500Y-142558150D01*
X225549996Y-142554165D01*
X225549080Y-142542521D01*
X225547709Y-142498873D01*
X225542122Y-142479644D01*
X225538174Y-142460584D01*
X225535663Y-142440704D01*
X225519588Y-142400104D01*
X225515804Y-142389052D01*
X225503618Y-142347109D01*
X225503616Y-142347106D01*
X225493423Y-142329871D01*
X225484861Y-142312394D01*
X225477487Y-142293769D01*
X225451816Y-142258437D01*
X225445405Y-142248677D01*
X225423170Y-142211080D01*
X225423168Y-142211078D01*
X225423165Y-142211074D01*
X225409006Y-142196915D01*
X225396368Y-142182119D01*
X225384594Y-142165913D01*
X225350940Y-142138072D01*
X225342299Y-142130209D01*
X225136818Y-141924728D01*
X225103333Y-141863405D01*
X225100499Y-141837047D01*
X225100499Y-140524629D01*
X225100498Y-140524623D01*
X225094091Y-140465016D01*
X225043797Y-140330171D01*
X225043793Y-140330164D01*
X224957547Y-140214955D01*
X224957544Y-140214952D01*
X224842335Y-140128706D01*
X224842328Y-140128702D01*
X224707482Y-140078408D01*
X224707483Y-140078408D01*
X224647883Y-140072001D01*
X224647881Y-140072000D01*
X224647873Y-140072000D01*
X224647865Y-140072000D01*
X223324500Y-140072000D01*
X223257461Y-140052315D01*
X223211706Y-139999511D01*
X223200500Y-139948000D01*
X223200500Y-137035284D01*
X223220185Y-136968245D01*
X223236819Y-136947603D01*
X226747772Y-133436650D01*
X226809095Y-133403165D01*
X226835453Y-133400331D01*
X227500002Y-133400331D01*
X227500008Y-133400331D01*
X227602797Y-133389831D01*
X227769334Y-133334646D01*
X227918656Y-133242544D01*
X228042712Y-133118488D01*
X228134814Y-132969166D01*
X228189999Y-132802629D01*
X228200500Y-132699841D01*
X228200499Y-131899824D01*
X228189999Y-131797035D01*
X228134814Y-131630498D01*
X228042712Y-131481176D01*
X227949049Y-131387513D01*
X227915564Y-131326190D01*
X227920548Y-131256498D01*
X227949049Y-131212151D01*
X228042712Y-131118488D01*
X228134814Y-130969166D01*
X228189999Y-130802629D01*
X228200500Y-130699841D01*
X228200499Y-129899824D01*
X228189999Y-129797035D01*
X228134814Y-129630498D01*
X228042712Y-129481176D01*
X227918656Y-129357120D01*
X227769334Y-129265018D01*
X227602797Y-129209833D01*
X227602795Y-129209832D01*
X227500016Y-129199332D01*
X227500009Y-129199332D01*
X226835452Y-129199332D01*
X226768413Y-129179647D01*
X226747771Y-129163013D01*
X224633983Y-127049225D01*
X222500943Y-124916184D01*
X222491120Y-124903922D01*
X222490899Y-124904106D01*
X222485926Y-124898094D01*
X222436916Y-124852071D01*
X222434147Y-124849388D01*
X222421937Y-124837178D01*
X222388455Y-124775853D01*
X222393442Y-124706162D01*
X222435316Y-124650230D01*
X222500781Y-124625816D01*
X222509622Y-124625500D01*
X222729092Y-124625500D01*
X222796131Y-124645185D01*
X222834636Y-124689271D01*
X222836395Y-124688187D01*
X222840185Y-124694332D01*
X222840186Y-124694334D01*
X222932288Y-124843656D01*
X223056344Y-124967712D01*
X223205666Y-125059814D01*
X223372203Y-125114999D01*
X223474991Y-125125500D01*
X224525008Y-125125499D01*
X224525016Y-125125498D01*
X224525019Y-125125498D01*
X224581302Y-125119748D01*
X224627797Y-125114999D01*
X224794334Y-125059814D01*
X224943656Y-124967712D01*
X225067712Y-124843656D01*
X225142809Y-124721902D01*
X225194757Y-124675179D01*
X225248348Y-124663000D01*
X225751652Y-124663000D01*
X225818691Y-124682685D01*
X225857189Y-124721901D01*
X225932288Y-124843656D01*
X226056344Y-124967712D01*
X226205666Y-125059814D01*
X226372203Y-125114999D01*
X226474991Y-125125500D01*
X227525008Y-125125499D01*
X227525016Y-125125498D01*
X227525019Y-125125498D01*
X227581302Y-125119748D01*
X227627797Y-125114999D01*
X227794334Y-125059814D01*
X227943656Y-124967712D01*
X228067712Y-124843656D01*
X228159814Y-124694334D01*
X228164503Y-124680181D01*
X228204272Y-124622738D01*
X228219083Y-124612454D01*
X228230130Y-124605922D01*
X228247603Y-124597362D01*
X228266227Y-124589988D01*
X228266227Y-124589987D01*
X228266232Y-124589986D01*
X228301583Y-124564300D01*
X228311314Y-124557908D01*
X228348920Y-124535670D01*
X228363089Y-124521499D01*
X228377879Y-124508868D01*
X228394087Y-124497094D01*
X228421938Y-124463426D01*
X228429779Y-124454809D01*
X229883787Y-123000802D01*
X229896042Y-122990986D01*
X229895859Y-122990764D01*
X229901868Y-122985791D01*
X229901877Y-122985786D01*
X229947949Y-122936722D01*
X229950566Y-122934023D01*
X229970120Y-122914471D01*
X229972576Y-122911303D01*
X229980156Y-122902427D01*
X230010062Y-122870582D01*
X230019713Y-122853024D01*
X230030396Y-122836761D01*
X230042673Y-122820936D01*
X230060021Y-122780844D01*
X230065151Y-122770371D01*
X230086197Y-122732092D01*
X230091180Y-122712680D01*
X230097481Y-122694280D01*
X230105437Y-122675896D01*
X230112270Y-122632748D01*
X230114633Y-122621338D01*
X230125500Y-122579019D01*
X230125500Y-122558983D01*
X230127027Y-122539582D01*
X230127195Y-122538522D01*
X230130160Y-122519804D01*
X230126050Y-122476324D01*
X230125500Y-122464655D01*
X230125500Y-120332742D01*
X230127224Y-120317122D01*
X230126939Y-120317096D01*
X230127671Y-120309340D01*
X230127673Y-120309333D01*
X230125561Y-120242126D01*
X230125500Y-120238231D01*
X230125500Y-120210654D01*
X230125500Y-120210650D01*
X230124996Y-120206665D01*
X230124080Y-120195021D01*
X230122709Y-120151373D01*
X230117122Y-120132144D01*
X230113174Y-120113084D01*
X230110663Y-120093204D01*
X230094588Y-120052604D01*
X230090804Y-120041552D01*
X230078618Y-119999609D01*
X230078616Y-119999606D01*
X230068423Y-119982371D01*
X230059861Y-119964894D01*
X230052487Y-119946269D01*
X230040050Y-119929151D01*
X230026811Y-119910930D01*
X230020405Y-119901177D01*
X229998170Y-119863580D01*
X229998168Y-119863578D01*
X229998165Y-119863574D01*
X229984006Y-119849415D01*
X229971368Y-119834619D01*
X229968844Y-119831145D01*
X229959594Y-119818413D01*
X229958959Y-119817888D01*
X229925940Y-119790572D01*
X229917299Y-119782709D01*
X227500803Y-117366212D01*
X227490980Y-117353950D01*
X227490759Y-117354134D01*
X227485786Y-117348122D01*
X227436776Y-117302099D01*
X227433977Y-117299386D01*
X227414477Y-117279885D01*
X227414471Y-117279880D01*
X227411286Y-117277409D01*
X227402434Y-117269848D01*
X227370582Y-117239938D01*
X227358257Y-117233162D01*
X227308993Y-117183618D01*
X227294336Y-117115303D01*
X227318938Y-117049908D01*
X227374991Y-117008196D01*
X227417994Y-117000500D01*
X229012837Y-117000500D01*
X229079876Y-117020185D01*
X229125631Y-117072989D01*
X229134088Y-117098533D01*
X229135000Y-117102795D01*
X229190186Y-117269335D01*
X229190187Y-117269337D01*
X229282286Y-117418651D01*
X229282289Y-117418655D01*
X229406344Y-117542710D01*
X229406348Y-117542713D01*
X229555662Y-117634812D01*
X229555664Y-117634813D01*
X229555666Y-117634814D01*
X229722203Y-117689999D01*
X229824992Y-117700500D01*
X229824997Y-117700500D01*
X231175003Y-117700500D01*
X231175008Y-117700500D01*
X231277797Y-117689999D01*
X231444334Y-117634814D01*
X231593655Y-117542711D01*
X231717711Y-117418655D01*
X231809814Y-117269334D01*
X231864999Y-117102797D01*
X231875500Y-117000008D01*
X231875500Y-115974992D01*
X231864999Y-115872203D01*
X231809814Y-115705666D01*
X231807194Y-115701419D01*
X231717713Y-115556348D01*
X231717710Y-115556344D01*
X231593655Y-115432289D01*
X231592538Y-115431600D01*
X231591933Y-115430927D01*
X231587988Y-115427808D01*
X231588520Y-115427134D01*
X231545812Y-115379654D01*
X231534588Y-115310692D01*
X231562086Y-115247023D01*
X231579536Y-115225928D01*
X231587379Y-115217309D01*
X232083787Y-114720902D01*
X232096042Y-114711086D01*
X232095859Y-114710864D01*
X232101868Y-114705891D01*
X232101877Y-114705886D01*
X232147949Y-114656822D01*
X232150566Y-114654123D01*
X232170120Y-114634571D01*
X232172576Y-114631403D01*
X232180156Y-114622527D01*
X232210062Y-114590682D01*
X232219713Y-114573124D01*
X232230396Y-114556861D01*
X232242673Y-114541036D01*
X232260021Y-114500944D01*
X232265151Y-114490471D01*
X232286197Y-114452192D01*
X232291180Y-114432780D01*
X232297481Y-114414380D01*
X232305437Y-114395996D01*
X232312270Y-114352848D01*
X232314633Y-114341438D01*
X232325500Y-114299119D01*
X232325500Y-114279083D01*
X232327027Y-114259682D01*
X232328049Y-114253229D01*
X232330160Y-114239904D01*
X232326050Y-114196424D01*
X232325500Y-114184755D01*
X232325500Y-112032742D01*
X232327224Y-112017122D01*
X232326939Y-112017096D01*
X232327671Y-112009340D01*
X232327673Y-112009333D01*
X232325561Y-111942126D01*
X232325500Y-111938231D01*
X232325500Y-111910654D01*
X232325500Y-111910650D01*
X232324996Y-111906665D01*
X232324080Y-111895021D01*
X232323514Y-111877011D01*
X232322709Y-111851373D01*
X232317122Y-111832144D01*
X232313174Y-111813084D01*
X232310663Y-111793204D01*
X232294588Y-111752604D01*
X232290804Y-111741552D01*
X232278618Y-111699609D01*
X232278616Y-111699606D01*
X232268423Y-111682371D01*
X232259861Y-111664894D01*
X232252487Y-111646269D01*
X232230288Y-111615715D01*
X232226811Y-111610930D01*
X232220405Y-111601177D01*
X232198170Y-111563580D01*
X232198168Y-111563578D01*
X232198165Y-111563574D01*
X232184006Y-111549415D01*
X232171368Y-111534619D01*
X232166257Y-111527584D01*
X232159594Y-111518413D01*
X232155855Y-111515320D01*
X232125940Y-111490572D01*
X232117299Y-111482709D01*
X231446771Y-110812180D01*
X231413286Y-110750857D01*
X231418270Y-110681165D01*
X231460142Y-110625232D01*
X231525606Y-110600815D01*
X231534452Y-110600499D01*
X232000002Y-110600499D01*
X232000008Y-110600499D01*
X232102797Y-110589999D01*
X232269334Y-110534814D01*
X232418656Y-110442712D01*
X232542712Y-110318656D01*
X232634814Y-110169334D01*
X232689999Y-110002797D01*
X232700500Y-109900009D01*
X232700499Y-109099992D01*
X232697862Y-109074182D01*
X232689999Y-108997203D01*
X232689998Y-108997200D01*
X232680638Y-108968953D01*
X232634814Y-108830666D01*
X232542712Y-108681344D01*
X232448695Y-108587327D01*
X232415210Y-108526004D01*
X232420194Y-108456312D01*
X232448695Y-108411964D01*
X232542317Y-108318342D01*
X232634356Y-108169124D01*
X232634358Y-108169119D01*
X232689505Y-108002697D01*
X232689506Y-108002690D01*
X232699999Y-107899986D01*
X232700000Y-107899973D01*
X232700000Y-107750000D01*
X231374000Y-107750000D01*
X231306961Y-107730315D01*
X231261206Y-107677511D01*
X231250000Y-107626000D01*
X231250000Y-106400000D01*
X231750000Y-106400000D01*
X231750000Y-107250000D01*
X232699999Y-107250000D01*
X232699999Y-107100028D01*
X232699998Y-107100013D01*
X232689505Y-106997302D01*
X232634358Y-106830880D01*
X232634356Y-106830875D01*
X232542315Y-106681654D01*
X232418345Y-106557684D01*
X232269124Y-106465643D01*
X232269119Y-106465641D01*
X232102697Y-106410494D01*
X232102690Y-106410493D01*
X231999986Y-106400000D01*
X231750000Y-106400000D01*
X231250000Y-106400000D01*
X231000029Y-106400000D01*
X231000012Y-106400001D01*
X230897302Y-106410494D01*
X230730880Y-106465641D01*
X230730875Y-106465643D01*
X230581654Y-106557684D01*
X230562181Y-106577158D01*
X230500858Y-106610643D01*
X230431166Y-106605659D01*
X230375233Y-106563787D01*
X230350816Y-106498323D01*
X230350500Y-106489477D01*
X230350500Y-104089879D01*
X230370185Y-104022840D01*
X230422989Y-103977085D01*
X230487102Y-103966521D01*
X230574991Y-103975500D01*
X231350008Y-103975499D01*
X231350016Y-103975498D01*
X231350019Y-103975498D01*
X231437897Y-103966521D01*
X231452797Y-103964999D01*
X231619334Y-103909814D01*
X231768656Y-103817712D01*
X231892712Y-103693656D01*
X231894752Y-103690347D01*
X231896745Y-103688555D01*
X231897193Y-103687989D01*
X231897289Y-103688065D01*
X231946694Y-103643623D01*
X232015656Y-103632395D01*
X232079740Y-103660234D01*
X232105829Y-103690339D01*
X232107681Y-103693341D01*
X232107683Y-103693344D01*
X232231654Y-103817315D01*
X232380875Y-103909356D01*
X232380880Y-103909358D01*
X232547302Y-103964505D01*
X232547309Y-103964506D01*
X232650019Y-103974999D01*
X232787499Y-103974999D01*
X232787500Y-103974998D01*
X232787500Y-103000000D01*
X233287500Y-103000000D01*
X233287500Y-103974999D01*
X233424972Y-103974999D01*
X233424986Y-103974998D01*
X233527697Y-103964505D01*
X233694119Y-103909358D01*
X233694124Y-103909356D01*
X233843345Y-103817315D01*
X233967315Y-103693345D01*
X234059356Y-103544124D01*
X234059358Y-103544119D01*
X234114505Y-103377697D01*
X234114506Y-103377690D01*
X234124999Y-103274986D01*
X234125000Y-103274973D01*
X234125000Y-103000000D01*
X233287500Y-103000000D01*
X232787500Y-103000000D01*
X232787500Y-101525000D01*
X233287500Y-101525000D01*
X233287500Y-102500000D01*
X234124999Y-102500000D01*
X234124999Y-102225028D01*
X234124998Y-102225013D01*
X234114505Y-102122302D01*
X234059358Y-101955880D01*
X234059356Y-101955875D01*
X233967315Y-101806654D01*
X233843345Y-101682684D01*
X233694124Y-101590643D01*
X233694119Y-101590641D01*
X233527697Y-101535494D01*
X233527690Y-101535493D01*
X233424986Y-101525000D01*
X233287500Y-101525000D01*
X232787500Y-101525000D01*
X232650027Y-101525000D01*
X232650012Y-101525001D01*
X232547302Y-101535494D01*
X232380880Y-101590641D01*
X232380875Y-101590643D01*
X232231654Y-101682684D01*
X232107683Y-101806655D01*
X232107679Y-101806660D01*
X232105826Y-101809665D01*
X232104018Y-101811290D01*
X232103202Y-101812323D01*
X232103025Y-101812183D01*
X232053874Y-101856385D01*
X231984911Y-101867601D01*
X231920831Y-101839752D01*
X231894753Y-101809653D01*
X231894737Y-101809628D01*
X231892712Y-101806344D01*
X231768656Y-101682288D01*
X231646902Y-101607190D01*
X231600179Y-101555243D01*
X231588000Y-101501652D01*
X231588000Y-101198687D01*
X231607685Y-101131648D01*
X231619850Y-101115715D01*
X231651686Y-101080357D01*
X231695033Y-101032216D01*
X231789679Y-100868284D01*
X231848174Y-100688256D01*
X231867960Y-100500000D01*
X231848174Y-100311744D01*
X231789679Y-100131716D01*
X231695033Y-99967784D01*
X231674731Y-99945236D01*
X231619850Y-99884284D01*
X231589620Y-99821292D01*
X231588000Y-99801312D01*
X231588000Y-98924499D01*
X231607685Y-98857460D01*
X231660489Y-98811705D01*
X231712000Y-98800499D01*
X231797871Y-98800499D01*
X231797872Y-98800499D01*
X231857483Y-98794091D01*
X231992331Y-98743796D01*
X232107546Y-98657546D01*
X232193796Y-98542331D01*
X232244091Y-98407483D01*
X232250500Y-98347873D01*
X232250499Y-97352128D01*
X232244091Y-97292517D01*
X232231340Y-97258332D01*
X232226357Y-97188642D01*
X232231338Y-97171672D01*
X232244091Y-97137483D01*
X232250500Y-97077873D01*
X232250499Y-96082128D01*
X232244091Y-96022517D01*
X232231340Y-95988332D01*
X232226357Y-95918642D01*
X232231338Y-95901672D01*
X232244091Y-95867483D01*
X232250500Y-95807873D01*
X232250499Y-94812128D01*
X232244091Y-94752517D01*
X232231340Y-94718332D01*
X232226357Y-94648642D01*
X232231340Y-94631669D01*
X232244091Y-94597483D01*
X232250500Y-94537873D01*
X232250499Y-93542128D01*
X232244091Y-93482517D01*
X232231340Y-93448332D01*
X232226357Y-93378642D01*
X232231340Y-93361669D01*
X232244091Y-93327483D01*
X232250500Y-93267873D01*
X232250499Y-92272128D01*
X232244091Y-92212517D01*
X232231340Y-92178332D01*
X232226357Y-92108642D01*
X232231338Y-92091672D01*
X232244091Y-92057483D01*
X232250500Y-91997873D01*
X232250499Y-91002128D01*
X232244091Y-90942517D01*
X232231340Y-90908332D01*
X232226357Y-90838642D01*
X232231338Y-90821672D01*
X232244091Y-90787483D01*
X232250500Y-90727873D01*
X232250499Y-89732128D01*
X232244091Y-89672517D01*
X232231340Y-89638332D01*
X232226357Y-89568642D01*
X232231338Y-89551672D01*
X232244091Y-89517483D01*
X232250500Y-89457873D01*
X232250499Y-88462128D01*
X232244091Y-88402517D01*
X232231340Y-88368332D01*
X232226357Y-88298642D01*
X232231338Y-88281672D01*
X232244091Y-88247483D01*
X232250500Y-88187873D01*
X232250499Y-87192128D01*
X232244091Y-87132517D01*
X232231340Y-87098332D01*
X232226357Y-87028642D01*
X232231338Y-87011672D01*
X232244091Y-86977483D01*
X232250500Y-86917873D01*
X232250499Y-85922128D01*
X232244091Y-85862517D01*
X232231340Y-85828332D01*
X232226357Y-85758642D01*
X232231338Y-85741672D01*
X232244091Y-85707483D01*
X232250500Y-85647873D01*
X232250499Y-84652128D01*
X232244091Y-84592517D01*
X232231340Y-84558332D01*
X232226357Y-84488642D01*
X232231338Y-84471672D01*
X232244091Y-84437483D01*
X232250500Y-84377873D01*
X232250499Y-83382128D01*
X232244091Y-83322517D01*
X232231340Y-83288332D01*
X232226357Y-83218642D01*
X232231338Y-83201672D01*
X232244091Y-83167483D01*
X232250500Y-83107873D01*
X232250499Y-82112128D01*
X232244091Y-82052517D01*
X232231073Y-82017616D01*
X232226090Y-81947926D01*
X232231075Y-81930949D01*
X232243597Y-81897375D01*
X232243598Y-81897372D01*
X232249999Y-81837844D01*
X232250000Y-81837827D01*
X232250000Y-81590000D01*
X229750000Y-81590000D01*
X229750000Y-81837834D01*
X229751012Y-81847240D01*
X229738609Y-81916000D01*
X229691001Y-81967139D01*
X229627723Y-81984500D01*
X221873122Y-81984500D01*
X221857501Y-81982775D01*
X221857474Y-81983061D01*
X221849712Y-81982326D01*
X221782492Y-81984439D01*
X221778598Y-81984500D01*
X221751029Y-81984500D01*
X221747052Y-81985002D01*
X221735421Y-81985917D01*
X221691753Y-81987289D01*
X221691747Y-81987290D01*
X221672505Y-81992880D01*
X221653466Y-81996823D01*
X221633596Y-81999334D01*
X221633582Y-81999337D01*
X221592977Y-82015413D01*
X221581933Y-82019194D01*
X221539993Y-82031379D01*
X221539989Y-82031381D01*
X221522745Y-82041579D01*
X221505284Y-82050133D01*
X221486653Y-82057510D01*
X221486641Y-82057517D01*
X221451312Y-82083185D01*
X221441552Y-82089596D01*
X221403959Y-82111829D01*
X221389793Y-82125995D01*
X221375003Y-82138627D01*
X221358793Y-82150404D01*
X221358790Y-82150407D01*
X221330952Y-82184058D01*
X221323090Y-82192697D01*
X218984402Y-84531386D01*
X218863958Y-84651830D01*
X218672916Y-84842870D01*
X218672871Y-84842917D01*
X218616211Y-84899577D01*
X218603948Y-84909402D01*
X218604131Y-84909624D01*
X218598120Y-84914596D01*
X218552096Y-84963605D01*
X218549389Y-84966398D01*
X218529889Y-84985897D01*
X218529875Y-84985914D01*
X218527407Y-84989095D01*
X218519843Y-84997950D01*
X218489937Y-85029798D01*
X218489936Y-85029800D01*
X218480284Y-85047356D01*
X218469610Y-85063606D01*
X218457329Y-85079441D01*
X218457324Y-85079448D01*
X218439975Y-85119538D01*
X218434838Y-85130024D01*
X218413803Y-85168286D01*
X218408822Y-85187687D01*
X218402521Y-85206090D01*
X218394562Y-85224482D01*
X218394561Y-85224485D01*
X218387728Y-85267623D01*
X218385360Y-85279054D01*
X218374501Y-85321351D01*
X218374500Y-85321362D01*
X218374500Y-85341396D01*
X218372973Y-85360795D01*
X218369840Y-85380574D01*
X218369840Y-85380575D01*
X218373950Y-85424054D01*
X218374500Y-85435723D01*
X218374500Y-92689547D01*
X218354815Y-92756586D01*
X218338181Y-92777228D01*
X216552228Y-94563181D01*
X216490905Y-94596666D01*
X216464547Y-94599500D01*
X216405354Y-94599500D01*
X216350281Y-94611206D01*
X216280614Y-94605889D01*
X216224881Y-94563751D01*
X216200777Y-94498170D01*
X216200502Y-94489915D01*
X216200502Y-87577739D01*
X216202226Y-87562125D01*
X216201940Y-87562098D01*
X216202674Y-87554333D01*
X216200563Y-87487145D01*
X216200502Y-87483251D01*
X216200502Y-87455653D01*
X216200502Y-87455652D01*
X216199999Y-87451672D01*
X216199082Y-87440023D01*
X216197711Y-87396376D01*
X216197711Y-87396374D01*
X216192122Y-87377139D01*
X216188176Y-87358086D01*
X216187840Y-87355426D01*
X216185666Y-87338210D01*
X216169580Y-87297583D01*
X216165805Y-87286556D01*
X216153619Y-87244612D01*
X216143423Y-87227371D01*
X216134862Y-87209895D01*
X216127828Y-87192129D01*
X216127488Y-87191270D01*
X216101811Y-87155928D01*
X216095414Y-87146192D01*
X216073172Y-87108581D01*
X216073169Y-87108578D01*
X216073167Y-87108575D01*
X216059007Y-87094415D01*
X216046372Y-87079622D01*
X216036984Y-87066702D01*
X216034596Y-87063415D01*
X216033253Y-87062304D01*
X216000947Y-87035578D01*
X215992306Y-87027715D01*
X215000803Y-86036212D01*
X214990980Y-86023950D01*
X214990759Y-86024134D01*
X214985786Y-86018122D01*
X214936776Y-85972099D01*
X214933977Y-85969386D01*
X214914477Y-85949885D01*
X214914471Y-85949880D01*
X214911286Y-85947409D01*
X214902434Y-85939848D01*
X214870582Y-85909938D01*
X214870580Y-85909936D01*
X214870577Y-85909935D01*
X214853029Y-85900288D01*
X214836763Y-85889604D01*
X214820932Y-85877324D01*
X214808319Y-85871866D01*
X214754612Y-85827175D01*
X214733593Y-85760542D01*
X214741388Y-85714729D01*
X214744091Y-85707483D01*
X214750500Y-85647873D01*
X214750499Y-84976532D01*
X214770183Y-84909494D01*
X214822987Y-84863739D01*
X214892146Y-84853795D01*
X214913725Y-84860020D01*
X214914013Y-84859135D01*
X214920197Y-84861144D01*
X215105354Y-84900500D01*
X215105355Y-84900500D01*
X215294644Y-84900500D01*
X215294646Y-84900500D01*
X215479803Y-84861144D01*
X215652730Y-84784151D01*
X215805871Y-84672888D01*
X215932533Y-84532216D01*
X216027179Y-84368284D01*
X216085674Y-84188256D01*
X216105460Y-84000000D01*
X216085674Y-83811744D01*
X216027179Y-83631716D01*
X215932533Y-83467784D01*
X215805871Y-83327112D01*
X215799548Y-83322518D01*
X215652734Y-83215851D01*
X215652729Y-83215848D01*
X215479807Y-83138857D01*
X215479802Y-83138855D01*
X215333996Y-83107864D01*
X215294646Y-83099500D01*
X215105354Y-83099500D01*
X215072897Y-83106398D01*
X214920197Y-83138855D01*
X214914013Y-83140865D01*
X214913190Y-83138333D01*
X214855614Y-83146019D01*
X214792354Y-83116354D01*
X214755175Y-83057198D01*
X214750499Y-83023472D01*
X214750499Y-82112128D01*
X214744091Y-82052517D01*
X214731073Y-82017616D01*
X214726090Y-81947926D01*
X214731075Y-81930949D01*
X214743597Y-81897375D01*
X214743598Y-81897372D01*
X214749999Y-81837844D01*
X214750000Y-81837827D01*
X214750000Y-81590000D01*
X212250000Y-81590000D01*
X212250000Y-81837834D01*
X212251012Y-81847240D01*
X212238609Y-81916000D01*
X212191001Y-81967139D01*
X212127723Y-81984500D01*
X210901345Y-81984500D01*
X210836249Y-81966039D01*
X210794340Y-81940189D01*
X210794335Y-81940187D01*
X210794334Y-81940186D01*
X210627797Y-81885001D01*
X210627795Y-81885000D01*
X210525010Y-81874500D01*
X209474998Y-81874500D01*
X209474980Y-81874501D01*
X209372203Y-81885000D01*
X209372200Y-81885001D01*
X209205668Y-81940185D01*
X209205663Y-81940187D01*
X209056342Y-82032289D01*
X208932289Y-82156342D01*
X208932288Y-82156344D01*
X208842269Y-82302290D01*
X208836395Y-82311813D01*
X208834600Y-82310706D01*
X208795313Y-82355337D01*
X208729092Y-82374500D01*
X208248348Y-82374500D01*
X208181309Y-82354815D01*
X208142809Y-82315597D01*
X208067712Y-82193844D01*
X207943656Y-82069788D01*
X207829436Y-81999337D01*
X207794336Y-81977687D01*
X207794331Y-81977685D01*
X207762505Y-81967139D01*
X207627797Y-81922501D01*
X207627795Y-81922500D01*
X207525010Y-81912000D01*
X206474998Y-81912000D01*
X206474980Y-81912001D01*
X206372203Y-81922500D01*
X206372200Y-81922501D01*
X206205668Y-81977685D01*
X206205663Y-81977687D01*
X206056342Y-82069789D01*
X205932289Y-82193842D01*
X205903451Y-82240597D01*
X205851503Y-82287321D01*
X205797912Y-82299500D01*
X202607743Y-82299500D01*
X202592122Y-82297775D01*
X202592095Y-82298061D01*
X202584333Y-82297326D01*
X202517113Y-82299439D01*
X202513219Y-82299500D01*
X202485650Y-82299500D01*
X202481673Y-82300002D01*
X202470042Y-82300917D01*
X202426374Y-82302289D01*
X202426368Y-82302290D01*
X202407126Y-82307880D01*
X202388087Y-82311823D01*
X202368217Y-82314334D01*
X202368200Y-82314338D01*
X202327596Y-82330413D01*
X202316555Y-82334194D01*
X202274606Y-82346383D01*
X202274604Y-82346384D01*
X202257358Y-82356583D01*
X202239893Y-82365139D01*
X202234010Y-82367468D01*
X202221266Y-82372514D01*
X202185934Y-82398183D01*
X202176178Y-82404592D01*
X202138580Y-82426828D01*
X202124408Y-82441000D01*
X202109623Y-82453628D01*
X202093412Y-82465407D01*
X202065571Y-82499059D01*
X202057711Y-82507696D01*
X201366208Y-83199199D01*
X201353951Y-83209020D01*
X201354134Y-83209241D01*
X201348122Y-83214214D01*
X201302098Y-83263223D01*
X201299391Y-83266016D01*
X201279889Y-83285517D01*
X201279875Y-83285534D01*
X201277407Y-83288715D01*
X201269843Y-83297570D01*
X201239937Y-83329418D01*
X201239936Y-83329420D01*
X201230284Y-83346976D01*
X201219610Y-83363226D01*
X201207329Y-83379061D01*
X201207324Y-83379068D01*
X201189975Y-83419158D01*
X201184838Y-83429644D01*
X201163803Y-83467906D01*
X201158822Y-83487307D01*
X201152521Y-83505710D01*
X201144562Y-83524102D01*
X201144561Y-83524105D01*
X201137728Y-83567243D01*
X201135360Y-83578674D01*
X201124501Y-83620971D01*
X201124500Y-83620982D01*
X201124500Y-83641016D01*
X201122973Y-83660415D01*
X201119840Y-83680194D01*
X201119840Y-83680195D01*
X201123950Y-83723674D01*
X201124500Y-83735343D01*
X201124500Y-86763869D01*
X201104815Y-86830908D01*
X201052011Y-86876663D01*
X200982853Y-86886607D01*
X200919297Y-86857582D01*
X200882569Y-86802187D01*
X200827181Y-86631722D01*
X200827180Y-86631721D01*
X200827179Y-86631716D01*
X200732533Y-86467784D01*
X200605871Y-86327112D01*
X200602697Y-86324806D01*
X200452734Y-86215851D01*
X200452729Y-86215848D01*
X200279807Y-86138857D01*
X200279802Y-86138855D01*
X200134001Y-86107865D01*
X200094646Y-86099500D01*
X200074000Y-86099500D01*
X200006961Y-86079815D01*
X199961206Y-86027011D01*
X199950000Y-85975500D01*
X199950000Y-85150000D01*
X197550000Y-85150000D01*
X197550000Y-85997844D01*
X197556401Y-86057372D01*
X197556403Y-86057379D01*
X197609746Y-86200399D01*
X197608242Y-86200959D01*
X197620944Y-86259341D01*
X197596530Y-86324806D01*
X197540599Y-86366680D01*
X197497260Y-86374500D01*
X195582743Y-86374500D01*
X195567122Y-86372775D01*
X195567096Y-86373061D01*
X195559334Y-86372327D01*
X195559333Y-86372327D01*
X195497109Y-86374282D01*
X195492127Y-86374439D01*
X195488232Y-86374500D01*
X195460647Y-86374500D01*
X195456661Y-86375003D01*
X195445033Y-86375918D01*
X195401373Y-86377290D01*
X195382129Y-86382881D01*
X195363079Y-86386825D01*
X195343211Y-86389334D01*
X195343210Y-86389334D01*
X195302599Y-86405413D01*
X195291554Y-86409194D01*
X195249614Y-86421379D01*
X195249610Y-86421381D01*
X195232366Y-86431579D01*
X195214905Y-86440133D01*
X195196274Y-86447510D01*
X195196262Y-86447517D01*
X195160933Y-86473185D01*
X195151173Y-86479596D01*
X195113580Y-86501829D01*
X195099414Y-86515995D01*
X195084624Y-86528627D01*
X195068414Y-86540404D01*
X195068411Y-86540407D01*
X195040573Y-86574058D01*
X195032711Y-86582697D01*
X192616208Y-88999199D01*
X192603951Y-89009020D01*
X192604134Y-89009241D01*
X192598122Y-89014214D01*
X192552098Y-89063223D01*
X192549391Y-89066016D01*
X192529889Y-89085517D01*
X192529880Y-89085529D01*
X192527407Y-89088715D01*
X192519843Y-89097570D01*
X192489937Y-89129418D01*
X192489936Y-89129420D01*
X192480284Y-89146976D01*
X192469610Y-89163226D01*
X192457329Y-89179061D01*
X192457324Y-89179068D01*
X192439975Y-89219158D01*
X192434838Y-89229644D01*
X192413803Y-89267906D01*
X192408822Y-89287307D01*
X192402521Y-89305710D01*
X192394562Y-89324102D01*
X192394561Y-89324105D01*
X192387728Y-89367243D01*
X192385360Y-89378674D01*
X192374501Y-89420971D01*
X192374500Y-89420982D01*
X192374500Y-89441016D01*
X192372973Y-89460415D01*
X192369840Y-89480194D01*
X192369840Y-89480195D01*
X192373950Y-89523674D01*
X192374500Y-89535343D01*
X192374500Y-91205144D01*
X192355493Y-91271118D01*
X192349817Y-91280151D01*
X192341772Y-91291488D01*
X192317910Y-91321410D01*
X192301300Y-91355900D01*
X192294577Y-91368064D01*
X192274212Y-91400476D01*
X192274208Y-91400483D01*
X192261565Y-91436613D01*
X192256247Y-91449452D01*
X192239639Y-91483939D01*
X192231118Y-91521269D01*
X192227271Y-91534622D01*
X192214632Y-91570743D01*
X192210345Y-91608781D01*
X192208018Y-91622478D01*
X192199500Y-91659807D01*
X192199500Y-95198085D01*
X192198720Y-95211969D01*
X192194435Y-95249998D01*
X192194435Y-95250001D01*
X192198720Y-95288029D01*
X192199500Y-95301914D01*
X192199500Y-100448085D01*
X192198720Y-100461969D01*
X192194435Y-100499998D01*
X192194435Y-100500001D01*
X192198720Y-100538029D01*
X192199500Y-100551914D01*
X192199500Y-105698085D01*
X192198720Y-105711969D01*
X192194435Y-105749998D01*
X192194435Y-105750001D01*
X192198720Y-105788029D01*
X192199500Y-105801914D01*
X192199500Y-111198085D01*
X192198720Y-111211969D01*
X192194435Y-111249998D01*
X192194435Y-111250001D01*
X186402221Y-111250001D01*
X186547682Y-111175011D01*
X186712886Y-111045092D01*
X186850519Y-110886256D01*
X186858655Y-110872165D01*
X186955601Y-110704249D01*
X186955600Y-110704249D01*
X186955604Y-110704244D01*
X187024344Y-110505633D01*
X187054254Y-110297602D01*
X187044254Y-110087670D01*
X186994704Y-109883424D01*
X186994701Y-109883417D01*
X186907401Y-109692256D01*
X186907398Y-109692251D01*
X186907397Y-109692250D01*
X186907396Y-109692247D01*
X186785486Y-109521048D01*
X186785484Y-109521046D01*
X186785479Y-109521040D01*
X186633379Y-109376014D01*
X186592057Y-109349458D01*
X186546302Y-109296654D01*
X186536359Y-109227496D01*
X186565384Y-109163940D01*
X186582445Y-109147673D01*
X186643068Y-109099998D01*
X186712886Y-109045092D01*
X186850519Y-108886256D01*
X186853180Y-108881648D01*
X186955601Y-108704249D01*
X186955600Y-108704249D01*
X186955604Y-108704244D01*
X187024344Y-108505633D01*
X187054254Y-108297602D01*
X187044254Y-108087670D01*
X186994704Y-107883424D01*
X186989596Y-107872239D01*
X186907401Y-107692256D01*
X186907398Y-107692251D01*
X186907397Y-107692250D01*
X186907396Y-107692247D01*
X186785486Y-107521048D01*
X186785484Y-107521046D01*
X186785479Y-107521040D01*
X186633379Y-107376014D01*
X186592057Y-107349458D01*
X186546302Y-107296654D01*
X186536359Y-107227496D01*
X186565384Y-107163940D01*
X186582445Y-107147673D01*
X186659162Y-107087341D01*
X186712886Y-107045092D01*
X186850519Y-106886256D01*
X186882491Y-106830880D01*
X186955601Y-106704249D01*
X186955600Y-106704249D01*
X186955604Y-106704244D01*
X187024344Y-106505633D01*
X187054254Y-106297602D01*
X187044254Y-106087670D01*
X186994704Y-105883424D01*
X186993056Y-105879815D01*
X186907401Y-105692256D01*
X186907398Y-105692251D01*
X186907397Y-105692250D01*
X186907396Y-105692247D01*
X186785486Y-105521048D01*
X186695161Y-105434924D01*
X186682917Y-105423249D01*
X186647982Y-105362740D01*
X186651307Y-105292950D01*
X186691835Y-105236036D01*
X186703384Y-105227971D01*
X186768656Y-105187712D01*
X186892712Y-105063656D01*
X186984814Y-104914334D01*
X187039999Y-104747797D01*
X187050500Y-104645009D01*
X187050499Y-103844992D01*
X187046001Y-103800963D01*
X187039999Y-103742203D01*
X187039998Y-103742200D01*
X187016424Y-103671059D01*
X186984814Y-103575666D01*
X186892712Y-103426344D01*
X186768656Y-103302288D01*
X186619334Y-103210186D01*
X186452797Y-103155001D01*
X186452795Y-103155000D01*
X186350010Y-103144500D01*
X184999998Y-103144500D01*
X184999981Y-103144501D01*
X184897203Y-103155000D01*
X184897200Y-103155001D01*
X184730668Y-103210185D01*
X184730663Y-103210187D01*
X184581342Y-103302289D01*
X184457289Y-103426342D01*
X184365187Y-103575663D01*
X184365185Y-103575668D01*
X184344252Y-103638840D01*
X184310001Y-103742203D01*
X184310001Y-103742204D01*
X184310000Y-103742204D01*
X184299500Y-103844983D01*
X184299500Y-104645001D01*
X184299501Y-104645019D01*
X184310000Y-104747796D01*
X184310001Y-104747799D01*
X184365185Y-104914331D01*
X184365187Y-104914336D01*
X184396962Y-104965851D01*
X184457288Y-105063656D01*
X184581344Y-105187712D01*
X184630100Y-105217785D01*
X184644739Y-105226814D01*
X184691464Y-105278762D01*
X184702687Y-105347724D01*
X184674844Y-105411806D01*
X184656296Y-105429822D01*
X184637118Y-105444903D01*
X184637112Y-105444909D01*
X184499478Y-105603746D01*
X184394398Y-105785750D01*
X184325656Y-105984365D01*
X184325656Y-105984367D01*
X184310804Y-106087670D01*
X184295746Y-106192401D01*
X184305745Y-106402327D01*
X184355296Y-106606578D01*
X184355298Y-106606582D01*
X184442598Y-106797743D01*
X184442601Y-106797748D01*
X184442602Y-106797750D01*
X184442604Y-106797753D01*
X184534553Y-106926877D01*
X184564515Y-106968953D01*
X184564520Y-106968959D01*
X184716619Y-107113984D01*
X184716621Y-107113985D01*
X184716622Y-107113986D01*
X184757005Y-107139939D01*
X184757941Y-107140540D01*
X184803696Y-107193344D01*
X184813640Y-107262503D01*
X184784615Y-107326059D01*
X184767555Y-107342326D01*
X184637112Y-107444909D01*
X184499478Y-107603746D01*
X184394398Y-107785750D01*
X184325656Y-107984365D01*
X184325656Y-107984367D01*
X184297928Y-108177228D01*
X184295746Y-108192401D01*
X184305745Y-108402327D01*
X184355296Y-108606578D01*
X184355298Y-108606582D01*
X184442598Y-108797743D01*
X184442601Y-108797748D01*
X184442602Y-108797750D01*
X184442604Y-108797753D01*
X184556157Y-108957216D01*
X184564515Y-108968953D01*
X184564520Y-108968959D01*
X184716619Y-109113984D01*
X184757941Y-109140540D01*
X184803696Y-109193344D01*
X184813640Y-109262503D01*
X184784615Y-109326059D01*
X184767555Y-109342326D01*
X184637112Y-109444909D01*
X184499478Y-109603746D01*
X184394398Y-109785750D01*
X184325656Y-109984365D01*
X184325656Y-109984367D01*
X184299063Y-110169331D01*
X184295746Y-110192401D01*
X179250500Y-110192401D01*
X179250500Y-97947401D01*
X184295746Y-97947401D01*
X184305745Y-98157327D01*
X184355296Y-98361578D01*
X184355298Y-98361582D01*
X184442598Y-98552743D01*
X184442601Y-98552748D01*
X184442602Y-98552750D01*
X184442604Y-98552753D01*
X184518992Y-98660025D01*
X184564515Y-98723953D01*
X184564520Y-98723959D01*
X184716620Y-98868985D01*
X184811578Y-98930011D01*
X184893428Y-98982613D01*
X185088543Y-99060725D01*
X185185531Y-99079418D01*
X185294914Y-99100500D01*
X185294915Y-99100500D01*
X186002419Y-99100500D01*
X186002425Y-99100500D01*
X186159218Y-99085528D01*
X186360875Y-99026316D01*
X186547682Y-98930011D01*
X186712886Y-98800092D01*
X186850519Y-98641256D01*
X186874993Y-98598867D01*
X186955601Y-98459249D01*
X186955600Y-98459249D01*
X186955604Y-98459244D01*
X187024344Y-98260633D01*
X187054254Y-98052602D01*
X187044254Y-97842670D01*
X186994704Y-97638424D01*
X186993508Y-97635805D01*
X186907401Y-97447256D01*
X186907398Y-97447251D01*
X186907397Y-97447250D01*
X186907396Y-97447247D01*
X186785486Y-97276048D01*
X186785484Y-97276046D01*
X186785479Y-97276040D01*
X186633379Y-97131014D01*
X186592057Y-97104458D01*
X186546302Y-97051654D01*
X186536359Y-96982496D01*
X186565384Y-96918940D01*
X186582445Y-96902673D01*
X186712883Y-96800094D01*
X186712886Y-96800092D01*
X186850519Y-96641256D01*
X186955604Y-96459244D01*
X187024344Y-96260633D01*
X187054254Y-96052602D01*
X187044254Y-95842670D01*
X186994704Y-95638424D01*
X186987427Y-95622489D01*
X186907401Y-95447256D01*
X186907398Y-95447251D01*
X186907397Y-95447250D01*
X186907396Y-95447247D01*
X186785486Y-95276048D01*
X186785484Y-95276046D01*
X186785479Y-95276040D01*
X186633379Y-95131014D01*
X186592057Y-95104458D01*
X186546302Y-95051654D01*
X186536359Y-94982496D01*
X186565384Y-94918940D01*
X186582445Y-94902673D01*
X186654353Y-94846123D01*
X186712886Y-94800092D01*
X186850519Y-94641256D01*
X186867869Y-94611206D01*
X186955601Y-94459249D01*
X186955600Y-94459249D01*
X186955604Y-94459244D01*
X187024344Y-94260633D01*
X187054254Y-94052602D01*
X187044254Y-93842670D01*
X186994704Y-93638424D01*
X186974323Y-93593796D01*
X186907401Y-93447256D01*
X186907398Y-93447251D01*
X186907397Y-93447250D01*
X186907396Y-93447247D01*
X186785486Y-93276048D01*
X186776923Y-93267883D01*
X186682917Y-93178249D01*
X186647982Y-93117740D01*
X186651307Y-93047950D01*
X186691835Y-92991036D01*
X186703384Y-92982971D01*
X186768656Y-92942712D01*
X186892712Y-92818656D01*
X186984814Y-92669334D01*
X187039999Y-92502797D01*
X187050500Y-92400009D01*
X187050499Y-91599992D01*
X187047511Y-91570745D01*
X187039999Y-91497203D01*
X187039998Y-91497200D01*
X187024176Y-91449452D01*
X186984814Y-91330666D01*
X186892712Y-91181344D01*
X186768656Y-91057288D01*
X186619334Y-90965186D01*
X186452797Y-90910001D01*
X186452795Y-90910000D01*
X186350010Y-90899500D01*
X184999998Y-90899500D01*
X184999981Y-90899501D01*
X184897203Y-90910000D01*
X184897200Y-90910001D01*
X184730668Y-90965185D01*
X184730663Y-90965187D01*
X184581342Y-91057289D01*
X184457289Y-91181342D01*
X184365187Y-91330663D01*
X184365185Y-91330668D01*
X184342051Y-91400483D01*
X184310001Y-91497203D01*
X184310001Y-91497204D01*
X184310000Y-91497204D01*
X184299500Y-91599983D01*
X184299500Y-92400001D01*
X184299501Y-92400019D01*
X184310000Y-92502796D01*
X184310001Y-92502799D01*
X184351032Y-92626620D01*
X184365186Y-92669334D01*
X184436005Y-92784151D01*
X184457289Y-92818657D01*
X184581344Y-92942712D01*
X184644739Y-92981814D01*
X184691464Y-93033762D01*
X184702687Y-93102724D01*
X184674844Y-93166806D01*
X184656296Y-93184822D01*
X184637118Y-93199903D01*
X184637112Y-93199909D01*
X184499478Y-93358746D01*
X184394398Y-93540750D01*
X184325656Y-93739365D01*
X184325656Y-93739367D01*
X184310804Y-93842670D01*
X184295746Y-93947401D01*
X184305745Y-94157327D01*
X184355296Y-94361578D01*
X184355298Y-94361582D01*
X184442598Y-94552743D01*
X184442601Y-94552748D01*
X184442602Y-94552750D01*
X184442604Y-94552753D01*
X184564514Y-94723952D01*
X184564515Y-94723953D01*
X184564520Y-94723959D01*
X184716619Y-94868984D01*
X184757941Y-94895540D01*
X184803696Y-94948344D01*
X184813640Y-95017503D01*
X184784615Y-95081059D01*
X184767555Y-95097326D01*
X184637112Y-95199909D01*
X184499478Y-95358746D01*
X184394398Y-95540750D01*
X184325656Y-95739365D01*
X184325656Y-95739367D01*
X184299881Y-95918642D01*
X184295746Y-95947401D01*
X184305745Y-96157327D01*
X184355296Y-96361578D01*
X184355298Y-96361582D01*
X184442598Y-96552743D01*
X184442601Y-96552748D01*
X184442602Y-96552750D01*
X184442604Y-96552753D01*
X184564514Y-96723952D01*
X184564515Y-96723953D01*
X184564520Y-96723959D01*
X184716619Y-96868984D01*
X184757941Y-96895540D01*
X184803696Y-96948344D01*
X184813640Y-97017503D01*
X184784615Y-97081059D01*
X184767555Y-97097326D01*
X184637112Y-97199909D01*
X184499478Y-97358746D01*
X184394398Y-97540750D01*
X184325656Y-97739365D01*
X184325656Y-97739367D01*
X184301669Y-97906206D01*
X184295746Y-97947401D01*
X179250500Y-97947401D01*
X179250500Y-84650000D01*
X197550000Y-84650000D01*
X198500000Y-84650000D01*
X198500000Y-83350000D01*
X199000000Y-83350000D01*
X199000000Y-84650000D01*
X199950000Y-84650000D01*
X199950000Y-83802172D01*
X199949999Y-83802155D01*
X199943598Y-83742627D01*
X199943596Y-83742620D01*
X199893354Y-83607913D01*
X199893350Y-83607906D01*
X199807190Y-83492812D01*
X199807187Y-83492809D01*
X199692093Y-83406649D01*
X199692086Y-83406645D01*
X199557379Y-83356403D01*
X199557372Y-83356401D01*
X199497844Y-83350000D01*
X199000000Y-83350000D01*
X198500000Y-83350000D01*
X198002155Y-83350000D01*
X197942627Y-83356401D01*
X197942620Y-83356403D01*
X197807913Y-83406645D01*
X197807906Y-83406649D01*
X197692812Y-83492809D01*
X197692809Y-83492812D01*
X197606649Y-83607906D01*
X197606645Y-83607913D01*
X197556403Y-83742620D01*
X197556401Y-83742627D01*
X197550000Y-83802155D01*
X197550000Y-84650000D01*
X179250500Y-84650000D01*
X179250500Y-84002871D01*
X179250632Y-83997145D01*
X179250710Y-83995456D01*
X179258490Y-83827168D01*
X179268166Y-83630200D01*
X179269200Y-83619217D01*
X179294611Y-83437054D01*
X179294722Y-83436286D01*
X179321950Y-83252729D01*
X179323890Y-83242595D01*
X179366526Y-83061318D01*
X179366837Y-83060037D01*
X179411405Y-82882111D01*
X179414091Y-82872922D01*
X179473572Y-82695457D01*
X179474270Y-82693442D01*
X179535699Y-82521759D01*
X179538996Y-82513497D01*
X179614713Y-82342015D01*
X179616051Y-82339089D01*
X179618366Y-82334194D01*
X179693727Y-82174855D01*
X179697452Y-82167612D01*
X179788864Y-82003497D01*
X179790745Y-82000243D01*
X179884036Y-81844598D01*
X179888034Y-81838363D01*
X179994270Y-81683278D01*
X179996899Y-81679590D01*
X180104909Y-81533954D01*
X180109011Y-81528728D01*
X180229239Y-81383944D01*
X180232577Y-81380097D01*
X180354340Y-81245752D01*
X180358437Y-81241450D01*
X180491450Y-81108437D01*
X180495752Y-81104340D01*
X180511574Y-81090000D01*
X212250000Y-81090000D01*
X213250000Y-81090000D01*
X213250000Y-80390000D01*
X213750000Y-80390000D01*
X213750000Y-81090000D01*
X214750000Y-81090000D01*
X229750000Y-81090000D01*
X230750000Y-81090000D01*
X230750000Y-80390000D01*
X231250000Y-80390000D01*
X231250000Y-81090000D01*
X232250000Y-81090000D01*
X232250000Y-80842172D01*
X232249999Y-80842155D01*
X232243598Y-80782627D01*
X232243596Y-80782620D01*
X232193354Y-80647913D01*
X232193350Y-80647906D01*
X232107190Y-80532812D01*
X232107187Y-80532809D01*
X231992093Y-80446649D01*
X231992086Y-80446645D01*
X231857379Y-80396403D01*
X231857372Y-80396401D01*
X231797844Y-80390000D01*
X231250000Y-80390000D01*
X230750000Y-80390000D01*
X230202155Y-80390000D01*
X230142627Y-80396401D01*
X230142620Y-80396403D01*
X230007913Y-80446645D01*
X230007906Y-80446649D01*
X229892812Y-80532809D01*
X229892809Y-80532812D01*
X229806649Y-80647906D01*
X229806645Y-80647913D01*
X229756403Y-80782620D01*
X229756401Y-80782627D01*
X229750000Y-80842155D01*
X229750000Y-81090000D01*
X214750000Y-81090000D01*
X214750000Y-80842172D01*
X214749999Y-80842155D01*
X214743598Y-80782627D01*
X214743596Y-80782620D01*
X214693354Y-80647913D01*
X214693350Y-80647906D01*
X214607190Y-80532812D01*
X214607187Y-80532809D01*
X214492093Y-80446649D01*
X214492086Y-80446645D01*
X214357379Y-80396403D01*
X214357372Y-80396401D01*
X214297844Y-80390000D01*
X213750000Y-80390000D01*
X213250000Y-80390000D01*
X212702155Y-80390000D01*
X212642627Y-80396401D01*
X212642620Y-80396403D01*
X212507913Y-80446645D01*
X212507906Y-80446649D01*
X212392812Y-80532809D01*
X212392809Y-80532812D01*
X212306649Y-80647906D01*
X212306645Y-80647913D01*
X212256403Y-80782620D01*
X212256401Y-80782627D01*
X212250000Y-80842155D01*
X212250000Y-81090000D01*
X180511574Y-81090000D01*
X180630097Y-80982577D01*
X180633944Y-80979239D01*
X180778728Y-80859011D01*
X180783954Y-80854909D01*
X180929590Y-80746899D01*
X180933278Y-80744270D01*
X181088363Y-80638034D01*
X181094598Y-80634036D01*
X181250243Y-80540745D01*
X181253497Y-80538864D01*
X181417612Y-80447452D01*
X181424855Y-80443727D01*
X181589098Y-80366046D01*
X181592018Y-80364712D01*
X181656007Y-80336458D01*
X181763497Y-80288996D01*
X181771759Y-80285699D01*
X181943442Y-80224270D01*
X181945457Y-80223572D01*
X182122922Y-80164091D01*
X182132111Y-80161405D01*
X182310037Y-80116837D01*
X182311318Y-80116526D01*
X182492595Y-80073890D01*
X182502729Y-80071950D01*
X182686286Y-80044722D01*
X182687054Y-80044611D01*
X182869217Y-80019200D01*
X182880200Y-80018166D01*
X183076898Y-80008502D01*
X183241674Y-80000884D01*
X183247146Y-80000632D01*
X183252872Y-80000500D01*
X231497128Y-80000500D01*
X231502854Y-80000632D01*
G37*
G04 #@! TD.AperFunction*
M02*
