%TF.GenerationSoftware,KiCad,Pcbnew,7.0.10+dfsg-1*%
%TF.CreationDate,2024-05-26T04:12:09+00:00*%
%TF.ProjectId,telescope,74656c65-7363-46f7-9065-2e6b69636164,rev?*%
%TF.SameCoordinates,Original*%
%TF.FileFunction,Drillmap*%
%TF.FilePolarity,Positive*%
%FSLAX45Y45*%
G04 Gerber Fmt 4.5, Leading zero omitted, Abs format (unit mm)*
G04 Created by KiCad (PCBNEW 7.0.10+dfsg-1) date 2024-05-26 04:12:09*
%MOMM*%
%LPD*%
G01*
G04 APERTURE LIST*
%ADD10C,0.100000*%
%ADD11C,0.200000*%
G04 APERTURE END LIST*
D10*
X17925000Y-8400000D02*
X17925000Y-15300000D01*
X18325000Y-8000000D02*
G75*
G03*
X17925000Y-8400000I0J-400000D01*
G01*
X17925000Y-15300000D02*
G75*
G03*
X18325000Y-15700000I400000J0D01*
G01*
X23550000Y-8400000D02*
G75*
G03*
X23150000Y-8000000I-400000J0D01*
G01*
X23550000Y-8400000D02*
X23550000Y-15300000D01*
X18325000Y-8000000D02*
X23150000Y-8000000D01*
X18325000Y-15700000D02*
X23150000Y-15700000D01*
X23150000Y-15700000D02*
G75*
G03*
X23550000Y-15300000I0J400000D01*
G01*
D11*
X18180777Y-16016484D02*
X18180777Y-15816484D01*
X18180777Y-15816484D02*
X18228396Y-15816484D01*
X18228396Y-15816484D02*
X18256967Y-15826008D01*
X18256967Y-15826008D02*
X18276015Y-15845055D01*
X18276015Y-15845055D02*
X18285539Y-15864103D01*
X18285539Y-15864103D02*
X18295063Y-15902198D01*
X18295063Y-15902198D02*
X18295063Y-15930769D01*
X18295063Y-15930769D02*
X18285539Y-15968865D01*
X18285539Y-15968865D02*
X18276015Y-15987912D01*
X18276015Y-15987912D02*
X18256967Y-16006960D01*
X18256967Y-16006960D02*
X18228396Y-16016484D01*
X18228396Y-16016484D02*
X18180777Y-16016484D01*
X18380777Y-16016484D02*
X18380777Y-15883150D01*
X18380777Y-15921246D02*
X18390301Y-15902198D01*
X18390301Y-15902198D02*
X18399824Y-15892674D01*
X18399824Y-15892674D02*
X18418872Y-15883150D01*
X18418872Y-15883150D02*
X18437920Y-15883150D01*
X18504586Y-16016484D02*
X18504586Y-15883150D01*
X18504586Y-15816484D02*
X18495063Y-15826008D01*
X18495063Y-15826008D02*
X18504586Y-15835531D01*
X18504586Y-15835531D02*
X18514110Y-15826008D01*
X18514110Y-15826008D02*
X18504586Y-15816484D01*
X18504586Y-15816484D02*
X18504586Y-15835531D01*
X18628396Y-16016484D02*
X18609348Y-16006960D01*
X18609348Y-16006960D02*
X18599824Y-15987912D01*
X18599824Y-15987912D02*
X18599824Y-15816484D01*
X18733158Y-16016484D02*
X18714110Y-16006960D01*
X18714110Y-16006960D02*
X18704586Y-15987912D01*
X18704586Y-15987912D02*
X18704586Y-15816484D01*
X18961729Y-16016484D02*
X18961729Y-15816484D01*
X18961729Y-15816484D02*
X19028396Y-15959341D01*
X19028396Y-15959341D02*
X19095063Y-15816484D01*
X19095063Y-15816484D02*
X19095063Y-16016484D01*
X19276015Y-16016484D02*
X19276015Y-15911722D01*
X19276015Y-15911722D02*
X19266491Y-15892674D01*
X19266491Y-15892674D02*
X19247444Y-15883150D01*
X19247444Y-15883150D02*
X19209348Y-15883150D01*
X19209348Y-15883150D02*
X19190301Y-15892674D01*
X19276015Y-16006960D02*
X19256967Y-16016484D01*
X19256967Y-16016484D02*
X19209348Y-16016484D01*
X19209348Y-16016484D02*
X19190301Y-16006960D01*
X19190301Y-16006960D02*
X19180777Y-15987912D01*
X19180777Y-15987912D02*
X19180777Y-15968865D01*
X19180777Y-15968865D02*
X19190301Y-15949817D01*
X19190301Y-15949817D02*
X19209348Y-15940293D01*
X19209348Y-15940293D02*
X19256967Y-15940293D01*
X19256967Y-15940293D02*
X19276015Y-15930769D01*
X19371253Y-15883150D02*
X19371253Y-16083150D01*
X19371253Y-15892674D02*
X19390301Y-15883150D01*
X19390301Y-15883150D02*
X19428396Y-15883150D01*
X19428396Y-15883150D02*
X19447444Y-15892674D01*
X19447444Y-15892674D02*
X19456967Y-15902198D01*
X19456967Y-15902198D02*
X19466491Y-15921246D01*
X19466491Y-15921246D02*
X19466491Y-15978388D01*
X19466491Y-15978388D02*
X19456967Y-15997436D01*
X19456967Y-15997436D02*
X19447444Y-16006960D01*
X19447444Y-16006960D02*
X19428396Y-16016484D01*
X19428396Y-16016484D02*
X19390301Y-16016484D01*
X19390301Y-16016484D02*
X19371253Y-16006960D01*
X19552205Y-15997436D02*
X19561729Y-16006960D01*
X19561729Y-16006960D02*
X19552205Y-16016484D01*
X19552205Y-16016484D02*
X19542682Y-16006960D01*
X19542682Y-16006960D02*
X19552205Y-15997436D01*
X19552205Y-15997436D02*
X19552205Y-16016484D01*
X19552205Y-15892674D02*
X19561729Y-15902198D01*
X19561729Y-15902198D02*
X19552205Y-15911722D01*
X19552205Y-15911722D02*
X19542682Y-15902198D01*
X19542682Y-15902198D02*
X19552205Y-15892674D01*
X19552205Y-15892674D02*
X19552205Y-15911722D01*
M02*
