G04 #@! TF.GenerationSoftware,KiCad,Pcbnew,7.0.10+dfsg-1*
G04 #@! TF.CreationDate,2024-05-26T04:12:06+00:00*
G04 #@! TF.ProjectId,telescope,74656c65-7363-46f7-9065-2e6b69636164,rev?*
G04 #@! TF.SameCoordinates,Original*
G04 #@! TF.FileFunction,Soldermask,Bot*
G04 #@! TF.FilePolarity,Negative*
%FSLAX46Y46*%
G04 Gerber Fmt 4.6, Leading zero omitted, Abs format (unit mm)*
G04 Created by KiCad (PCBNEW 7.0.10+dfsg-1) date 2024-05-26 04:12:06*
%MOMM*%
%LPD*%
G01*
G04 APERTURE LIST*
G04 Aperture macros list*
%AMRoundRect*
0 Rectangle with rounded corners*
0 $1 Rounding radius*
0 $2 $3 $4 $5 $6 $7 $8 $9 X,Y pos of 4 corners*
0 Add a 4 corners polygon primitive as box body*
4,1,4,$2,$3,$4,$5,$6,$7,$8,$9,$2,$3,0*
0 Add four circle primitives for the rounded corners*
1,1,$1+$1,$2,$3*
1,1,$1+$1,$4,$5*
1,1,$1+$1,$6,$7*
1,1,$1+$1,$8,$9*
0 Add four rect primitives between the rounded corners*
20,1,$1+$1,$2,$3,$4,$5,0*
20,1,$1+$1,$4,$5,$6,$7,0*
20,1,$1+$1,$6,$7,$8,$9,0*
20,1,$1+$1,$8,$9,$2,$3,0*%
G04 Aperture macros list end*
%ADD10C,6.400000*%
%ADD11O,4.704000X2.454000*%
%ADD12O,2.500000X6.100000*%
%ADD13C,1.200000*%
%ADD14RoundRect,0.250000X-0.625000X0.350000X-0.625000X-0.350000X0.625000X-0.350000X0.625000X0.350000X0*%
%ADD15O,1.750000X1.200000*%
%ADD16R,1.700000X1.700000*%
%ADD17C,1.700000*%
%ADD18C,3.500000*%
%ADD19O,1.700000X1.700000*%
%ADD20RoundRect,0.250000X-0.625000X0.400000X-0.625000X-0.400000X0.625000X-0.400000X0.625000X0.400000X0*%
%ADD21RoundRect,0.250000X0.475000X-0.337500X0.475000X0.337500X-0.475000X0.337500X-0.475000X-0.337500X0*%
%ADD22RoundRect,0.250000X0.625000X-0.400000X0.625000X0.400000X-0.625000X0.400000X-0.625000X-0.400000X0*%
%ADD23RoundRect,0.250000X-0.475000X0.337500X-0.475000X-0.337500X0.475000X-0.337500X0.475000X0.337500X0*%
%ADD24R,2.000000X0.650000*%
%ADD25RoundRect,0.250000X-0.450000X0.350000X-0.450000X-0.350000X0.450000X-0.350000X0.450000X0.350000X0*%
%ADD26RoundRect,0.150000X-0.512500X-0.150000X0.512500X-0.150000X0.512500X0.150000X-0.512500X0.150000X0*%
%ADD27RoundRect,0.250000X0.450000X-0.350000X0.450000X0.350000X-0.450000X0.350000X-0.450000X-0.350000X0*%
%ADD28RoundRect,0.100000X0.650000X0.100000X-0.650000X0.100000X-0.650000X-0.100000X0.650000X-0.100000X0*%
%ADD29R,3.200000X5.000000*%
%ADD30RoundRect,0.150000X0.150000X-0.587500X0.150000X0.587500X-0.150000X0.587500X-0.150000X-0.587500X0*%
%ADD31RoundRect,0.250000X-0.337500X-0.475000X0.337500X-0.475000X0.337500X0.475000X-0.337500X0.475000X0*%
%ADD32RoundRect,0.250000X-0.250000X-0.250000X0.250000X-0.250000X0.250000X0.250000X-0.250000X0.250000X0*%
%ADD33RoundRect,0.250000X0.450000X-0.325000X0.450000X0.325000X-0.450000X0.325000X-0.450000X-0.325000X0*%
%ADD34RoundRect,0.250000X-0.350000X-0.450000X0.350000X-0.450000X0.350000X0.450000X-0.350000X0.450000X0*%
%ADD35RoundRect,0.250000X0.350000X0.450000X-0.350000X0.450000X-0.350000X-0.450000X0.350000X-0.450000X0*%
%ADD36RoundRect,0.250000X0.250000X0.250000X-0.250000X0.250000X-0.250000X-0.250000X0.250000X-0.250000X0*%
%ADD37RoundRect,0.250000X-0.400000X-0.625000X0.400000X-0.625000X0.400000X0.625000X-0.400000X0.625000X0*%
G04 APERTURE END LIST*
D10*
X231000000Y-127000000D03*
D11*
X193480000Y-142990000D03*
X193480000Y-149290000D03*
D12*
X187480000Y-126290000D03*
X193480000Y-126290000D03*
D10*
X184000000Y-85000000D03*
D13*
X194500000Y-100500000D03*
X196500000Y-100500000D03*
D10*
X206000000Y-149000000D03*
D14*
X185675000Y-92000000D03*
D15*
X185675000Y-94000000D03*
X185675000Y-96000000D03*
X185675000Y-98000000D03*
D16*
X223750000Y-141422500D03*
D17*
X221250000Y-141422500D03*
X221250000Y-143422500D03*
X223750000Y-143422500D03*
D18*
X228520000Y-146132500D03*
X216480000Y-146132500D03*
D16*
X210380000Y-112000000D03*
D19*
X212920000Y-112000000D03*
X215460000Y-112000000D03*
X218000000Y-112000000D03*
D14*
X185675000Y-104245000D03*
D15*
X185675000Y-106245000D03*
X185675000Y-108245000D03*
X185675000Y-110245000D03*
D20*
X191500000Y-88450000D03*
X191500000Y-91550000D03*
D21*
X211980000Y-118810168D03*
X211980000Y-116735168D03*
D22*
X191500000Y-112300000D03*
X191500000Y-109200000D03*
D23*
X205175000Y-88207500D03*
X205175000Y-90282500D03*
D24*
X211480000Y-127190000D03*
X211480000Y-126240000D03*
X211480000Y-125290000D03*
X214900000Y-125290000D03*
X214900000Y-126240000D03*
X214900000Y-127190000D03*
D20*
X191500000Y-102950000D03*
X191500000Y-106050000D03*
D21*
X215980000Y-118810168D03*
X215980000Y-116735168D03*
D25*
X208030000Y-116290000D03*
X208030000Y-118290000D03*
D26*
X201342500Y-132490000D03*
X201342500Y-131540000D03*
X201342500Y-130590000D03*
X203617500Y-130590000D03*
X203617500Y-132490000D03*
D22*
X191500000Y-97800000D03*
X191500000Y-94700000D03*
D23*
X217600000Y-85725000D03*
X217600000Y-87800000D03*
D27*
X219400000Y-100200000D03*
X219400000Y-98200000D03*
D28*
X201750000Y-104000000D03*
X201750000Y-104650000D03*
X201750000Y-105300000D03*
X201750000Y-105950000D03*
X201750000Y-106600000D03*
X201750000Y-107250000D03*
X201750000Y-107900000D03*
X201750000Y-108550000D03*
X201750000Y-109200000D03*
X201750000Y-109850000D03*
X201750000Y-110500000D03*
X201750000Y-111150000D03*
X196000000Y-111150000D03*
X196000000Y-110500000D03*
X196000000Y-109850000D03*
X196000000Y-109200000D03*
X196000000Y-108550000D03*
X196000000Y-107900000D03*
X196000000Y-107250000D03*
X196000000Y-106600000D03*
X196000000Y-105950000D03*
X196000000Y-105300000D03*
X196000000Y-104650000D03*
X196000000Y-104000000D03*
D29*
X198875000Y-107575000D03*
D30*
X227450000Y-106437500D03*
X225550000Y-106437500D03*
X226500000Y-104562500D03*
D21*
X207750000Y-104787500D03*
X207750000Y-102712500D03*
D27*
X216000000Y-104500000D03*
X216000000Y-102500000D03*
D31*
X201462500Y-135750000D03*
X203537500Y-135750000D03*
D21*
X208250000Y-129037500D03*
X208250000Y-126962500D03*
D32*
X215250000Y-139622668D03*
X217750000Y-139622668D03*
D30*
X222450000Y-106500000D03*
X220550000Y-106500000D03*
X221500000Y-104625000D03*
D28*
X201750000Y-89500000D03*
X201750000Y-90150000D03*
X201750000Y-90800000D03*
X201750000Y-91450000D03*
X201750000Y-92100000D03*
X201750000Y-92750000D03*
X201750000Y-93400000D03*
X201750000Y-94050000D03*
X201750000Y-94700000D03*
X201750000Y-95350000D03*
X201750000Y-96000000D03*
X201750000Y-96650000D03*
X196000000Y-96650000D03*
X196000000Y-96000000D03*
X196000000Y-95350000D03*
X196000000Y-94700000D03*
X196000000Y-94050000D03*
X196000000Y-93400000D03*
X196000000Y-92750000D03*
X196000000Y-92100000D03*
X196000000Y-91450000D03*
X196000000Y-90800000D03*
X196000000Y-90150000D03*
X196000000Y-89500000D03*
D29*
X198875000Y-93075000D03*
D33*
X219480000Y-122315000D03*
X219480000Y-120265000D03*
D25*
X207980000Y-121290000D03*
X207980000Y-123290000D03*
D32*
X215250000Y-142122668D03*
X217750000Y-142122668D03*
D27*
X226000000Y-112500000D03*
X226000000Y-110500000D03*
D34*
X205250000Y-109379900D03*
X207250000Y-109379900D03*
D23*
X205175000Y-102670000D03*
X205175000Y-104745000D03*
D35*
X216980000Y-122290000D03*
X214980000Y-122290000D03*
D34*
X205175000Y-94245000D03*
X207175000Y-94245000D03*
D36*
X229750000Y-141622668D03*
X227250000Y-141622668D03*
D21*
X218750000Y-129287500D03*
X218750000Y-127212500D03*
D27*
X222500000Y-112500000D03*
X222500000Y-110500000D03*
D35*
X212480000Y-122290000D03*
X210480000Y-122290000D03*
D21*
X207750000Y-90287500D03*
X207750000Y-88212500D03*
D37*
X200930000Y-126290000D03*
X204030000Y-126290000D03*
D27*
X231500000Y-106500000D03*
X231500000Y-104500000D03*
M02*
