G04 #@! TF.GenerationSoftware,KiCad,Pcbnew,7.0.10+dfsg-1*
G04 #@! TF.CreationDate,2024-05-26T04:12:06+00:00*
G04 #@! TF.ProjectId,telescope,74656c65-7363-46f7-9065-2e6b69636164,rev?*
G04 #@! TF.SameCoordinates,Original*
G04 #@! TF.FileFunction,Paste,Top*
G04 #@! TF.FilePolarity,Positive*
%FSLAX46Y46*%
G04 Gerber Fmt 4.6, Leading zero omitted, Abs format (unit mm)*
G04 Created by KiCad (PCBNEW 7.0.10+dfsg-1) date 2024-05-26 04:12:06*
%MOMM*%
%LPD*%
G01*
G04 APERTURE LIST*
G04 Aperture macros list*
%AMRoundRect*
0 Rectangle with rounded corners*
0 $1 Rounding radius*
0 $2 $3 $4 $5 $6 $7 $8 $9 X,Y pos of 4 corners*
0 Add a 4 corners polygon primitive as box body*
4,1,4,$2,$3,$4,$5,$6,$7,$8,$9,$2,$3,0*
0 Add four circle primitives for the rounded corners*
1,1,$1+$1,$2,$3*
1,1,$1+$1,$4,$5*
1,1,$1+$1,$6,$7*
1,1,$1+$1,$8,$9*
0 Add four rect primitives between the rounded corners*
20,1,$1+$1,$2,$3,$4,$5,0*
20,1,$1+$1,$4,$5,$6,$7,0*
20,1,$1+$1,$6,$7,$8,$9,0*
20,1,$1+$1,$8,$9,$2,$3,0*%
G04 Aperture macros list end*
%ADD10RoundRect,0.250000X0.350000X0.450000X-0.350000X0.450000X-0.350000X-0.450000X0.350000X-0.450000X0*%
%ADD11RoundRect,0.250000X0.475000X-0.337500X0.475000X0.337500X-0.475000X0.337500X-0.475000X-0.337500X0*%
%ADD12RoundRect,0.250000X-0.350000X-0.450000X0.350000X-0.450000X0.350000X0.450000X-0.350000X0.450000X0*%
%ADD13R,1.400000X2.100000*%
%ADD14RoundRect,0.250000X0.337500X0.475000X-0.337500X0.475000X-0.337500X-0.475000X0.337500X-0.475000X0*%
%ADD15R,1.500000X0.900000*%
%ADD16R,0.900000X1.500000*%
%ADD17R,1.050000X1.050000*%
%ADD18RoundRect,0.250000X-0.450000X0.350000X-0.450000X-0.350000X0.450000X-0.350000X0.450000X0.350000X0*%
%ADD19RoundRect,0.250000X0.450000X-0.350000X0.450000X0.350000X-0.450000X0.350000X-0.450000X-0.350000X0*%
%ADD20RoundRect,0.250001X0.624999X-0.462499X0.624999X0.462499X-0.624999X0.462499X-0.624999X-0.462499X0*%
%ADD21RoundRect,0.250000X-0.475000X0.337500X-0.475000X-0.337500X0.475000X-0.337500X0.475000X0.337500X0*%
%ADD22R,1.511300X0.355600*%
%ADD23RoundRect,0.150000X-0.150000X0.587500X-0.150000X-0.587500X0.150000X-0.587500X0.150000X0.587500X0*%
G04 APERTURE END LIST*
D10*
X215000000Y-136500000D03*
X213000000Y-136500000D03*
D11*
X227000000Y-124037500D03*
X227000000Y-121962500D03*
D12*
X208000000Y-92000000D03*
X210000000Y-92000000D03*
D13*
X198750000Y-113500000D03*
X198750000Y-104400000D03*
X203250000Y-113500000D03*
X203250000Y-104400000D03*
D12*
X224250000Y-102250000D03*
X226250000Y-102250000D03*
D14*
X233037500Y-102750000D03*
X230962500Y-102750000D03*
D11*
X224000000Y-124037500D03*
X224000000Y-121962500D03*
D15*
X213500000Y-81340000D03*
X213500000Y-82610000D03*
X213500000Y-83880000D03*
X213500000Y-85150000D03*
X213500000Y-86420000D03*
X213500000Y-87690000D03*
X213500000Y-88960000D03*
X213500000Y-90230000D03*
X213500000Y-91500000D03*
X213500000Y-92770000D03*
X213500000Y-94040000D03*
X213500000Y-95310000D03*
X213500000Y-96580000D03*
X213500000Y-97850000D03*
D16*
X216540000Y-99100000D03*
X217810000Y-99100000D03*
X219080000Y-99100000D03*
X220350000Y-99100000D03*
X221620000Y-99100000D03*
X222890000Y-99100000D03*
X224160000Y-99100000D03*
X225430000Y-99100000D03*
X226700000Y-99100000D03*
X227970000Y-99100000D03*
D15*
X231000000Y-97850000D03*
X231000000Y-96580000D03*
X231000000Y-95310000D03*
X231000000Y-94040000D03*
X231000000Y-92770000D03*
X231000000Y-91500000D03*
X231000000Y-90230000D03*
X231000000Y-88960000D03*
X231000000Y-87690000D03*
X231000000Y-86420000D03*
X231000000Y-85150000D03*
X231000000Y-83880000D03*
X231000000Y-82610000D03*
X231000000Y-81340000D03*
D17*
X220045000Y-87155000D03*
X220045000Y-88680000D03*
X220045000Y-90205000D03*
X221570000Y-87155000D03*
X221570000Y-88680000D03*
X221570000Y-90205000D03*
X223095000Y-87155000D03*
X223095000Y-88680000D03*
X223095000Y-90205000D03*
D18*
X210750000Y-100000000D03*
X210750000Y-102000000D03*
D19*
X231500000Y-109500000D03*
X231500000Y-107500000D03*
D20*
X230500000Y-116487500D03*
X230500000Y-113512500D03*
D21*
X210000000Y-82962500D03*
X210000000Y-85037500D03*
D22*
X213992900Y-123350014D03*
X213992900Y-124000000D03*
X213992900Y-124649986D03*
X213992900Y-125299972D03*
X213992900Y-125949958D03*
X213992900Y-126599944D03*
X213992900Y-127249930D03*
X213992900Y-127899916D03*
X213992900Y-128549902D03*
X213992900Y-129199888D03*
X213992900Y-129849874D03*
X213992900Y-130499860D03*
X213992900Y-131149846D03*
X213992900Y-131799832D03*
X220000000Y-131799832D03*
X220000000Y-131149846D03*
X220000000Y-130499860D03*
X220000000Y-129849874D03*
X220000000Y-129199888D03*
X220000000Y-128549902D03*
X220000000Y-127899916D03*
X220000000Y-127249930D03*
X220000000Y-126599944D03*
X220000000Y-125949958D03*
X220000000Y-125299972D03*
X220000000Y-124649986D03*
X220000000Y-124000000D03*
X220000000Y-123350014D03*
D18*
X221750000Y-112000000D03*
X221750000Y-114000000D03*
D19*
X227000000Y-132299832D03*
X227000000Y-130299832D03*
X224000000Y-132299832D03*
X224000000Y-130299832D03*
D21*
X207000000Y-83000000D03*
X207000000Y-85075000D03*
D23*
X226500000Y-114500000D03*
X224600000Y-114500000D03*
X225550000Y-116375000D03*
D13*
X203250000Y-84900000D03*
X203250000Y-94000000D03*
X198750000Y-84900000D03*
X198750000Y-94000000D03*
D12*
X208000000Y-88500000D03*
X210000000Y-88500000D03*
M02*
