M48
; DRILL file {KiCad 7.0.10+dfsg-1} date Sun 26 May 2024 04:12:08 AM
; FORMAT={-:-/ absolute / metric / decimal}
; #@! TF.CreationDate,2024-05-26T04:12:08+00:00
; #@! TF.GenerationSoftware,Kicad,Pcbnew,7.0.10+dfsg-1
; #@! TF.FileFunction,Plated,1,2,PTH
FMAT,2
METRIC
; #@! TA.AperFunction,Plated,PTH,ComponentDrill
T1C0.200
; #@! TA.AperFunction,Plated,PTH,ViaDrill
T2C0.400
; #@! TA.AperFunction,Plated,PTH,ComponentDrill
T3C0.600
; #@! TA.AperFunction,Plated,PTH,ComponentDrill
T4C0.750
; #@! TA.AperFunction,Plated,PTH,ComponentDrill
T5C0.920
; #@! TA.AperFunction,Plated,PTH,ComponentDrill
T6C1.000
; #@! TA.AperFunction,Plated,PTH,ComponentDrill
T7C1.100
; #@! TA.AperFunction,Plated,PTH,ComponentDrill
T8C2.330
; #@! TA.AperFunction,Plated,PTH,ComponentDrill
T9C3.200
%
G90
G05
T1
X220.045Y-87.917
X220.045Y-89.442
X220.807Y-87.155
X220.807Y-88.68
X220.807Y-90.205
X221.57Y-87.917
X221.57Y-89.442
X222.332Y-87.155
X222.332Y-88.68
X222.332Y-90.205
X223.095Y-87.917
X223.095Y-89.442
T2
X184.4Y-101.0
X188.75Y-98.25
X189.5Y-84.0
X191.5Y-86.25
X194.0Y-90.75
X194.0Y-111.25
X194.022Y-95.214
X194.022Y-105.75
X196.5Y-102.5
X196.5Y-112.75
X196.75Y-88.0
X196.8Y-119.0
X199.75Y-116.5
X200.0Y-87.0
X200.0Y-96.5
X200.0Y-111.0
X200.25Y-88.5
X201.25Y-113.25
X203.25Y-88.0
X204.0Y-117.5
X204.25Y-123.37
X204.5Y-134.0
X205.0Y-114.0
X205.26Y-99.002
X206.25Y-114.75
X206.481Y-98.896
X207.75Y-99.0
X209.0Y-109.0
X209.0Y-114.75
X209.6Y-120.6
X210.38Y-119.145
X210.5Y-107.75
X211.25Y-88.5
X211.25Y-106.525
X211.5Y-92.0
X211.561Y-96.582
X211.6Y-97.85
X211.75Y-115.0
X212.0Y-128.5
X213.5Y-104.75
X214.85Y-96.25
X215.2Y-84.0
X215.5Y-123.75
X215.5Y-130.0
X216.5Y-95.5
X217.25Y-90.0
X217.4Y-97.6
X217.764Y-108.472
X218.5Y-105.75
X218.5Y-123.75
X219.25Y-102.25
X219.25Y-108.25
X219.96Y-85.465
X221.25Y-118.0
X221.4Y-91.8
X221.425Y-108.425
X221.757Y-128.534
X224.2Y-94.8
X226.6Y-81.2
X226.6Y-85.4
X227.2Y-108.4
X227.25Y-120.0
X228.75Y-90.25
X229.0Y-105.5
X229.25Y-91.75
X229.42Y-96.58
X230.962Y-100.5
X231.8Y-120.2
X233.8Y-85.6
T3
X194.5Y-100.5
X196.5Y-100.5
T4
X185.675Y-92.0
X185.675Y-94.0
X185.675Y-96.0
X185.675Y-98.0
X185.675Y-104.245
X185.675Y-106.245
X185.675Y-108.245
X185.675Y-110.245
T5
X221.25Y-141.422
X221.25Y-143.422
X223.75Y-141.422
X223.75Y-143.422
T6
X210.38Y-112.0
X212.92Y-112.0
X215.46Y-112.0
X218.0Y-112.0
T8
X216.48Y-146.132
X228.52Y-146.132
T9
X184.0Y-85.0
X206.0Y-149.0
X231.0Y-127.0
T6
X187.48Y-124.49G85X187.48Y-128.09
G05
X193.48Y-124.49G85X193.48Y-128.09
G05
T7
X194.53Y-142.99G85X192.43Y-142.99
G05
X194.53Y-149.29G85X192.43Y-149.29
G05
M30
